<?xml version="1.0" encoding="UTF-8" standalone="no"?>
<!-- Generator: Adobe Illustrator 12.0.0, SVG Export Plug-In . SVG Version: 6.00 Build 51448)  --><svg enable-background="new 0 0 124.176 66.475" height="128" id="Livello_1" inkscape:output_extension="org.inkscape.output.svg.inkscape" inkscape:version="0.45" overflow="visible" sodipodi:docbase="/home/david/Progetti/sandbox" sodipodi:docname="charset.svg" sodipodi:modified="true" sodipodi:version="0.32" space="preserve" version="1.0" viewBox="0 0 124.176 66.475" width="128" xmlns="http://www.w3.org/2000/svg" xmlns:cc="http://web.resource.org/cc/" xmlns:dc="http://purl.org/dc/elements/1.1/" xmlns:inkscape="http://www.inkscape.org/namespaces/inkscape" xmlns:ns="http://ns.adobe.com/SaveForWeb/1.0/" xmlns:rdf="http://www.w3.org/1999/02/22-rdf-syntax-ns#" xmlns:sodipodi="http://sodipodi.sourceforge.net/DTD/sodipodi-0.dtd" xmlns:svg="http://www.w3.org/2000/svg" xmlns:xlink="http://www.w3.org/1999/xlink">
  <metadata>
    <rdf:RDF xmlns:cc="http://web.resource.org/cc/" xmlns:dc="http://purl.org/dc/elements/1.1/" xmlns:rdf="http://www.w3.org/1999/02/22-rdf-syntax-ns#">
      <cc:Work rdf:about="">
        <dc:title></dc:title>
        <dc:description></dc:description>
        <dc:subject>
          <rdf:Bag>
            <rdf:li>unsorted</rdf:li>
          </rdf:Bag>
        </dc:subject>
        <dc:publisher>
          <cc:Agent rdf:about="http://www.openclipart.org/">
            <dc:title>Open Clip Art Library, Source: Oxygen Icons, Source: Oxygen Icons, Source: Oxygen Icons, Source: Oxygen Icons</dc:title>
          </cc:Agent>
        </dc:publisher>
        <dc:creator>
          <cc:Agent>
            <dc:title></dc:title>
          </cc:Agent>
        </dc:creator>
        <dc:rights>
          <cc:Agent>
            <dc:title></dc:title>
          </cc:Agent>
        </dc:rights>
        <dc:date></dc:date>
        <dc:format>image/svg+xml</dc:format>
        <dc:type rdf:resource="http://purl.org/dc/dcmitype/StillImage"/>
        <cc:license rdf:resource="http://creativecommons.org/licenses/by-sa/3.0/ or http://creativecommons.org/licenses/LGPL/2.1/"/>
        <dc:language>en</dc:language>
      </cc:Work>
    </rdf:RDF>
  </metadata>
  <defs id="defs29">
    <linearGradient id="linearGradient3291" inkscape:collect="always">
      <stop id="stop3293" offset="0" style="stop-color:#000000;stop-opacity:1;"/>
      <stop id="stop3295" offset="1" style="stop-color:#000000;stop-opacity:0;"/>
    </linearGradient>
    <radialGradient cx="63.912209" cy="115.70919" fx="63.912209" fy="115.7093" gradientTransform="matrix(1,0,0,0.197802,0,92.82166)" gradientUnits="userSpaceOnUse" id="radialGradient3336" inkscape:collect="always" r="63.912209" xlink:href="#linearGradient3291"/>
    <linearGradient gradientUnits="userSpaceOnUse" id="XMLID_4_" x1="22.481001" x2="22.481001" y1="65.662102" y2="0.00048828119">
      <stop id="stop8" offset="0" style="stop-color:#2E3436"/>
      <stop id="stop10" offset="1" style="stop-color:#000000"/>
    </linearGradient>
    <linearGradient gradientTransform="matrix(1,0,0,1.0133482,0,1.6235306)" gradientUnits="userSpaceOnUse" id="XMLID_5_" x1="64.6689" x2="64.6689" y1="65.662102" y2="15.8804">
      <stop id="stop15" offset="0" style="stop-color:#2E3436"/>
      <stop id="stop17" offset="1" style="stop-color:#000000"/>
    </linearGradient>
    <linearGradient gradientTransform="translate(0,1.687)" gradientUnits="userSpaceOnUse" id="XMLID_6_" x1="104.2773" x2="104.2773" y1="66.474602" y2="4.2846999">
      <stop id="stop22" offset="0" style="stop-color:#2E3436"/>
      <stop id="stop24" offset="1" style="stop-color:#000000"/>
    </linearGradient>
    <linearGradient gradientTransform="matrix(1,0,0,-1.0127815,0,68.971157)" gradientUnits="userSpaceOnUse" id="linearGradient2218" inkscape:collect="always" x1="38.609329" x2="38.366798" xlink:href="#XMLID_4_" y1="0.79894531" y2="50.62952"/>
    <linearGradient gradientTransform="matrix(1,0,0,0.9813158,0,2.9290339)" gradientUnits="userSpaceOnUse" id="linearGradient2253" inkscape:collect="always" x1="104.2773" x2="104.39857" xlink:href="#XMLID_6_" y1="66.474602" y2="15.9262"/>
    <radialGradient cx="63.912209" cy="115.70919" fx="63.912209" fy="115.7093" gradientTransform="matrix(1,0,0,0.197802,0,92.82166)" gradientUnits="userSpaceOnUse" id="radialGradient4261" inkscape:collect="always" r="63.912209" xlink:href="#linearGradient3291"/>
    <radialGradient cx="63.912209" cy="115.70919" fx="63.912209" fy="115.7093" gradientTransform="matrix(1,0,0,0.197802,0,92.82166)" gradientUnits="userSpaceOnUse" id="radialGradient4265" inkscape:collect="always" r="63.912209" xlink:href="#linearGradient3291"/>
    <radialGradient cx="63.912209" cy="115.70919" fx="63.912209" fy="115.7093" gradientTransform="matrix(1,0,0,0.197802,0,92.82166)" gradientUnits="userSpaceOnUse" id="radialGradient4268" inkscape:collect="always" r="63.912209" xlink:href="#linearGradient3291"/>
  </defs>
  <sodipodi:namedview bordercolor="#666666" borderlayer="false" borderopacity="1.0" gridempspacing="0" gridspacingx="4px" gridspacingy="4px" gridtolerance="10.0" guidetolerance="10.0" height="128px" id="base" inkscape:current-layer="Livello_1" inkscape:cx="64" inkscape:cy="64" inkscape:pageopacity="0.0" inkscape:pageshadow="2" inkscape:showpageshadow="false" inkscape:window-height="694" inkscape:window-width="1018" inkscape:window-x="0" inkscape:window-y="0" inkscape:zoom="3.8359375" objecttolerance="10.0" pagecolor="#ffffff" showgrid="true" width="128px"/>
  <path d="M 16.401176,17.7155 L 0,68.162 L 9.6406172,68.162 L 14.036496,53.853984 L 30.316406,53.853984 L 34.9245,68.162 L 44.95923,68.162 L 28.315523,17.7155 L 16.401176,17.7155 z M 21.949078,25.053731 L 22.10066,25.053731 C 22.86066,27.971554 23.690555,31.413123 24.677555,34.479827 L 28.709637,46.914905 L 15.582633,46.914905 L 19.523766,34.479827 C 20.434765,31.48807 21.190078,27.971554 21.949078,25.053731 z " id="path2200" style="fill:url(#linearGradient2218)"/>
  <path d="M 23.1875 28 C 17.786134 28 14.719782 31.645231 14.71875 36.15625 C 14.71875 40.496737 17.942815 44 23.1875 44 C 28.354875 44 31.624999 40.519503 31.625 36.09375 C 31.625 31.583884 28.651366 28 23.25 28 L 23.1875 28 z M 23.0625 32 L 23.15625 32 C 25.677144 32 27.15625 33.919307 27.15625 36 C 27.15625 38.23883 25.677144 40 23.15625 40 C 20.721219 40 19.15625 38.075555 19.15625 36.15625 C 19.15625 33.996488 20.540461 32 23.0625 32 z " id="path2228" style="fill:#000000;fill-opacity:1" transform="matrix(0.970125,0,0,0.970125,0,-28.8505)"/>
  <path d="M 52.479,68.162 L 52.479,49.375538 L 46.479,53.567759 L 46.479,46.980996 L 52.479,42.788774 L 52.479,17.7155 L 61.821,17.7155 L 61.821,36.57695 L 71.694,29.841225 L 71.694,36.501962 L 61.821,43.237688 L 61.821,60.452447 L 82.859,60.452447 L 82.859,68.160987 L 52.479,68.160987 L 52.479,68.162 z " id="path19" style="fill:url(#XMLID_5_)"/>
  <path d="M 123.72,65.914787 C 121.518,67.002085 116.658,68.162 110.505,68.162 C 94.252,68.162 84.379,58.3773 84.379,43.519198 C 84.379,27.428564 96.075,17.7155 111.72,17.7155 C 117.872,17.7155 122.278,18.948033 124.176,19.890096 L 122.125,26.992859 C 119.694,25.978179 116.354,25.108733 112.1,25.108733 C 101.696,25.108733 94.176,31.342051 94.176,43.083494 C 94.176,53.811238 100.783,60.69615 112.025,60.69615 C 115.822,60.69615 119.771,59.970957 122.202,58.883659 L 123.72,65.914787 z " id="path2222" style="fill:url(#linearGradient2253)"/>
  <path d="M 105.08728,13.835 L 97.0125,2.1935 L 104.22438,2.1935 L 108.69271,8.6506979 L 108.8496,8.6506979 L 113.16104,2.1935 L 120.2955,2.1935 L 112.37761,13.835 L 105.08728,13.835 z " id="path26" style="fill:#000000;fill-opacity:1"/>
  <path d="M 127.82442 115.70919 A 63.912209 12.641975 0 1 1  0,115.70919 A 63.912209 12.641975 0 1 1  127.82442 115.70919 z" id="path1563" sodipodi:cx="63.912209" sodipodi:cy="115.70919" sodipodi:rx="63.912209" sodipodi:ry="12.641975" sodipodi:type="arc" style="opacity:0.38139535;fill:url(#radialGradient4268);fill-opacity:1;fill-rule:nonzero;stroke:none;stroke-width:0;stroke-linecap:round;stroke-linejoin:round;stroke-miterlimit:4;stroke-dasharray:none;stroke-dashoffset:4;stroke-opacity:1" transform="matrix(0.971458,0,0,0.3981189,-2.6300491e-5,44.226475)"/>
</svg>
