<?xml version="1.0" encoding="UTF-8" standalone="no"?>
<!-- Generator: Adobe Illustrator 14.0.0, SVG Export Plug-In . SVG Version: 6.00 Build 43363)  -->

<svg
   xmlns:dc="http://purl.org/dc/elements/1.1/"
   xmlns:cc="http://creativecommons.org/ns#"
   xmlns:rdf="http://www.w3.org/1999/02/22-rdf-syntax-ns#"
   xmlns:svg="http://www.w3.org/2000/svg"
   xmlns="http://www.w3.org/2000/svg"
   xmlns:sodipodi="http://sodipodi.sourceforge.net/DTD/sodipodi-0.dtd"
   xmlns:inkscape="http://www.inkscape.org/namespaces/inkscape"
   version="1.1"
   id="Layer_3"
   x="0px"
   y="0px"
   width="552.96002"
   height="290.87799"
   viewBox="0 0 552.96002 290.87799"
   enable-background="new 0 0 792 612"
   xml:space="preserve"
   inkscape:version="0.47pre3 r22311"
   sodipodi:docname="php-logo.svg"><metadata
   id="metadata32"><rdf:RDF><cc:Work
       rdf:about=""><dc:format>image/svg+xml</dc:format><dc:type
         rdf:resource="http://purl.org/dc/dcmitype/StillImage" /></cc:Work></rdf:RDF></metadata><defs
   id="defs30"><inkscape:perspective
     sodipodi:type="inkscape:persp3d"
     inkscape:vp_x="0 : 306 : 1"
     inkscape:vp_y="0 : 1000 : 0"
     inkscape:vp_z="792 : 306 : 1"
     inkscape:persp3d-origin="396 : 204 : 1"
     id="perspective34" /></defs><sodipodi:namedview
   pagecolor="#ffffff"
   bordercolor="#666666"
   borderopacity="1"
   objecttolerance="10"
   gridtolerance="10"
   guidetolerance="10"
   inkscape:pageopacity="0"
   inkscape:pageshadow="2"
   inkscape:window-width="1472"
   inkscape:window-height="886"
   id="namedview28"
   showgrid="false"
   showborder="true"
   inkscape:showpageshadow="true"
   borderlayer="false"
   inkscape:zoom="1.1091871"
   inkscape:cx="371.32725"
   inkscape:cy="156.68588"
   inkscape:window-x="0"
   inkscape:window-y="0"
   inkscape:window-maximized="0"
   inkscape:current-layer="Layer_3" />
<radialGradient
   id="SVGID_1_"
   cx="259.5"
   cy="221.5"
   r="363.05649"
   gradientTransform="translate(26.52,-9.3071)"
   gradientUnits="userSpaceOnUse">
	<stop
   offset="0"
   style="stop-color:#FFFFFF"
   id="stop4" />
	<stop
   offset="0.5"
   style="stop-color:#4A6993"
   id="stop6" />
	<stop
   offset="1"
   style="stop-color:#1A171B"
   id="stop8" />
</radialGradient>
<ellipse
   cx="396.5"
   cy="306.5"
   rx="276.48001"
   ry="145.439"
   id="ellipse10"
   sodipodi:cx="396.5"
   sodipodi:cy="306.5"
   sodipodi:rx="276.48001"
   sodipodi:ry="145.439"
   style="fill:url(#SVGID_1_)"
   transform="translate(-120.01999,-161.061)" />
<ellipse
   cx="396.5"
   cy="306.5"
   rx="265.67999"
   ry="134.64101"
   id="ellipse12"
   sodipodi:cx="396.5"
   sodipodi:cy="306.5"
   sodipodi:rx="265.67999"
   sodipodi:ry="134.64101"
   style="fill:#6583b6"
   transform="translate(-120.01999,-161.061)" />
<g
   id="g14"
   transform="translate(-120.01999,-161.061)">
	<path
   d="m 450.318,350.018 c 0,0 13.18,-67.825 13.18,-67.825 2.973,-15.309 0.5,-26.729 -7.351,-33.943 -7.603,-6.982 -20.511,-10.376 -39.461,-10.376 h -22.822 l 6.532,-33.606 c 0.246,-1.267 -0.088,-2.577 -0.907,-3.572 -0.821,-0.995 -2.044,-1.572 -3.334,-1.572 h -31.5 c -2.068,0 -3.846,1.465 -4.241,3.496 l -13.995,72.006 c -1.273,-8.102 -4.408,-15.068 -9.427,-20.813 -9.239,-10.576 -23.854,-15.938 -43.441,-15.938 h -61.055 c -2.068,0 -3.846,1.465 -4.24,3.496 l -28.328,145.75 c -0.246,1.267 0.086,2.576 0.907,3.571 0.82,0.995 2.043,1.572 3.333,1.572 h 31.75 c 2.068,0 3.846,-1.466 4.24,-3.495 l 6.852,-35.255 h 23.634 c 12.404,0 22.82,-1.344 30.957,-3.993 8.318,-2.704 15.972,-7.291 22.721,-13.607 5.451,-5.01 9.957,-10.617 13.424,-16.668 l -5.661,29.125 c -0.246,1.267 0.086,2.576 0.907,3.571 0.821,0.995 2.043,1.572 3.333,1.572 h 31.5 c 2.068,0 3.846,-1.466 4.241,-3.495 l 15.547,-80.005 h 21.614 c 9.21,0 11.906,1.834 12.639,2.623 0.667,0.719 2.052,3.254 0.499,11.245 l -12.531,64.488 c -0.246,1.267 0.087,2.576 0.908,3.571 0.82,0.995 2.043,1.572 3.333,1.572 h 32 c 2.07,0 3.848,-1.466 4.243,-3.495 z M 304.28,293.977 c -1.979,10.167 -5.707,17.419 -11.083,21.558 -5.461,4.205 -14.198,6.338 -25.966,6.338 H 253.16 l 10.176,-52.36 h 18.192 c 13.366,0 18.751,2.857 20.913,5.253 2.997,3.323 3.633,9.967 1.839,19.211 z"
   id="path16"
   style="fill:#ffffff" />
	<path
   d="m 585.024,253.812 c -9.239,-10.576 -23.855,-15.938 -43.44,-15.938 h -61.056 c -2.068,0 -3.846,1.465 -4.24,3.496 L 447.96,387.12 c -0.246,1.267 0.087,2.576 0.907,3.571 0.821,0.995 2.043,1.572 3.334,1.572 h 31.75 c 2.067,0 3.846,-1.466 4.239,-3.495 l 6.853,-35.255 h 23.634 c 12.404,0 22.82,-1.344 30.957,-3.993 8.318,-2.704 15.973,-7.291 22.721,-13.607 5.628,-5.173 10.261,-10.979 13.77,-17.257 3.503,-6.271 6.021,-13.27 7.485,-20.802 3.61,-18.57 0.721,-33.388 -8.586,-44.042 z m -32.928,40.165 c -1.979,10.167 -5.707,17.419 -11.082,21.558 -5.462,4.205 -14.198,6.338 -25.967,6.338 h -14.072 l 10.177,-52.36 h 18.192 c 13.366,0 18.751,2.857 20.913,5.253 2.997,3.323 3.633,9.967 1.839,19.211 z"
   id="path18"
   style="fill:#ffffff" />
</g>
<g
   id="g20"
   transform="translate(-120.01999,-161.061)">
	<path
   d="m 281.528,265.193 c 12.062,0 20.102,2.227 24.121,6.68 4.016,4.453 4.973,12.098 2.871,22.93 -2.195,11.281 -6.422,19.333 -12.688,24.157 -6.266,4.823 -15.801,7.234 -28.602,7.234 h -19.312 l 11.855,-61 h 21.755 z m -77.359,122.75 h 31.75 l 7.531,-38.75 h 27.195 c 12,0 21.871,-1.258 29.621,-3.782 7.75,-2.519 14.793,-6.746 21.133,-12.68 5.32,-4.891 9.625,-10.284 12.922,-16.184 3.293,-5.895 5.633,-12.402 7.016,-19.519 3.359,-17.277 0.824,-30.734 -7.598,-40.375 -8.422,-9.641 -21.82,-14.461 -40.188,-14.461 h -61.055 l -28.327,145.751 z"
   id="path22"
   style="fill:#010010" />
	<path
   d="m 364.655,203.443 h 31.5 l -7.531,38.75 h 28.062 c 17.656,0 29.836,3.082 36.539,9.238 6.703,6.16 8.711,16.141 6.031,29.938 l -13.18,67.825 h -32 l 12.531,-64.489 c 1.426,-7.336 0.902,-12.34 -1.574,-15.008 -2.476,-2.668 -7.746,-4.004 -15.805,-4.004 h -25.176 l -16.227,83.5 h -31.5 l 28.33,-145.75 z"
   id="path24"
   style="fill:#010010" />
	<path
   d="m 529.344,265.193 c 12.062,0 20.102,2.227 24.121,6.68 4.017,4.453 4.974,12.098 2.871,22.93 -2.195,11.281 -6.421,19.333 -12.688,24.157 -6.266,4.823 -15.801,7.234 -28.602,7.234 h -19.312 l 11.854,-61 h 21.756 z m -77.359,122.75 h 31.75 l 7.53,-38.75 h 27.195 c 12,0 21.871,-1.258 29.621,-3.782 7.75,-2.519 14.793,-6.746 21.133,-12.68 5.32,-4.891 9.625,-10.284 12.922,-16.184 3.293,-5.895 5.633,-12.402 7.016,-19.519 3.359,-17.277 0.825,-30.734 -7.598,-40.375 -8.422,-9.641 -21.82,-14.461 -40.188,-14.461 h -61.054 l -28.327,145.751 z"
   id="path26"
   style="fill:#010010" />
</g>
</svg>