<?xml version="1.0" encoding="UTF-8" standalone="no"?>
<!-- Created with Inkscape (http://www.inkscape.org/) -->

<svg
   xmlns:dc="http://purl.org/dc/elements/1.1/"
   xmlns:cc="http://creativecommons.org/ns#"
   xmlns:rdf="http://www.w3.org/1999/02/22-rdf-syntax-ns#"
   xmlns:svg="http://www.w3.org/2000/svg"
   xmlns="http://www.w3.org/2000/svg"
   xmlns:xlink="http://www.w3.org/1999/xlink"
   xmlns:sodipodi="http://sodipodi.sourceforge.net/DTD/sodipodi-0.dtd"
   xmlns:inkscape="http://www.inkscape.org/namespaces/inkscape"
   height="100"
   id="svg2"
   inkscape:export-filename="/home/david/insert-table.png"
   inkscape:export-xdpi="33.75"
   inkscape:export-ydpi="33.75"
   inkscape:output_extension="org.inkscape.output.svgz.inkscape"
   inkscape:version="0.48.4 r9939"
   sodipodi:docname="table.svg"
   sodipodi:version="0.32"
   version="1.0"
   width="100">
  <metadata
     id="metadata3">
    <rdf:RDF>
      <cc:Work
         rdf:about="">
        <dc:title />
        <dc:description />
        <dc:subject>
          <rdf:Bag>
            <rdf:li>unsorted</rdf:li>
          </rdf:Bag>
        </dc:subject>
        <dc:publisher>
          <cc:Agent
             rdf:about="http://www.openclipart.org/">
            <dc:title>Open Clip Art Library, Source: Oxygen Icons, Source: Oxygen Icons, Source: Oxygen Icons, Source: Oxygen Icons</dc:title>
          </cc:Agent>
        </dc:publisher>
        <dc:creator>
          <cc:Agent>
            <dc:title />
          </cc:Agent>
        </dc:creator>
        <dc:rights>
          <cc:Agent>
            <dc:title />
          </cc:Agent>
        </dc:rights>
        <dc:date />
        <dc:format>image/svg+xml</dc:format>
        <dc:type
           rdf:resource="http://purl.org/dc/dcmitype/StillImage" />
        <cc:license
           rdf:resource="http://creativecommons.org/licenses/by-sa/3.0/ or http://creativecommons.org/licenses/LGPL/2.1/" />
        <dc:language>en</dc:language>
      </cc:Work>
    </rdf:RDF>
  </metadata>
  <defs
     id="defs4">
    <linearGradient
       id="linearGradient4309">
      <stop
         id="stop4311"
         offset="0"
         style="stop-color:#bbbbbb;stop-opacity:1;" />
      <stop
         id="stop4313"
         offset="1"
         style="stop-color:#dddddd;stop-opacity:1;" />
    </linearGradient>
    <linearGradient
       gradientUnits="userSpaceOnUse"
       id="XMLID_39_"
       x1="60.125"
       x2="60.125"
       y1="12"
       y2="20">
      <stop
         id="stop62"
         offset="0"
         style="stop-color:#A3C8FF" />
      <stop
         id="stop64"
         offset="1"
         style="stop-color:#BFD9FF" />
    </linearGradient>
    <linearGradient
       gradientTransform="translate(-143,-64)"
       gradientUnits="userSpaceOnUse"
       id="XMLID_43_"
       x1="153"
       x2="153"
       y1="175.55659"
       y2="172.4442">
      <stop
         id="stop92"
         offset="0"
         style="stop-color:#FFFFFF" />
      <stop
         id="stop94"
         offset="1"
         style="stop-color:#DDDDDD" />
    </linearGradient>
    <linearGradient
       gradientTransform="matrix(0.74999991,0,0,0.7857143,-189.01913,-94.37687)"
       gradientUnits="userSpaceOnUse"
       id="linearGradient4437"
       inkscape:collect="always"
       x1="25.308176"
       x2="5.5849061"
       xlink:href="#XMLID_43_"
       y1="64"
       y2="64" />
    <linearGradient
       gradientTransform="matrix(0.7499999,0,0,0.67857152,-90.091143,89.590573)"
       gradientUnits="userSpaceOnUse"
       id="linearGradient4441"
       inkscape:collect="always"
       x1="25.308176"
       x2="5.5849061"
       xlink:href="#XMLID_43_"
       y1="64"
       y2="64" />
    <linearGradient
       gradientTransform="matrix(0.79999991,0,0,0.8,-190.21912,-101.69116)"
       gradientUnits="userSpaceOnUse"
       id="linearGradient4483"
       inkscape:collect="always"
       x1="14"
       x2="14"
       xlink:href="#XMLID_39_"
       y1="52"
       y2="32" />
    <linearGradient
       gradientTransform="matrix(0.99999988,0,0,0.8,-179.01913,-113.69116)"
       gradientUnits="userSpaceOnUse"
       id="linearGradient4487"
       inkscape:collect="always"
       x1="14"
       x2="14"
       xlink:href="#XMLID_39_"
       y1="52"
       y2="32" />
    <linearGradient
       gradientTransform="matrix(0,1,-1,0,-39.9985,140.0029)"
       gradientUnits="userSpaceOnUse"
       id="linearGradient3711"
       x1="-84.002403"
       x2="-23.516129"
       y1="-383.9971"
       y2="-383.9975">
      <stop
         id="stop3713"
         offset="0"
         style="stop-color:white;stop-opacity:1;" />
      <stop
         id="stop3715"
         offset="1"
         style="stop-color:white;stop-opacity:0;" />
    </linearGradient>
    <linearGradient
       gradientTransform="matrix(0,1,-1,0,-39.9985,140.0029)"
       gradientUnits="userSpaceOnUse"
       id="linearGradient26907"
       x1="-84.002403"
       x2="-12.0029"
       y1="-383.9971"
       y2="-383.9971">
      <stop
         id="stop26909"
         offset="0"
         style="stop-color:#888a85;stop-opacity:1;" />
      <stop
         id="stop26911"
         offset="1"
         style="stop-color:#2e3436;stop-opacity:1;" />
    </linearGradient>
    <linearGradient
       gradientTransform="translate(-36.000006,-20.000008)"
       gradientUnits="userSpaceOnUse"
       id="linearGradient2293"
       inkscape:collect="always"
       x1="97.622581"
       x2="98.097946"
       xlink:href="#linearGradient3225"
       y1="77.512512"
       y2="105.10625" />
    <linearGradient
       gradientTransform="matrix(0.9969724,0,0,0.9969724,-63.641028,-170.74569)"
       gradientUnits="userSpaceOnUse"
       id="linearGradient2291"
       inkscape:collect="always"
       x1="26.697636"
       x2="14.697635"
       xlink:href="#linearGradient3260"
       y1="96"
       y2="72" />
    <linearGradient
       gradientTransform="matrix(0.9969724,0,0,0.9969724,-63.641028,-170.74569)"
       gradientUnits="userSpaceOnUse"
       id="linearGradient2289"
       inkscape:collect="always"
       x1="6.6976352"
       x2="11.68106"
       xlink:href="#linearGradient3260"
       y1="52"
       y2="96.001434" />
    <linearGradient
       gradientTransform="matrix(0.9969724,0,0,0.9969724,-63.630923,-170.74569)"
       gradientUnits="userSpaceOnUse"
       id="linearGradient2287"
       inkscape:collect="always"
       x1="11.68106"
       x2="11.68106"
       xlink:href="#linearGradient3202"
       y1="60.539303"
       y2="108.0104" />
    <radialGradient
       cx="-44"
       cy="84"
       fx="-40"
       fy="96"
       gradientTransform="matrix(0.9969724,0,0,0.9969724,-1.1332086,-170.74569)"
       gradientUnits="userSpaceOnUse"
       id="radialGradient2285"
       inkscape:collect="always"
       r="20"
       xlink:href="#XMLID_4_" />
    <linearGradient
       gradientUnits="userSpaceOnUse"
       id="linearGradient2283"
       inkscape:collect="always"
       spreadMethod="reflect"
       x1="73.742638"
       x2="80"
       xlink:href="#linearGradient3260"
       y1="15.336544"
       y2="19.281664" />
    <radialGradient
       cx="-44"
       cy="84"
       fx="-60"
       fy="100"
       gradientTransform="matrix(0.9969724,0,0,0.9969724,-1.1332086,-170.74569)"
       gradientUnits="userSpaceOnUse"
       id="radialGradient2281"
       inkscape:collect="always"
       r="24"
       xlink:href="#linearGradient3030" />
    <linearGradient
       gradientUnits="userSpaceOnUse"
       id="linearGradient2279"
       inkscape:collect="always"
       spreadMethod="reflect"
       x1="73.742638"
       x2="80"
       xlink:href="#linearGradient3260"
       y1="15.336544"
       y2="19.281664" />
    <linearGradient
       gradientTransform="scale(1.039383,0.9621093)"
       gradientUnits="userSpaceOnUse"
       id="linearGradient2277"
       inkscape:collect="always"
       x1="64.341988"
       x2="76.284439"
       xlink:href="#linearGradient3207"
       y1="18.50366"
       y2="18.50366" />
    <linearGradient
       gradientUnits="userSpaceOnUse"
       id="linearGradient2275"
       inkscape:collect="always"
       spreadMethod="reflect"
       x1="73.742638"
       x2="80"
       xlink:href="#linearGradient5412"
       y1="15.336544"
       y2="19.281664" />
    <linearGradient
       gradientUnits="userSpaceOnUse"
       id="linearGradient2273"
       inkscape:collect="always"
       spreadMethod="reflect"
       x1="73.742638"
       x2="80"
       xlink:href="#linearGradient3260"
       y1="15.336544"
       y2="19.281664" />
    <linearGradient
       gradientUnits="userSpaceOnUse"
       id="linearGradient2271"
       inkscape:collect="always"
       spreadMethod="reflect"
       x1="73.742638"
       x2="80"
       xlink:href="#linearGradient3260"
       y1="15.336544"
       y2="19.281664" />
    <linearGradient
       gradientTransform="matrix(0.9969724,0,0,0.9969724,-1.1332086,-170.74569)"
       gradientUnits="userSpaceOnUse"
       id="linearGradient2269"
       inkscape:collect="always"
       x1="-13.757333"
       x2="-62.424866"
       xlink:href="#XMLID_4_"
       y1="76.708466"
       y2="104.80668" />
    <linearGradient
       gradientTransform="translate(-36.000006,-20.000008)"
       gradientUnits="userSpaceOnUse"
       id="linearGradient2251"
       inkscape:collect="always"
       x1="97.622581"
       x2="98.097946"
       xlink:href="#linearGradient3225"
       y1="77.512512"
       y2="105.10625" />
    <linearGradient
       gradientTransform="matrix(0.9969724,0,0,0.9969724,-63.641028,-170.74569)"
       gradientUnits="userSpaceOnUse"
       id="linearGradient2249"
       inkscape:collect="always"
       x1="26.697636"
       x2="14.697635"
       xlink:href="#linearGradient3260"
       y1="96"
       y2="72" />
    <linearGradient
       gradientTransform="matrix(0.9969724,0,0,0.9969724,-63.641028,-170.74569)"
       gradientUnits="userSpaceOnUse"
       id="linearGradient2247"
       inkscape:collect="always"
       x1="6.6976352"
       x2="11.68106"
       xlink:href="#linearGradient3260"
       y1="52"
       y2="96.001434" />
    <linearGradient
       gradientTransform="matrix(0.9969724,0,0,0.9969724,-63.630923,-170.74569)"
       gradientUnits="userSpaceOnUse"
       id="linearGradient2245"
       inkscape:collect="always"
       x1="11.68106"
       x2="11.68106"
       xlink:href="#linearGradient3202"
       y1="60.539303"
       y2="108.0104" />
    <radialGradient
       cx="-44"
       cy="84"
       fx="-40"
       fy="96"
       gradientTransform="matrix(0.9969724,0,0,0.9969724,-1.1332086,-170.74569)"
       gradientUnits="userSpaceOnUse"
       id="radialGradient2243"
       inkscape:collect="always"
       r="20"
       xlink:href="#XMLID_4_" />
    <linearGradient
       gradientUnits="userSpaceOnUse"
       id="linearGradient2241"
       inkscape:collect="always"
       spreadMethod="reflect"
       x1="73.742638"
       x2="80"
       xlink:href="#linearGradient3260"
       y1="15.336544"
       y2="19.281664" />
    <radialGradient
       cx="-44"
       cy="84"
       fx="-60"
       fy="100"
       gradientTransform="matrix(0.9969724,0,0,0.9969724,-1.1332086,-170.74569)"
       gradientUnits="userSpaceOnUse"
       id="radialGradient2239"
       inkscape:collect="always"
       r="24"
       xlink:href="#linearGradient3030" />
    <linearGradient
       gradientUnits="userSpaceOnUse"
       id="linearGradient2237"
       inkscape:collect="always"
       spreadMethod="reflect"
       x1="73.742638"
       x2="80"
       xlink:href="#linearGradient3260"
       y1="15.336544"
       y2="19.281664" />
    <linearGradient
       gradientTransform="scale(1.039383,0.9621093)"
       gradientUnits="userSpaceOnUse"
       id="linearGradient2235"
       inkscape:collect="always"
       x1="64.341988"
       x2="76.284439"
       xlink:href="#linearGradient3207"
       y1="18.50366"
       y2="18.50366" />
    <linearGradient
       gradientUnits="userSpaceOnUse"
       id="linearGradient2233"
       inkscape:collect="always"
       spreadMethod="reflect"
       x1="73.742638"
       x2="80"
       xlink:href="#linearGradient5412"
       y1="15.336544"
       y2="19.281664" />
    <linearGradient
       gradientUnits="userSpaceOnUse"
       id="linearGradient2231"
       inkscape:collect="always"
       spreadMethod="reflect"
       x1="73.742638"
       x2="80"
       xlink:href="#linearGradient3260"
       y1="15.336544"
       y2="19.281664" />
    <linearGradient
       gradientUnits="userSpaceOnUse"
       id="linearGradient2229"
       inkscape:collect="always"
       spreadMethod="reflect"
       x1="73.742638"
       x2="80"
       xlink:href="#linearGradient3260"
       y1="15.336544"
       y2="19.281664" />
    <linearGradient
       gradientTransform="matrix(0.9969724,0,0,0.9969724,-1.1332086,-170.74569)"
       gradientUnits="userSpaceOnUse"
       id="linearGradient2227"
       inkscape:collect="always"
       x1="-13.757333"
       x2="-62.424866"
       xlink:href="#XMLID_4_"
       y1="76.708466"
       y2="104.80668" />
    <linearGradient
       gradientTransform="scale(1.039383,0.9621093)"
       gradientUnits="userSpaceOnUse"
       id="linearGradient3005"
       inkscape:collect="always"
       x1="64.341988"
       x2="76.284439"
       xlink:href="#linearGradient3207"
       y1="18.50366"
       y2="18.50366" />
    <linearGradient
       gradientUnits="userSpaceOnUse"
       id="linearGradient3003"
       inkscape:collect="always"
       spreadMethod="reflect"
       x1="73.742638"
       x2="80"
       xlink:href="#linearGradient5412"
       y1="15.336544"
       y2="19.281664" />
    <linearGradient
       gradientTransform="translate(-36.000006,-20.000008)"
       gradientUnits="userSpaceOnUse"
       id="linearGradient4259"
       inkscape:collect="always"
       x1="97.622581"
       x2="98.097946"
       xlink:href="#linearGradient3225"
       y1="77.512512"
       y2="105.10625" />
    <linearGradient
       id="linearGradient3225">
      <stop
         id="stop3227"
         offset="0"
         style="stop-color:#ffffff;stop-opacity:1;" />
      <stop
         id="stop3229"
         offset="1"
         style="stop-color:#ffffff;stop-opacity:0;" />
    </linearGradient>
    <linearGradient
       gradientTransform="matrix(0.9969724,0,0,0.9969724,13.44087,-51.663795)"
       gradientUnits="userSpaceOnUse"
       id="linearGradient4262"
       inkscape:collect="always"
       x1="26.697636"
       x2="14.697635"
       xlink:href="#linearGradient3260"
       y1="96"
       y2="72" />
    <linearGradient
       id="linearGradient3260"
       inkscape:collect="always">
      <stop
         id="stop3262"
         offset="0"
         style="stop-color:#ffffff;stop-opacity:1;" />
      <stop
         id="stop3264"
         offset="1"
         style="stop-color:#ffffff;stop-opacity:0;" />
    </linearGradient>
    <linearGradient
       gradientTransform="matrix(0.9969724,0,0,0.9969724,13.44087,-51.663795)"
       gradientUnits="userSpaceOnUse"
       id="linearGradient4265"
       inkscape:collect="always"
       x1="6.6976352"
       x2="11.68106"
       xlink:href="#linearGradient3260"
       y1="52"
       y2="96.001434" />
    <linearGradient
       gradientTransform="matrix(0.9969724,0,0,0.9969724,13.450975,-51.663795)"
       gradientUnits="userSpaceOnUse"
       id="linearGradient4268"
       inkscape:collect="always"
       x1="11.68106"
       x2="11.68106"
       xlink:href="#linearGradient3202"
       y1="60.539303"
       y2="108.0104" />
    <linearGradient
       id="linearGradient3202">
      <stop
         id="stop3204"
         offset="0"
         style="stop-color:#cbff9c;stop-opacity:1;" />
      <stop
         id="stop3206"
         offset="1"
         style="stop-color:#65c171;stop-opacity:0" />
    </linearGradient>
    <radialGradient
       cx="-44"
       cy="84"
       fx="-40"
       fy="96"
       gradientTransform="matrix(0.9969724,0,0,0.9969724,75.948689,-51.663795)"
       gradientUnits="userSpaceOnUse"
       id="radialGradient4271"
       inkscape:collect="always"
       r="20"
       xlink:href="#XMLID_4_" />
    <radialGradient
       cx="48"
       cy="-0.2148"
       gradientTransform="matrix(0.9792,0,0,0.9725,133.0002,20.8762)"
       gradientUnits="userSpaceOnUse"
       id="XMLID_4_"
       r="55.147999">
      <stop
         id="stop3082"
         offset="0"
         style="stop-color:#72D13D" />
      <stop
         id="stop3084"
         offset="0.3553"
         style="stop-color:#35AC1C" />
      <stop
         id="stop3086"
         offset="0.6194"
         style="stop-color:#0F9508" />
      <stop
         id="stop3088"
         offset="0.7574"
         style="stop-color:#008C00" />
      <stop
         id="stop3090"
         offset="1"
         style="stop-color:#007A00" />
    </radialGradient>
    <linearGradient
       gradientUnits="userSpaceOnUse"
       id="linearGradient4289"
       inkscape:collect="always"
       spreadMethod="reflect"
       x1="73.742638"
       x2="80"
       xlink:href="#linearGradient3260"
       y1="15.336544"
       y2="19.281664" />
    <radialGradient
       cx="-44"
       cy="84"
       fx="-60"
       fy="100"
       gradientTransform="matrix(0.9969724,0,0,0.9969724,75.948689,-51.663795)"
       gradientUnits="userSpaceOnUse"
       id="radialGradient4275"
       inkscape:collect="always"
       r="24"
       xlink:href="#linearGradient3030" />
    <linearGradient
       id="linearGradient3030"
       inkscape:collect="always">
      <stop
         id="stop3032"
         offset="0"
         style="stop-color:#000000;stop-opacity:0.77902622" />
      <stop
         id="stop3034"
         offset="1"
         style="stop-color:#000000;stop-opacity:0;" />
    </linearGradient>
    <linearGradient
       gradientUnits="userSpaceOnUse"
       id="linearGradient4291"
       inkscape:collect="always"
       spreadMethod="reflect"
       x1="73.742638"
       x2="80"
       xlink:href="#linearGradient3260"
       y1="15.336544"
       y2="19.281664" />
    <linearGradient
       gradientUnits="userSpaceOnUse"
       id="linearGradient5412"
       x1="28"
       x2="28"
       y1="57.5"
       y2="0">
      <stop
         id="stop5414"
         offset="0"
         style="stop-color:#fff14d;stop-opacity:1;" />
      <stop
         id="stop5416"
         offset="1"
         style="stop-color:#f8ffa0;stop-opacity:0;" />
    </linearGradient>
    <linearGradient
       id="linearGradient3207">
      <stop
         id="stop3209"
         offset="0"
         style="stop-color:#ffffff;stop-opacity:1;" />
      <stop
         id="stop3211"
         offset="1"
         style="stop-color:#252525;stop-opacity:0;" />
    </linearGradient>
    <linearGradient
       gradientUnits="userSpaceOnUse"
       id="linearGradient4297"
       inkscape:collect="always"
       spreadMethod="reflect"
       x1="73.742638"
       x2="80"
       xlink:href="#linearGradient3260"
       y1="15.336544"
       y2="19.281664" />
    <linearGradient
       gradientUnits="userSpaceOnUse"
       id="linearGradient4299"
       inkscape:collect="always"
       spreadMethod="reflect"
       x1="73.742638"
       x2="80"
       xlink:href="#linearGradient3260"
       y1="15.336544"
       y2="19.281664" />
    <linearGradient
       gradientTransform="matrix(0.9969724,0,0,0.9969724,75.948689,-51.663795)"
       gradientUnits="userSpaceOnUse"
       id="linearGradient4284"
       inkscape:collect="always"
       x1="-13.757333"
       x2="-62.424866"
       xlink:href="#XMLID_4_"
       y1="76.708466"
       y2="104.80668" />
    <linearGradient
       gradientTransform="matrix(0.49999994,0,0,0.5,-187.01913,-88.091158)"
       gradientUnits="userSpaceOnUse"
       id="linearGradient3294"
       inkscape:collect="always"
       x1="160.61525"
       x2="-35.602238"
       xlink:href="#linearGradient4309"
       y1="165.6467"
       y2="-30.570789" />
  </defs>
  <sodipodi:namedview
     bordercolor="#666666"
     borderopacity="1.0"
     gridtolerance="10000"
     guidetolerance="10"
     height="128px"
     id="base"
     inkscape:current-layer="layer1"
     inkscape:cx="62.550278"
     inkscape:cy="48.368196"
     inkscape:document-units="px"
     inkscape:grid-points="true"
     inkscape:pageopacity="0"
     inkscape:pageshadow="2"
     inkscape:window-height="982"
     inkscape:window-width="1325"
     inkscape:window-x="0"
     inkscape:window-y="0"
     inkscape:zoom="6.76"
     objecttolerance="10000"
     pagecolor="#ffffff"
     showborder="true"
     showgrid="false"
     width="128px"
     inkscape:window-maximized="0"
     fit-margin-top="0"
     fit-margin-left="0"
     fit-margin-right="0"
     fit-margin-bottom="0"
     showguides="false"
     borderlayer="false"
     inkscape:showpageshadow="false">
    <inkscape:grid
       id="GridFromPre046Settings"
       type="xygrid"
       originx="189.01913px"
       originy="-122.09116px"
       spacingx="4px"
       spacingy="4px"
       color="#3f3fff"
       empcolor="#3f3fff"
       opacity="0.15"
       empopacity="0.38"
       empspacing="2"
       visible="true"
       enabled="true"
       snapvisiblegridlinesonly="true" />
  </sodipodi:namedview>
  <g
     id="layer1"
     inkscape:groupmode="layer"
     inkscape:label="Layer 1"
     transform="translate(189.01913,94.091156)">
    <rect
       height="88"
       id="rect2344"
       style="fill:#ffffff;fill-opacity:1;fill-rule:evenodd;stroke:none"
       width="95.999992"
       x="-187.01912"
       y="-88.091156" />
    <rect
       height="75.999992"
       id="rect4439"
       style="fill:url(#linearGradient4441);fill-opacity:1;stroke:none"
       transform="matrix(-3.3260484e-8,1,-1,-4.0631211e-8,0,0)"
       width="11.999997"
       x="-84.091148"
       y="95.019135" />
    <rect
       height="16"
       id="rect4485"
       style="fill:url(#linearGradient4487);fill-opacity:1;stroke:none"
       width="19.999998"
       x="-175.01912"
       y="-88.091156" />
    <rect
       height="88"
       id="rect4429"
       style="fill:url(#linearGradient4437);fill-opacity:1;stroke:none"
       width="11.999999"
       x="-183.01912"
       y="-88.091156" />
    <rect
       height="16"
       id="rect4475"
       style="fill:url(#linearGradient4483);fill-opacity:1;stroke:none"
       width="15.999998"
       x="-187.01912"
       y="-76.091156" />
    <path
       d="m -187.01913,-88.091158 0,64 0,23.99999984 43.99999,0 20,0 32,0 0,-4.00000004 0,-7.9999998 0,-4 0,-8 0,-4 0,-8 0,-4 0,-8 0,-4 0,-8 0,-4 0,-8 0,-4 0,-8 0,-4 -32,0 -63.99999,0 z m 4,4 8,0 0,8 -8,0 0,-8 z m 12,0 12,0 0,8 -12,0 0,-8 z m 16,0 11.99999,0 0,8 -11.99999,0 0,-8 z m 15.99999,0 12,0 0,8 -12,0 0,-8 z m 16,0 12,0 0,8 -12,0 0,-8 z m 16,0 12,0 0,8 -12,0 0,-8 z m -75.99999,12 8,0 0,8 -8,0 0,-8 z m 12,0 12,0 0,8 -12,0 0,-8 z m 16,0 11.99999,0 0,8 -11.99999,0 0,-8 z m 15.99999,0 12,0 0,8 -12,0 0,-8 z m 16,0 12,0 0,8 -12,0 0,-8 z m 16,0 12,0 0,8 -12,0 0,-8 z m -75.99999,12 8,0 0,8 -8,0 0,-8 z m 12,0 12,0 0,8 -12,0 0,-8 z m 16,0 11.99999,0 0,8 -11.99999,0 0,-8 z m 15.99999,0 12,0 0,8 -12,0 0,-8 z m 16,0 12,0 0,8 -12,0 0,-8 z m 16,0 12,0 0,8 -12,0 0,-8 z m -75.99999,12 8,0 0,8 -8,0 0,-8 z m 12,0 12,0 0,8 -12,0 0,-8 z m 16,0 11.99999,0 0,8 -11.99999,0 0,-8 z m 15.99999,0 12,0 0,8 -12,0 0,-8 z m 16,0 12,0 0,8 -12,0 0,-8 z m 16,0 12,0 0,8 -12,0 0,-8 z m -75.99999,12 8,0 0,8 -8,0 0,-8 z m 12,0 12,0 0,8 -12,0 0,-8 z m 16,0 11.99999,0 0,8 -11.99999,0 0,-8 z m 15.99999,0 12,0 0,8 -12,0 0,-8 z m 16,0 12,0 0,8 -12,0 0,-8 z m 16,0 12,0 0,8 -12,0 0,-8 z m -75.99999,12 8,0 0,8 -8,0 0,-8 z m 12,0 12,0 0,8 -12,0 0,-8 z m 16,0 11.99999,0 0,8 -11.99999,0 0,-8 z m 15.99999,0 12,0 0,8 -12,0 0,-8 z m 16,0 12,0 0,8 -12,0 0,-8 z m 16,0 12,0 0,8 -12,0 0,-8 z m -75.99999,12 8,0 0,7.9999998 -8,0 0,-7.9999998 z m 12,0 12,0 0,7.9999998 -12,0 0,-7.9999998 z m 16,0 11.99999,0 0,7.9999998 -11.99999,0 0,-7.9999998 z m 15.99999,0 12,0 0,7.9999998 -12,0 0,-7.9999998 z m 16,0 12,0 0,7.9999998 -12,0 0,-7.9999998 z m 16,0 12,0 0,7.9999998 -12,0 0,-7.9999998 z"
       id="rect3338"
       style="fill:url(#linearGradient3294);fill-opacity:1;stroke:none"
       inkscape:connector-curvature="0" />
    <path
       d="m -175.01913,-88.091158 0,16.000002 2,0 2,0 12,0 2,0 2,0 0,-16.000002 -2,0 -14,0 -4,0 z m 4,4 12,0 0,8 -12,0 0,-8 z"
       id="rect4451"
       sodipodi:nodetypes="cccccccccccccccc"
       style="fill:#80b3ff;fill-opacity:1;stroke:none"
       inkscape:connector-curvature="0" />
    <path
       d="m -187.01913,-76.091158 0,16 2,0 2,0 6,0 2,0 4,0 0,-16 -4,0 -8,0 -4,0 z m 4,4 8,0 0,8 -8,0 0,-8 z"
       id="path4467"
       sodipodi:nodetypes="cccccccccccccccc"
       style="fill:#80b3ff;fill-opacity:1;stroke:none"
       inkscape:connector-curvature="0" />
    <rect
       height="4"
       id="rect4469"
       style="fill:#555555;fill-opacity:1;stroke:none"
       width="19.999998"
       x="-175.01912"
       y="-64.091156" />
    <rect
       height="16"
       id="rect4471"
       style="fill:#555555;fill-opacity:1;stroke:none"
       width="3.9999995"
       x="-159.01912"
       y="-76.091156" />
    <rect
       height="8"
       id="rect4473"
       style="fill:#555555;fill-opacity:1;stroke:none"
       transform="scale(-1,-1)"
       width="7.999999"
       x="151.01912"
       y="56.091156" />
    <rect
       height="132.12903"
       id="rect3244"
       style="opacity:0.73000004;fill:#e5ff00;fill-opacity:1;stroke:none"
       width="0"
       x="0"
       y="0" />
  </g>
</svg>
