<?xml version="1.0" encoding="UTF-8" standalone="no"?>
<!-- Created with Inkscape (http://www.inkscape.org/) -->

<svg
   xmlns:dc="http://purl.org/dc/elements/1.1/"
   xmlns:cc="http://creativecommons.org/ns#"
   xmlns:rdf="http://www.w3.org/1999/02/22-rdf-syntax-ns#"
   xmlns:svg="http://www.w3.org/2000/svg"
   xmlns="http://www.w3.org/2000/svg"
   xmlns:xlink="http://www.w3.org/1999/xlink"
   xmlns:sodipodi="http://sodipodi.sourceforge.net/DTD/sodipodi-0.dtd"
   xmlns:inkscape="http://www.inkscape.org/namespaces/inkscape"
   height="100"
   id="svg2"
   inkscape:export-filename="/home/david/insert-table.png"
   inkscape:export-xdpi="33.75"
   inkscape:export-ydpi="33.75"
   inkscape:output_extension="org.inkscape.output.svgz.inkscape"
   inkscape:version="0.48.4 r9939"
   sodipodi:docname="view.svg"
   sodipodi:version="0.32"
   version="1.0"
   width="100">
  <metadata
     id="metadata3">
    <rdf:RDF>
      <cc:Work
         rdf:about="">
        <dc:title />
        <dc:description />
        <dc:subject>
          <rdf:Bag>
            <rdf:li>unsorted</rdf:li>
          </rdf:Bag>
        </dc:subject>
        <dc:publisher>
          <cc:Agent
             rdf:about="http://www.openclipart.org/">
            <dc:title>Open Clip Art Library, Source: Oxygen Icons, Source: Oxygen Icons, Source: Oxygen Icons, Source: Oxygen Icons</dc:title>
          </cc:Agent>
        </dc:publisher>
        <dc:creator>
          <cc:Agent>
            <dc:title />
          </cc:Agent>
        </dc:creator>
        <dc:rights>
          <cc:Agent>
            <dc:title />
          </cc:Agent>
        </dc:rights>
        <dc:date />
        <dc:format>image/svg+xml</dc:format>
        <dc:type
           rdf:resource="http://purl.org/dc/dcmitype/StillImage" />
        <cc:license
           rdf:resource="http://creativecommons.org/licenses/by-sa/3.0/ or http://creativecommons.org/licenses/LGPL/2.1/" />
        <dc:language>en</dc:language>
      </cc:Work>
    </rdf:RDF>
  </metadata>
  <defs
     id="defs4">
    <linearGradient
       id="linearGradient4309">
      <stop
         id="stop4311"
         offset="0"
         style="stop-color:#bbbbbb;stop-opacity:1;" />
      <stop
         id="stop4313"
         offset="1"
         style="stop-color:#dddddd;stop-opacity:1;" />
    </linearGradient>
    <linearGradient
       gradientUnits="userSpaceOnUse"
       id="XMLID_39_"
       x1="60.125"
       x2="60.125"
       y1="12"
       y2="20">
      <stop
         id="stop62"
         offset="0"
         style="stop-color:#A3C8FF" />
      <stop
         id="stop64"
         offset="1"
         style="stop-color:#BFD9FF" />
    </linearGradient>
    <linearGradient
       gradientTransform="translate(-143,-64)"
       gradientUnits="userSpaceOnUse"
       id="XMLID_43_"
       x1="153"
       x2="153"
       y1="175.55659"
       y2="172.4442">
      <stop
         id="stop92"
         offset="0"
         style="stop-color:#FFFFFF" />
      <stop
         id="stop94"
         offset="1"
         style="stop-color:#DDDDDD" />
    </linearGradient>
    <linearGradient
       gradientTransform="matrix(0.75,0,0,0.7857143,15.999997,7.714288)"
       gradientUnits="userSpaceOnUse"
       id="linearGradient4437"
       inkscape:collect="always"
       x1="25.308176"
       x2="5.5849061"
       xlink:href="#XMLID_43_"
       y1="64"
       y2="64" />
    <linearGradient
       gradientTransform="matrix(0.7499999,0,0,0.6785716,12.000007,-115.42857)"
       gradientUnits="userSpaceOnUse"
       id="linearGradient4441"
       inkscape:collect="always"
       x1="25.308176"
       x2="5.5849061"
       xlink:href="#XMLID_43_"
       y1="64"
       y2="64" />
    <linearGradient
       gradientTransform="matrix(0.8,0,0,0.8,14.800004,0.4)"
       gradientUnits="userSpaceOnUse"
       id="linearGradient4483"
       inkscape:collect="always"
       x1="14"
       x2="14"
       xlink:href="#XMLID_39_"
       y1="52"
       y2="32" />
    <linearGradient
       gradientTransform="matrix(1,0,0,0.8,25.999998,-11.6)"
       gradientUnits="userSpaceOnUse"
       id="linearGradient4487"
       inkscape:collect="always"
       x1="14"
       x2="14"
       xlink:href="#XMLID_39_"
       y1="52"
       y2="32" />
    <linearGradient
       gradientTransform="matrix(0.5,0,0,0.5,18,14)"
       gradientUnits="userSpaceOnUse"
       id="linearGradient3294"
       inkscape:collect="always"
       x1="160.61525"
       x2="-35.602238"
       xlink:href="#linearGradient4309"
       y1="165.6467"
       y2="-30.570789" />
  </defs>
  <sodipodi:namedview
     bordercolor="#666666"
     borderopacity="1.0"
     gridtolerance="10000"
     guidetolerance="10"
     height="128px"
     id="base"
     inkscape:current-layer="layer1"
     inkscape:cx="44.251913"
     inkscape:cy="50.2849"
     inkscape:document-units="px"
     inkscape:grid-points="true"
     inkscape:pageopacity="0"
     inkscape:pageshadow="2"
     inkscape:window-height="732"
     inkscape:window-width="1210"
     inkscape:window-x="38"
     inkscape:window-y="148"
     inkscape:zoom="4.9609375"
     objecttolerance="10"
     pagecolor="#ffffff"
     showborder="true"
     showgrid="false"
     width="128px"
     inkscape:window-maximized="0"
     fit-margin-top="0"
     fit-margin-left="0"
     fit-margin-right="0"
     fit-margin-bottom="0">
    <inkscape:grid
       id="GridFromPre046Settings"
       type="xygrid"
       originx="-15.944567px"
       originy="-20px"
       spacingx="4px"
       spacingy="4px"
       color="#3f3fff"
       empcolor="#3f3fff"
       opacity="0.15"
       empopacity="0.38"
       empspacing="2"
       visible="true"
       enabled="true"
       snapvisiblegridlinesonly="true" />
  </sodipodi:namedview>
  <g
     id="layer1"
     inkscape:groupmode="layer"
     inkscape:label="Layer 1"
     transform="translate(-15.944567,-8)">
    <rect
       height="88"
       id="rect2344"
       style="fill:#ffffff;fill-opacity:1;fill-rule:evenodd;stroke:none"
       width="96"
       x="18"
       y="14" />
    <rect
       height="76"
       id="rect4439"
       style="fill:url(#linearGradient4441);fill-opacity:1;stroke:none"
       transform="matrix(-3.3260488e-8,1,-1,-4.0631206e-8,0,0)"
       width="11.999997"
       x="17.999998"
       y="-110" />
    <rect
       height="16"
       id="rect4485"
       style="fill:url(#linearGradient4487);fill-opacity:1;stroke:none"
       width="20"
       x="30"
       y="14" />
    <rect
       height="88"
       id="rect4429"
       style="fill:url(#linearGradient4437);fill-opacity:1;stroke:none"
       width="12"
       x="22"
       y="14" />
    <rect
       height="16"
       id="rect4475"
       style="fill:url(#linearGradient4483);fill-opacity:1;stroke:none"
       width="16"
       x="18"
       y="26" />
    <path
       d="m 18,14 0,64 0,24 44,0 20,0 32,0 0,-4 0,-8 0,-4 0,-8 0,-4 0,-8 0,-4 0,-8 0,-4 0,-8 0,-4 0,-8 0,-4 0,-8 0,-4 -32,0 -64,0 z m 4,4 8,0 0,8 -8,0 0,-8 z m 12,0 12,0 0,8 -12,0 0,-8 z m 16,0 12,0 0,8 -12,0 0,-8 z m 16,0 12,0 0,8 -12,0 0,-8 z m 16,0 12,0 0,8 -12,0 0,-8 z m 16,0 12,0 0,8 -12,0 0,-8 z m -76,12 8,0 0,8 -8,0 0,-8 z m 12,0 12,0 0,8 -12,0 0,-8 z m 16,0 12,0 0,8 -12,0 0,-8 z m 16,0 12,0 0,8 -12,0 0,-8 z m 16,0 12,0 0,8 -12,0 0,-8 z m 16,0 12,0 0,8 -12,0 0,-8 z m -76,12 8,0 0,8 -8,0 0,-8 z m 12,0 12,0 0,8 -12,0 0,-8 z m 16,0 12,0 0,8 -12,0 0,-8 z m 16,0 12,0 0,8 -12,0 0,-8 z m 16,0 12,0 0,8 -12,0 0,-8 z m 16,0 12,0 0,8 -12,0 0,-8 z m -76,12 8,0 0,8 -8,0 0,-8 z m 12,0 12,0 0,8 -12,0 0,-8 z m 16,0 12,0 0,8 -12,0 0,-8 z m 16,0 12,0 0,8 -12,0 0,-8 z m 16,0 12,0 0,8 -12,0 0,-8 z m 16,0 12,0 0,8 -12,0 0,-8 z m -76,12 8,0 0,8 -8,0 0,-8 z m 12,0 12,0 0,8 -12,0 0,-8 z m 16,0 12,0 0,8 -12,0 0,-8 z m 16,0 12,0 0,8 -12,0 0,-8 z m 16,0 12,0 0,8 -12,0 0,-8 z m 16,0 12,0 0,8 -12,0 0,-8 z m -76,12 8,0 0,8 -8,0 0,-8 z m 12,0 12,0 0,8 -12,0 0,-8 z m 16,0 12,0 0,8 -12,0 0,-8 z m 16,0 12,0 0,8 -12,0 0,-8 z m 16,0 12,0 0,8 -12,0 0,-8 z m 16,0 12,0 0,8 -12,0 0,-8 z m -76,12 8,0 0,8 -8,0 0,-8 z m 12,0 12,0 0,8 -12,0 0,-8 z m 16,0 12,0 0,8 -12,0 0,-8 z m 16,0 12,0 0,8 -12,0 0,-8 z m 16,0 12,0 0,8 -12,0 0,-8 z m 16,0 12,0 0,8 -12,0 0,-8 z"
       id="rect3338"
       style="fill:url(#linearGradient3294);fill-opacity:1;stroke:none"
       inkscape:connector-curvature="0" />
    <path
       d="m 30,14 0,16.000002 2,0 2,0 12,0 2,0 2,0 L 50,14 l -2,0 -14,0 -4,0 z m 4,4 12,0 0,8 -12,0 0,-8 z"
       id="rect4451"
       sodipodi:nodetypes="cccccccccccccccc"
       style="fill:#80b3ff;fill-opacity:1;stroke:none"
       inkscape:connector-curvature="0" />
    <path
       d="m 18,26 0,16 2,0 2,0 6,0 2,0 4,0 0,-16 -4,0 -8,0 -4,0 z m 4,4 8,0 0,8 -8,0 0,-8 z"
       id="path4467"
       sodipodi:nodetypes="cccccccccccccccc"
       style="fill:#80b3ff;fill-opacity:1;stroke:none"
       inkscape:connector-curvature="0" />
    <rect
       height="4"
       id="rect4469"
       style="fill:#555555;fill-opacity:1;stroke:none"
       width="20"
       x="30"
       y="38" />
    <rect
       height="16"
       id="rect4471"
       style="fill:#555555;fill-opacity:1;stroke:none"
       width="4"
       x="46"
       y="26" />
    <rect
       height="8"
       id="rect4473"
       style="fill:#555555;fill-opacity:1;stroke:none"
       transform="scale(-1,-1)"
       width="8"
       x="-54"
       y="-46" />
    <rect
       height="132.12903"
       id="rect3244"
       style="opacity:0.73000004;fill:#e5ff00;fill-opacity:1;stroke:none"
       width="0"
       x="2.0000005"
       y="-6" />
    <path
       style="fill:#009b00;fill-opacity:1;stroke:#00ff00;stroke-width:0.2015748"
       d="m 18.045354,33.992441 0,-7.962205 6.047244,0 6.047245,0 0,-5.946456 0,-5.946457 9.877165,0 9.877165,0 0,5.845669 0,5.845669 -1.91496,0 -1.914961,0 0,-3.930708 0,-3.930709 -6.047244,0 -6.047244,0 0,4.031496 0,4.031496 5.946456,0 5.946457,0 0,1.914961 0,1.91496 -5.946457,0 -5.946456,0 0,4.031497 0,4.031496 -1.914961,0 -1.91496,0 0,-4.031496 0,-4.031497 -4.132284,0 -4.132283,0 0,4.132284 0,4.132283 4.031496,0 4.031496,0 0,1.914961 0,1.914961 -5.946457,0 -5.946457,0 0,-7.962205 z"
       id="path3910"
       inkscape:connector-curvature="0" />
  </g>
</svg>
