<?xml version="1.0" encoding="UTF-8" standalone="no"?>
<!-- Generator: Adobe Illustrator 12.0.0, SVG Export Plug-In . SVG Version: 6.00 Build 51448)  --><svg enable-background="new 0 0 128 128" height="128" id="Layer_1" inkscape:export-filename="/home/pinheiro/pics/oxygen/scalable/actions/history.png" inkscape:export-xdpi="11.25" inkscape:export-ydpi="11.25" inkscape:output_extension="org.inkscape.output.svg.inkscape" inkscape:version="0.45+devel" overflow="visible" sodipodi:docbase="/home/pinheiro/Documents/pics/trabalhos pagos2007/gexcon/128x128" sodipodi:docname="history.svg" sodipodi:version="0.32" space="preserve" version="1.1" viewBox="0 0 128 128" width="128" xmlns="http://www.w3.org/2000/svg" xmlns:cc="http://web.resource.org/cc/" xmlns:dc="http://purl.org/dc/elements/1.1/" xmlns:inkscape="http://www.inkscape.org/namespaces/inkscape" xmlns:ns="http://ns.adobe.com/SaveForWeb/1.0/" xmlns:rdf="http://www.w3.org/1999/02/22-rdf-syntax-ns#" xmlns:sodipodi="http://sodipodi.sourceforge.net/DTD/sodipodi-0.dtd" xmlns:svg="http://www.w3.org/2000/svg" xmlns:xlink="http://www.w3.org/1999/xlink">
  <metadata>
    <rdf:RDF xmlns:cc="http://web.resource.org/cc/" xmlns:dc="http://purl.org/dc/elements/1.1/" xmlns:rdf="http://www.w3.org/1999/02/22-rdf-syntax-ns#">
      <cc:Work rdf:about="">
        <dc:title></dc:title>
        <dc:description></dc:description>
        <dc:subject>
          <rdf:Bag>
            <rdf:li>unsorted</rdf:li>
          </rdf:Bag>
        </dc:subject>
        <dc:publisher>
          <cc:Agent rdf:about="http://www.openclipart.org/">
            <dc:title>Open Clip Art Library, Source: Oxygen Icons, Source: Oxygen Icons, Source: Oxygen Icons, Source: Oxygen Icons</dc:title>
          </cc:Agent>
        </dc:publisher>
        <dc:creator>
          <cc:Agent>
            <dc:title></dc:title>
          </cc:Agent>
        </dc:creator>
        <dc:rights>
          <cc:Agent>
            <dc:title></dc:title>
          </cc:Agent>
        </dc:rights>
        <dc:date></dc:date>
        <dc:format>image/svg+xml</dc:format>
        <dc:type rdf:resource="http://purl.org/dc/dcmitype/StillImage"/>
        <cc:license rdf:resource="http://creativecommons.org/licenses/by-sa/3.0/ or http://creativecommons.org/licenses/LGPL/2.1/"/>
        <dc:language>en</dc:language>
      </cc:Work>
    </rdf:RDF>
  </metadata>
  <defs id="defs105">
    <linearGradient id="linearGradient3295">
      <stop id="stop3297" offset="0" style="stop-color:#fdff63;stop-opacity:1;"/>
      <stop id="stop3299" offset="1" style="stop-color:#ffffff;stop-opacity:0;"/>
    </linearGradient>
    <radialGradient cx="48" cy="-0.2148" gradientTransform="matrix(0.9792,0,0,0.9725,133.0002,20.8762)" gradientUnits="userSpaceOnUse" id="XMLID_4_" r="55.148">
      <stop id="stop3082" offset="0" style="stop-color:#72D13D"/>
      <stop id="stop3084" offset="0.3553" style="stop-color:#35AC1C"/>
      <stop id="stop3086" offset="0.6194" style="stop-color:#0F9508"/>
      <stop id="stop3088" offset="0.7574" style="stop-color:#008C00"/>
      <stop id="stop3090" offset="1" style="stop-color:#007A00"/>
    </radialGradient>
    <radialGradient cx="48" cy="-0.2148" gradientTransform="matrix(0.9792,0,0,0.9725,133.0002,20.8762)" gradientUnits="userSpaceOnUse" id="radialGradient3351" r="55.148">
      <stop id="stop3353" offset="0" style="stop-color:#909975;stop-opacity:1;"/>
      <stop id="stop3361" offset="1" style="stop-color:#f2eee5;stop-opacity:1;"/>
    </radialGradient>
    <filter id="filter3495" inkscape:collect="always">
      <feGaussianBlur id="feGaussianBlur3497" inkscape:collect="always" stdDeviation="0.84521433"/>
    </filter>
    <linearGradient id="linearGradient3202">
      <stop id="stop3204" offset="0" style="stop-color:#cbff9c;stop-opacity:1;"/>
      <stop id="stop3206" offset="1" style="stop-color:#65c171;stop-opacity:0"/>
    </linearGradient>
    <linearGradient gradientTransform="translate(-136,-142.00448)" gradientUnits="userSpaceOnUse" id="linearGradient3828" inkscape:collect="always" x1="179.17224" x2="173.98071" xlink:href="#linearGradient3295" y1="123.75864" y2="65.448112"/>
    <radialGradient cx="172" cy="76" fx="172" fy="76" gradientTransform="matrix(1,0,0,1.1383929,-136,-152.52234)" gradientUnits="userSpaceOnUse" id="radialGradient3832" inkscape:collect="always" r="56" xlink:href="#XMLID_4_"/>
    <radialGradient cx="56" cy="0" fx="44.494534" fy="-6.2420459" gradientTransform="scale(1,0.125)" gradientUnits="userSpaceOnUse" id="radialGradient3902" inkscape:collect="always" r="32" xlink:href="#linearGradient3880"/>
    <radialGradient cx="56" cy="0" fx="44.494534" fy="-6.2420459" gradientTransform="scale(1,0.125)" gradientUnits="userSpaceOnUse" id="radialGradient3896" inkscape:collect="always" r="32" xlink:href="#linearGradient3880"/>
    <radialGradient cx="56" cy="0" fx="44.494534" fy="-6.2420459" gradientTransform="scale(1,0.125)" gradientUnits="userSpaceOnUse" id="radialGradient3890" inkscape:collect="always" r="32" xlink:href="#linearGradient3880"/>
    <radialGradient cx="56" cy="0" fx="44.494534" fy="-6.2420459" gradientTransform="scale(1,0.125)" gradientUnits="userSpaceOnUse" id="radialGradient3886" inkscape:collect="always" r="32" xlink:href="#linearGradient3880"/>
    <filter id="filter3850" inkscape:collect="always">
      <feGaussianBlur id="feGaussianBlur3852" inkscape:collect="always" stdDeviation="0.95374318"/>
    </filter>
    <linearGradient gradientTransform="matrix(0.6021553,0,0,0.6021553,-49.339284,20.583283)" gradientUnits="userSpaceOnUse" id="linearGradient2648" inkscape:collect="always" x1="193.78946" x2="220.94405" xlink:href="#linearGradient5446" y1="59.78125" y2="59.78125"/>
    <linearGradient gradientTransform="matrix(0.8776237,0,0,0.8776237,-108.35269,12.790918)" gradientUnits="userSpaceOnUse" id="linearGradient3810" inkscape:collect="always" spreadMethod="reflect" x1="193.78946" x2="215.63715" xlink:href="#radialGradient3351" y1="59.78125" y2="59.78125"/>
    <filter id="filter3798" inkscape:collect="always">
      <feGaussianBlur id="feGaussianBlur3800" inkscape:collect="always" stdDeviation="0.26380028"/>
    </filter>
    <filter id="filter3794" inkscape:collect="always">
      <feGaussianBlur id="feGaussianBlur3796" inkscape:collect="always" stdDeviation="0.26380028"/>
    </filter>
    <linearGradient gradientUnits="userSpaceOnUse" id="linearGradient3648" inkscape:collect="always" spreadMethod="reflect" x1="60.771305" x2="88.066513" xlink:href="#linearGradient3569" y1="15.0625" y2="15.0625"/>
    <linearGradient gradientUnits="userSpaceOnUse" id="linearGradient3645" inkscape:collect="always" spreadMethod="reflect" x1="60.771305" x2="88.066513" xlink:href="#linearGradient3569" y1="15.0625" y2="15.0625"/>
    <linearGradient gradientUnits="userSpaceOnUse" id="linearGradient3643" inkscape:collect="always" spreadMethod="reflect" x1="60.771305" x2="88.066513" xlink:href="#linearGradient3569" y1="15.0625" y2="15.0625"/>
    <linearGradient gradientUnits="userSpaceOnUse" id="linearGradient3641" inkscape:collect="always" spreadMethod="reflect" x1="60.771305" x2="88.066513" xlink:href="#linearGradient3569" y1="15.0625" y2="15.0625"/>
    <filter id="filter3629" inkscape:collect="always">
      <feGaussianBlur id="feGaussianBlur3631" inkscape:collect="always" stdDeviation="0.13790379"/>
    </filter>
    <filter id="filter3605" inkscape:collect="always">
      <feGaussianBlur id="feGaussianBlur3607" inkscape:collect="always" stdDeviation="0.22076896"/>
    </filter>
    <linearGradient gradientTransform="translate(16,0)" gradientUnits="userSpaceOnUse" id="linearGradient4051" inkscape:collect="always" x1="60.396191" x2="60.396191" xlink:href="#linearGradient4045" y1="6.6136646" y2="12.073788"/>
    <filter height="2.8741573" id="filter4039" inkscape:collect="always" width="1.0699312" x="-0.034965621" y="-0.93707865">
      <feGaussianBlur id="feGaussianBlur4041" inkscape:collect="always" stdDeviation="1.5251931"/>
    </filter>
    <filter height="1.0388883" id="filter3997" inkscape:collect="always" width="1.4766811" x="-0.23834054" y="-0.01944416">
      <feGaussianBlur id="feGaussianBlur3999" inkscape:collect="always" stdDeviation="0.80688202"/>
    </filter>
    <linearGradient gradientTransform="translate(-99.23437,0)" gradientUnits="userSpaceOnUse" id="linearGradient3963" inkscape:collect="always" x1="180.4375" x2="188.5625" xlink:href="#linearGradient2575" y1="59.484375" y2="59.484375"/>
    <linearGradient gradientTransform="translate(-135.5291,-0.296875)" gradientUnits="userSpaceOnUse" id="linearGradient3942" inkscape:collect="always" x1="193.78946" x2="220.94405" xlink:href="#linearGradient3837" y1="59.78125" y2="59.78125"/>
    <linearGradient gradientTransform="translate(-135.36504,0)" gradientUnits="userSpaceOnUse" id="linearGradient3935" inkscape:collect="always" x1="210.54687" x2="230.1729" xlink:href="#linearGradient3871" y1="52.591824" y2="52.591824"/>
    <linearGradient gradientTransform="translate(-135.36504,0)" gradientUnits="userSpaceOnUse" id="linearGradient3932" inkscape:collect="always" x1="197.65625" x2="226.5625" xlink:href="#linearGradient3883" y1="9.2500019" y2="34.250004"/>
    <linearGradient gradientTransform="translate(-135.36504,0)" gradientUnits="userSpaceOnUse" id="linearGradient3929" inkscape:collect="always" x1="201.63591" x2="211.5796" xlink:href="#linearGradient3893" y1="74.828888" y2="80.629371"/>
    <radialGradient cx="200.92145" cy="64.46875" fx="200.92145" fy="64.46875" gradientTransform="matrix(1.8977981,1.3403251e-7,-1.863763e-7,2.6389461,-162.99627,-106.25459)" gradientUnits="userSpaceOnUse" id="radialGradient3920" inkscape:collect="always" r="26.97573" xlink:href="#linearGradient3779"/>
    <radialGradient cx="238.03082" cy="59.78125" fx="238.03082" fy="59.78125" gradientTransform="matrix(1.2828719,0,0,2.8333783,-87.050985,-105.5079)" gradientUnits="userSpaceOnUse" id="radialGradient3918" inkscape:collect="always" r="23.47573" xlink:href="#linearGradient3771"/>
    <radialGradient cx="180.99957" cy="59.78125" fx="180.99957" fy="59.78125" gradientTransform="matrix(0.7071068,0.7071068,-2.0618473,2.0618473,213.58585,-187.37083)" gradientUnits="userSpaceOnUse" id="radialGradient3916" inkscape:collect="always" r="22.22573" xlink:href="#linearGradient3803"/>
    <filter id="filter3867" inkscape:collect="always">
      <feGaussianBlur id="feGaussianBlur3869" inkscape:collect="always" stdDeviation="0.27751822"/>
    </filter>
    <clipPath clipPathUnits="userSpaceOnUse" id="clipPath3824">
      <path d="M 218.31207,14.09375 C 206.17822,14.09375 196.33634,19.645615 196.33634,33.875 C 196.33634,44.394613 211.7205,52.817738 214.59118,63.53125 C 212.23986,72.306511 196.33634,82.873505 196.33634,93.53125 C 196.33634,107.95361 206.17822,113.65625 218.31207,113.65625 C 230.44593,113.65625 240.2878,107.95361 240.2878,93.53125 C 240.28779,82.873504 224.61835,73.180052 222.03296,63.53125 C 224.86896,52.947146 240.28779,44.394613 240.2878,33.875 C 240.2878,19.645614 230.44593,14.09375 218.31207,14.09375 z" id="path3826" sodipodi:nodetypes="cscssscsc" style="opacity:0.20599252;fill:#9c9c9c;fill-opacity:1;stroke:none;stroke-width:0.5;stroke-linecap:round;stroke-linejoin:round;stroke-miterlimit:4;stroke-dashoffset:1.08779998;stroke-opacity:1"/>
    </clipPath>
    <filter id="filter3799" inkscape:collect="always">
      <feGaussianBlur id="feGaussianBlur3801" inkscape:collect="always" stdDeviation="0.40593809"/>
    </filter>
    <filter id="filter3767" inkscape:collect="always">
      <feGaussianBlur id="feGaussianBlur3769" inkscape:collect="always" stdDeviation="1.1199548"/>
    </filter>
    <filter height="1.100613" id="filter3755" inkscape:collect="always" width="1.2043209" x="-0.10216047" y="-0.050306506">
      <feGaussianBlur id="feGaussianBlur3757" inkscape:collect="always" stdDeviation="2.2965444"/>
    </filter>
    <linearGradient gradientTransform="matrix(0.5000001,0,0,0.5000002,48,-44.000025)" gradientUnits="userSpaceOnUse" id="linearGradient3486" inkscape:collect="always" spreadMethod="reflect" x1="48" x2="112" xlink:href="#linearGradient3143" y1="112" y2="112"/>
    <linearGradient gradientTransform="matrix(0.5094973,0,0,0.5870287,46.977137,42.949012)" gradientUnits="userSpaceOnUse" id="linearGradient3481" inkscape:collect="always" spreadMethod="reflect" x1="48" x2="112" xlink:href="#linearGradient3143" y1="112" y2="112"/>
    <linearGradient gradientTransform="matrix(1,0,0,1.1818182,87.999998,-10.909091)" gradientUnits="userSpaceOnUse" id="linearGradient3477" inkscape:collect="always" spreadMethod="reflect" x1="26.204611" x2="32" xlink:href="#linearGradient3143" y1="60" y2="60"/>
    <linearGradient gradientTransform="matrix(1,0,0,1.1818182,16,-10.909091)" gradientUnits="userSpaceOnUse" id="linearGradient3473" inkscape:collect="always" spreadMethod="reflect" x1="25.687912" x2="32" xlink:href="#linearGradient3143" y1="60" y2="60"/>
    <linearGradient gradientTransform="matrix(1,0,0,0.4999997,16,-51.999973)" gradientUnits="userSpaceOnUse" id="linearGradient3463" inkscape:collect="always" spreadMethod="reflect" x1="48" x2="112" xlink:href="#linearGradient3143" y1="112" y2="112"/>
    <linearGradient gradientTransform="matrix(1,0,0,0.5000002,16,59.999975)" gradientUnits="userSpaceOnUse" id="linearGradient3459" inkscape:collect="always" spreadMethod="reflect" x1="48" x2="112" xlink:href="#linearGradient3143" y1="112" y2="112"/>
    <linearGradient id="linearGradient3143">
      <stop id="stop3145" offset="0" style="stop-color:#4e4a54;stop-opacity:1;"/>
      <stop id="stop3285" offset="0.10221675" style="stop-color:#3f3c44;stop-opacity:1;"/>
      <stop id="stop3283" offset="0.2044335" style="stop-color:#312e34;stop-opacity:1;"/>
      <stop id="stop3281" offset="0.408867" style="stop-color:#141215;stop-opacity:1;"/>
      <stop id="stop3147" offset="1" style="stop-color:#000000;stop-opacity:1;"/>
    </linearGradient>
    <linearGradient gradientUnits="userSpaceOnUse" id="linearGradient2575" x1="28" x2="28" y1="57.5" y2="0">
      <stop id="stop2577" offset="0" style="stop-color:#FFEA00"/>
      <stop id="stop2579" offset="1" style="stop-color:#ffa000;stop-opacity:1;"/>
    </linearGradient>
    <linearGradient gradientUnits="userSpaceOnUse" id="linearGradient5446" x1="28" x2="28" y1="57.5" y2="0">
      <stop id="stop5448" offset="0" style="stop-color:#FFEA00"/>
      <stop id="stop5450" offset="1" style="stop-color:#c66200;stop-opacity:1;"/>
    </linearGradient>
    <linearGradient id="linearGradient3771" inkscape:collect="always">
      <stop id="stop3773" offset="0" style="stop-color:#000000;stop-opacity:1;"/>
      <stop id="stop3775" offset="1" style="stop-color:#000000;stop-opacity:0;"/>
    </linearGradient>
    <linearGradient id="linearGradient3779" inkscape:collect="always">
      <stop id="stop3781" offset="0" style="stop-color:#000000;stop-opacity:1;"/>
      <stop id="stop3783" offset="1" style="stop-color:#000000;stop-opacity:0;"/>
    </linearGradient>
    <linearGradient id="linearGradient3803" inkscape:collect="always">
      <stop id="stop3805" offset="0" style="stop-color:#000000;stop-opacity:1;"/>
      <stop id="stop3807" offset="1" style="stop-color:#000000;stop-opacity:0;"/>
    </linearGradient>
    <linearGradient id="linearGradient3837">
      <stop id="stop3839" offset="0" style="stop-color:#b8b8b8;stop-opacity:1;"/>
      <stop id="stop3841" offset="1" style="stop-color:#ffffff;stop-opacity:1;"/>
    </linearGradient>
    <linearGradient id="linearGradient3871" inkscape:collect="always">
      <stop id="stop3874" offset="0" style="stop-color:#ffffff;stop-opacity:1;"/>
      <stop id="stop3876" offset="1" style="stop-color:#ffffff;stop-opacity:0;"/>
    </linearGradient>
    <linearGradient id="linearGradient3883" inkscape:collect="always">
      <stop id="stop3885" offset="0" style="stop-color:#ffffff;stop-opacity:1;"/>
      <stop id="stop3887" offset="1" style="stop-color:#ffffff;stop-opacity:0;"/>
    </linearGradient>
    <linearGradient id="linearGradient3893" inkscape:collect="always">
      <stop id="stop3895" offset="0" style="stop-color:#ffffff;stop-opacity:1;"/>
      <stop id="stop3897" offset="1" style="stop-color:#ffffff;stop-opacity:0;"/>
    </linearGradient>
    <linearGradient id="linearGradient4045" inkscape:collect="always">
      <stop id="stop4047" offset="0" style="stop-color:#121212;stop-opacity:1;"/>
      <stop id="stop4049" offset="1" style="stop-color:#121212;stop-opacity:0;"/>
    </linearGradient>
    <linearGradient id="linearGradient3569" inkscape:collect="always">
      <stop id="stop3571" offset="0" style="stop-color:#000000;stop-opacity:1;"/>
      <stop id="stop3573" offset="1" style="stop-color:#000000;stop-opacity:0;"/>
    </linearGradient>
    <linearGradient id="linearGradient3880" inkscape:collect="always">
      <stop id="stop3882" offset="0" style="stop-color:#ffffff;stop-opacity:1;"/>
      <stop id="stop3884" offset="1" style="stop-color:#ffffff;stop-opacity:0;"/>
    </linearGradient>
    <linearGradient gradientTransform="matrix(-0.5,0,0,0.4305231,182,51.362312)" gradientUnits="userSpaceOnUse" id="linearGradient2688" inkscape:collect="always" x1="108" x2="212" xlink:href="#radialGradient3351" y1="76" y2="108.51858"/>
    <radialGradient cx="172" cy="76" fx="172" fy="76" gradientTransform="matrix(1,0,0,1.1383929,-136,-152.52234)" gradientUnits="userSpaceOnUse" id="radialGradient3387" inkscape:collect="always" r="56" xlink:href="#XMLID_4_"/>
    <linearGradient gradientTransform="translate(-136,-142.00448)" gradientUnits="userSpaceOnUse" id="linearGradient3391" inkscape:collect="always" x1="179.17224" x2="173.98071" xlink:href="#linearGradient3295" y1="123.75864" y2="65.448112"/>
  </defs>
  <sodipodi:namedview bordercolor="#666666" borderopacity="1.0" gridempspacing="2" gridspacingx="4px" gridspacingy="4px" gridtolerance="10.0" guidetolerance="10.0" id="base" inkscape:current-layer="Layer_1" inkscape:cx="-57.872061" inkscape:cy="73.941651" inkscape:pageopacity="0.0" inkscape:pageshadow="2" inkscape:window-height="670" inkscape:window-width="1049" inkscape:window-x="231" inkscape:window-y="410" inkscape:zoom="1.8101934" objecttolerance="10.0" pagecolor="#ffffff" showgrid="true">
    <inkscape:grid id="grid2690" type="xygrid"/>
  </sodipodi:namedview>
  <radialGradient cx="102" cy="112.3047" gradientUnits="userSpaceOnUse" id="XMLID_7_" r="139.5585">
    <stop id="stop16" offset="0" style="stop-color:#ffffff;stop-opacity:1;"/>
    <stop id="stop26" offset="0.1737" style="stop-color:#dfdfdf;stop-opacity:1;"/>
    <stop id="stop28" offset="0.2099" style="stop-color:#ECF2F5"/>
    <stop id="stop30" offset="0.2435" style="stop-color:#FAFCFD"/>
    <stop id="stop32" offset="0.2722" style="stop-color:#FFFFFF"/>
  </radialGradient>
  <radialGradient cx="102" cy="112.3047" gradientUnits="userSpaceOnUse" id="XMLID_8_" r="139.55859">
    <stop id="stop37" offset="0" style="stop-color:#ffffff;stop-opacity:1;"/>
    <stop id="stop41" offset="0.11366145" style="stop-color:#bdbebf;stop-opacity:1;"/>
    <stop id="stop47" offset="0.20296688" style="stop-color:#ECECEC"/>
    <stop id="stop49" offset="0.2363" style="stop-color:#FAFAFA"/>
    <stop id="stop51" offset="0.38818121" style="stop-color:#FFFFFF"/>
    <stop id="stop53" offset="0.5313" style="stop-color:#FAFAFA"/>
    <stop id="stop55" offset="0.8449" style="stop-color:#EBECEC"/>
    <stop id="stop57" offset="1" style="stop-color:#E1E2E3"/>
  </radialGradient>
  <linearGradient gradientUnits="userSpaceOnUse" id="XMLID_9_" x1="94.3438" x2="86.5356" y1="102.3447" y2="94.5366">
    <stop id="stop62" offset="0" style="stop-color:#FFFFFF"/>
    <stop id="stop64" offset="1" style="stop-color:#555753"/>
  </linearGradient>
  <linearGradient gradientUnits="userSpaceOnUse" id="XMLID_10_" x1="95" x2="86.5865" y1="103" y2="94.5865">
    <stop id="stop69" offset="0" style="stop-color:#FFFFFF"/>
    <stop id="stop71" offset="1" style="stop-color:#555753"/>
  </linearGradient>
  <linearGradient gradientUnits="userSpaceOnUse" id="XMLID_11_" x1="95" x2="87.293" y1="103" y2="95.293">
    <stop id="stop76" offset="0" style="stop-color:#FFFFFF"/>
    <stop id="stop78" offset="1" style="stop-color:#393B38"/>
  </linearGradient>
  <linearGradient gradientUnits="userSpaceOnUse" id="XMLID_12_" x1="96" x2="88.0002" y1="104" y2="96.0002">
    <stop id="stop83" offset="0" style="stop-color:#888A85"/>
    <stop id="stop85" offset="0.0072" style="stop-color:#8C8E89"/>
    <stop id="stop87" offset="0.0673" style="stop-color:#ABACA9"/>
    <stop id="stop89" offset="0.1347" style="stop-color:#C5C6C4"/>
    <stop id="stop91" offset="0.2115" style="stop-color:#DBDBDA"/>
    <stop id="stop93" offset="0.3012" style="stop-color:#EBEBEB"/>
    <stop id="stop95" offset="0.4122" style="stop-color:#F7F7F6"/>
    <stop id="stop97" offset="0.5679" style="stop-color:#FDFDFD"/>
    <stop id="stop99" offset="1" style="stop-color:#FFFFFF"/>
  </linearGradient>
  <g id="g2656" style="overflow:visible" transform="translate(-16,0.1595895)">
    <path d="M 82.689408,9.6875 C 82.174198,9.6875 81.684588,9.8337303 81.203128,10.0625 C 84.150718,11.443627 86.355568,17.248903 86.355568,29.5 C 86.355558,38.980671 84.921748,46.85021 83.549468,56.0625 C 83.698488,57.070603 83.841308,58.077184 83.925998,59.125 C 83.849678,60.069285 83.709378,61.04759 83.549468,62.03125 C 84.884598,70.729119 86.355558,79.535706 86.355568,89.125 C 86.355568,101.54225 84.150718,107.49083 81.203128,108.90625 C 81.684588,109.14069 82.174198,109.28125 82.689408,109.28125 C 86.349208,109.28125 89.328128,103.54736 89.328128,89.125 C 89.328118,78.467254 84.598778,68.773802 83.818978,59.125 C 84.674358,48.540896 89.328118,40.019613 89.328128,29.5 C 89.328128,15.270614 86.349208,9.6875 82.689408,9.6875 z" id="path3950" sodipodi:nodetypes="ccscccscsscsc" style="opacity:0.30337082;fill:url(#linearGradient3963);fill-opacity:1;stroke:none;stroke-width:0.5;stroke-linecap:round;stroke-linejoin:round;stroke-miterlimit:4;stroke-dashoffset:1.08779998;stroke-opacity:1;filter:url(#filter3997)"/>
    <g clip-path="url(#clipPath3824)" id="g3812" transform="translate(-138.07598,-4.390625)">
      <path d="M 218.31207,14.09375 C 206.17822,14.09375 196.33634,19.645615 196.33634,33.875 C 196.33634,44.394613 211.72051,52.817738 214.59118,63.53125 C 212.23987,72.306511 196.33634,82.873505 196.33634,93.53125 C 196.33634,107.95361 206.17822,113.65625 218.31207,113.65625 C 230.44593,113.65625 240.2878,107.95361 240.2878,93.53125 C 240.2878,82.873504 224.61836,73.180052 222.03296,63.53125 C 224.86897,52.947146 240.2878,44.394613 240.2878,33.875 C 240.2878,19.645614 230.44593,14.09375 218.31207,14.09375 z" id="path3721" sodipodi:nodetypes="cscssscsc" style="opacity:1;fill:none;fill-opacity:1;stroke:url(#radialGradient3916);stroke-width:0.5;stroke-linecap:round;stroke-linejoin:round;stroke-miterlimit:4;stroke-dashoffset:1.08779998;stroke-opacity:1;filter:url(#filter3799)"/>
      <path d="M 218.31207,14.09375 C 206.17822,14.09375 196.33634,19.645615 196.33634,33.875 C 196.33634,44.394613 211.7205,52.817738 214.59118,63.53125 C 212.23986,72.306511 196.33634,82.873505 196.33634,93.53125 C 196.33634,107.95361 206.17822,113.65625 218.31207,113.65625 C 230.44593,113.65625 240.2878,107.95361 240.2878,93.53125 C 240.28779,82.873504 224.61835,73.180052 222.03296,63.53125 C 224.86896,52.947146 240.28779,44.394613 240.2878,33.875 C 240.2878,19.645614 230.44593,14.09375 218.31207,14.09375 z" id="path3723" sodipodi:nodetypes="cscssscsc" style="opacity:0.53183522;fill:none;fill-opacity:1;stroke:url(#radialGradient3918);stroke-width:3;stroke-linecap:round;stroke-linejoin:round;stroke-miterlimit:4;stroke-dasharray:none;stroke-dashoffset:1.08779998;stroke-opacity:1;filter:url(#filter3767)"/>
      <path d="M 218.31207,14.09375 C 206.17822,14.09375 196.33634,19.645615 196.33634,33.875 C 196.33634,44.394613 211.7205,52.817738 214.59118,63.53125 C 212.23986,72.306511 196.33634,82.873505 196.33634,93.53125 C 196.33634,107.95361 206.17822,113.65625 218.31207,113.65625 C 230.44593,113.65625 240.2878,107.95361 240.2878,93.53125 C 240.28779,82.873504 224.61835,73.180052 222.03296,63.53125 C 224.86896,52.947146 240.28779,44.394613 240.2878,33.875 C 240.2878,19.645614 230.44593,14.09375 218.31207,14.09375 z" id="path3725" sodipodi:nodetypes="cscssscsc" style="opacity:0.2284644;fill:none;fill-opacity:1;stroke:url(#radialGradient3920);stroke-width:10;stroke-linecap:round;stroke-linejoin:round;stroke-miterlimit:4;stroke-dasharray:none;stroke-dashoffset:1.08779998;stroke-opacity:1;filter:url(#filter3755)"/>
      <path d="M 218.31207,14.09375 C 206.17822,14.09375 196.33634,19.645615 196.33634,33.875 C 196.33634,44.394613 211.7205,52.817738 214.59118,63.53125 C 212.23986,72.306511 196.33634,82.873505 196.33634,93.53125 C 196.33634,107.95361 206.17822,113.65625 218.31207,113.65625 C 230.44593,113.65625 240.2878,107.95361 240.2878,93.53125 C 240.28779,82.873504 224.61835,73.180052 222.03296,63.53125 C 224.86896,52.947146 240.28779,44.394613 240.2878,33.875 C 240.2878,19.645614 230.44593,14.09375 218.31207,14.09375 z" id="path3828" sodipodi:nodetypes="cscssscsc" style="opacity:1;fill:none;fill-opacity:1;stroke:#000000;stroke-width:1;stroke-linecap:round;stroke-linejoin:round;stroke-miterlimit:4;stroke-dasharray:none;stroke-dashoffset:1.08779998;stroke-opacity:1;filter:url(#filter3850)"/>
    </g>
    <path d="M 64.397094,9.6875 C 56.220084,9.6875 49.087964,12.219475 45.303344,18.21875 C 49.849104,19.561052 56.943534,20.237501 64.959594,20.2375 C 72.408044,20.2375 79.090624,19.682669 83.647094,18.5 C 79.908094,12.305393 72.696284,9.6875 64.397094,9.6875 z" id="path2977" sodipodi:nodetypes="ccscc" style="opacity:0.78277151;fill:url(#linearGradient3648);fill-opacity:1;stroke:none;stroke-width:3;stroke-linecap:round;stroke-linejoin:round;stroke-miterlimit:4;stroke-dasharray:none;stroke-dashoffset:1.08779998;stroke-opacity:1;filter:url(#filter3798)" transform="matrix(0.8615336,0,0,1,24.927649,0)"/>
    <g id="g3637" style="opacity:0.55805209" transform="matrix(-1,0,0,-1,144.95044,118.79687)">
      <path d="M 64.397094,9.6875 C 56.220084,9.6875 49.087964,12.219475 45.303344,18.21875 C 49.849104,19.561052 56.943534,20.437501 64.959594,20.4375 C 72.408044,20.4375 79.090624,19.682669 83.647094,18.5 C 79.908094,12.305393 72.696284,9.6875 64.397094,9.6875 z" id="path3633" style="opacity:0.78277151;fill:url(#linearGradient3641);fill-opacity:1;stroke:none;stroke-width:3;stroke-linecap:round;stroke-linejoin:round;stroke-miterlimit:4;stroke-dasharray:none;stroke-dashoffset:1.08779998;stroke-opacity:1;filter:url(#filter3629)"/>
      <path d="M 64.397094,9.6875 C 56.220084,9.6875 49.087964,12.219475 45.303344,18.21875 C 49.891666,16.989313 56.943534,16.628907 64.959594,16.628906 C 72.408044,16.628906 79.105236,17.283013 83.647094,18.5 C 79.908094,12.305393 72.696284,9.6875 64.397094,9.6875 z" id="path3635" sodipodi:nodetypes="ccscc" style="opacity:0.78277151;fill:url(#linearGradient3643);fill-opacity:1;stroke:none;stroke-width:3;stroke-linecap:round;stroke-linejoin:round;stroke-miterlimit:4;stroke-dasharray:none;stroke-dashoffset:1.08779998;stroke-opacity:1;filter:url(#filter3605)"/>
    </g>
    <path d="M 68.886471,43.163393 C 71.593361,47.52917 77.064231,51.568656 78.351601,56.373175 C 78.338331,56.422713 79.514151,57.678297 79.499461,57.728024 L 79.593541,57.840929 L 79.593541,85.983371 L 82.077431,85.983371 L 82.077431,57.633938 C 81.889471,57.214052 82.942501,56.792572 82.830131,56.373175 C 84.027671,51.903896 88.933501,48.031354 91.768371,43.934905 L 80.496781,50.29517 L 68.886471,43.163393 z" id="path3802" sodipodi:nodetypes="ccccccccccc" style="opacity:1;fill:url(#linearGradient2688);fill-opacity:1;stroke:none;stroke-width:0.5;stroke-linecap:round;stroke-linejoin:round;stroke-miterlimit:4;stroke-dashoffset:1.08779998;stroke-opacity:1"/>
    <path d="M 80.236088,9.703125 C 68.102238,9.703125 58.260358,15.25499 58.260358,29.484375 C 58.260358,40.003988 73.644518,48.427113 76.515198,59.140625 C 74.163878,67.915886 58.260358,78.48288 58.260358,89.140625 C 58.260358,103.56299 68.102238,109.26563 80.236088,109.26563 C 92.369948,109.26563 102.21182,103.56299 102.21182,89.140625 C 102.21181,78.482879 86.542368,68.789427 83.956978,59.140625 C 86.792978,48.556521 102.21181,40.003988 102.21182,29.484375 C 102.21182,15.254989 92.369948,9.703125 80.236088,9.703125 z" id="path3496" sodipodi:nodetypes="cscssscsc" style="opacity:0.20599252;fill:url(#linearGradient3942);fill-opacity:1;stroke:none;stroke-width:0.5;stroke-linecap:round;stroke-linejoin:round;stroke-miterlimit:4;stroke-dashoffset:1.08779998;stroke-opacity:1"/>
    <path d="M 81.199231,84.166408 L 61.891511,94.25908 C 63.157886,104.72999 71.236953,108.95928 81.007251,108.95928 C 90.25952,108.95928 97.4792,104.8801 99.348739,95.587355 L 81.199231,84.166408 z" id="path2979" sodipodi:nodetypes="ccscc" style="opacity:1;fill:url(#linearGradient3810);fill-opacity:1;stroke:none;stroke-width:0.5;stroke-linecap:round;stroke-linejoin:round;stroke-miterlimit:4;stroke-dashoffset:1.08779998;stroke-opacity:1"/>
    <rect height="12.486969" id="rect3479" rx="3.5185578" ry="3.5185578" style="opacity:1;fill:url(#linearGradient3481);fill-opacity:1;stroke:none;stroke-width:0.49613535;stroke-linecap:round;stroke-linejoin:round;stroke-miterlimit:4;stroke-dasharray:none;stroke-dashoffset:1.08779998;stroke-opacity:1" width="48.911736" x="55.129093" y="104"/>
    <path d="M 61.891511,94.341358 C 63.190196,104.75211 71.262599,108.95928 81.007251,108.95928 C 90.221566,108.95928 97.511716,104.79658 99.421312,95.586903 C 95.057426,98.020015 89.122694,97.963631 82.07686,97.963631 C 73.557583,97.963631 66.104675,97.70593 61.891511,94.341358 z" id="path3814" sodipodi:nodetypes="cscsc" style="opacity:0.39325843;fill:#373737;fill-opacity:1;stroke:none;stroke-width:0.5;stroke-linecap:round;stroke-linejoin:round;stroke-miterlimit:4;stroke-dashoffset:1.08779998;stroke-opacity:1"/>
    <path d="M 75.181828,50.265627 C 76.418808,53.4355 77.655788,56.605373 78.892768,59.775246 C 78.569168,62.951702 78.936088,62.951702 81.236518,59.775246 C 83.825638,53.301954 88.169268,47.307165 94.807858,41.938275 C 89.504808,46.150621 84.569338,50.870608 81.041208,56.515627 C 80.585478,56.580731 80.129748,56.645835 79.674018,56.710939 C 78.176618,54.562502 76.679228,52.414064 75.181828,50.265627 z" id="path3845" sodipodi:nodetypes="ccccccc" style="fill:url(#linearGradient3935);fill-opacity:1;fill-rule:evenodd;stroke:none;stroke-width:1px;stroke-linecap:butt;stroke-linejoin:miter;stroke-opacity:1;filter:url(#filter3867)"/>
    <path d="M 64.397094,9.6875 C 56.220084,9.6875 49.087964,12.219475 45.303344,18.21875 C 49.891666,16.989313 56.943534,16.628907 64.959594,16.628906 C 72.408044,16.628906 79.105236,17.283013 83.647094,18.5 C 79.908094,12.305393 72.696284,9.6875 64.397094,9.6875 z" id="path3577" sodipodi:nodetypes="ccscc" style="opacity:0.78277151;fill:url(#linearGradient3645);fill-opacity:1;stroke:none;stroke-width:3;stroke-linecap:round;stroke-linejoin:round;stroke-miterlimit:4;stroke-dasharray:none;stroke-dashoffset:1.08779998;stroke-opacity:1;filter:url(#filter3794)" transform="matrix(0.8615336,0,0,1,24.927649,0)"/>
    <rect height="10.209717" id="rect4043" rx="0.84041005" ry="0.84041047" style="opacity:1;fill:url(#linearGradient4051);fill-opacity:1;stroke:none;stroke-width:0.49613535;stroke-linecap:round;stroke-linejoin:round;stroke-miterlimit:4;stroke-dasharray:none;stroke-dashoffset:1.08779998;stroke-opacity:1" width="48" x="56" y="5.7902913"/>
    <path d="M 80.650578,11.203128 C 67.293058,11.855855 62.020038,16.593608 60.061868,27.609377 C 62.034138,31.262447 67.035628,33.314089 71.275588,34.250002 C 68.616698,24.223961 72.536848,15.369794 80.650578,11.203128 z" id="path3881" sodipodi:nodetypes="cccc" style="fill:url(#linearGradient3932);fill-opacity:1;fill-rule:evenodd;stroke:none;stroke-width:1px;stroke-linecap:butt;stroke-linejoin:miter;stroke-opacity:1"/>
    <path d="M 76.214558,65.851944 C 68.566958,73.115009 60.955828,80.253837 59.917958,90.98738 C 61.830298,95.045382 65.441068,94.857277 68.756798,95.406798 C 68.039398,82.885746 72.782328,74.914974 76.214558,65.851944 z" id="path3891" sodipodi:nodetypes="cccc" style="fill:url(#linearGradient3929);fill-opacity:1;fill-rule:evenodd;stroke:none;stroke-width:1px;stroke-linecap:butt;stroke-linejoin:miter;stroke-opacity:1"/>
    <rect height="8.0000076" id="rect2871" rx="1.6808201" ry="0.84041047" style="opacity:1;fill:url(#linearGradient3459);fill-opacity:1;stroke:none;stroke-width:0.49613535;stroke-linecap:round;stroke-linejoin:round;stroke-miterlimit:4;stroke-dasharray:none;stroke-dashoffset:1.08779998;stroke-opacity:1" width="96" x="32" y="112"/>
    <rect height="104" id="rect3465" rx="0" ry="0" style="opacity:0.89513113;fill:url(#linearGradient3473);fill-opacity:1;stroke:none;stroke-width:0.5;stroke-linecap:round;stroke-linejoin:round;stroke-miterlimit:4;stroke-dasharray:none;stroke-dashoffset:1.08779998;stroke-opacity:1" width="8" x="40" y="8"/>
    <rect height="104" id="rect3475" rx="0" ry="0" style="opacity:0.89513113;fill:url(#linearGradient3477);fill-opacity:1;stroke:none;stroke-width:0.5;stroke-linecap:round;stroke-linejoin:round;stroke-miterlimit:4;stroke-dasharray:none;stroke-dashoffset:1.08779998;stroke-opacity:1" width="8" x="112" y="8"/>
    <rect height="12.219788" id="rect3483" rx="2.8096411" ry="2.8096411" style="opacity:1;fill:url(#linearGradient3486);fill-opacity:1;stroke:none;stroke-width:0.49613535;stroke-linecap:round;stroke-linejoin:round;stroke-miterlimit:4;stroke-dasharray:none;stroke-dashoffset:1.08779998;stroke-opacity:1" width="48" x="56" y="3.7802198"/>
    <rect height="8.000001" id="rect3461" rx="1.1055746" ry="1.1055746" style="opacity:1;fill:url(#linearGradient3463);fill-opacity:1;stroke:none;stroke-width:0.49613535;stroke-linecap:round;stroke-linejoin:round;stroke-miterlimit:4;stroke-dasharray:none;stroke-dashoffset:1.08779998;stroke-opacity:1" width="96" x="32" y="0"/>
    <rect height="2.34375" id="rect4001" rx="16.04812" ry="1.171875" style="opacity:0.78277151;fill:#121212;fill-opacity:1;stroke:none;stroke-width:3;stroke-linecap:round;stroke-linejoin:round;stroke-miterlimit:4;stroke-dasharray:none;stroke-dashoffset:1.08779998;stroke-opacity:1;filter:url(#filter4039)" width="96.09375" x="32.015625" y="118.23438"/>
    <path d="M 88,0 A 32,4 0 1 1 24,4.8984254e-16 A 32,4 0 1 1 88,-9.7968508e-16 z" id="path3854" sodipodi:cx="56" sodipodi:cy="0" sodipodi:rx="32" sodipodi:ry="4" sodipodi:type="arc" style="opacity:1;fill:url(#radialGradient3886);fill-opacity:1;stroke:none;stroke-width:1;stroke-linecap:round;stroke-linejoin:round;stroke-miterlimit:4;stroke-dasharray:none;stroke-dashoffset:1.08779998;stroke-opacity:1" transform="matrix(1.4263736,0,0,0.2409394,-0.703297,1.067012)"/>
    <path d="M 88,0 A 32,4 0 1 1 24,4.8984254e-16 A 32,4 0 1 1 88,-9.7968508e-16 z" id="path3888" sodipodi:cx="56" sodipodi:cy="0" sodipodi:rx="32" sodipodi:ry="4" sodipodi:type="arc" style="opacity:1;fill:url(#radialGradient3890);fill-opacity:1;stroke:none;stroke-width:1;stroke-linecap:round;stroke-linejoin:round;stroke-miterlimit:4;stroke-dasharray:none;stroke-dashoffset:1.08779998;stroke-opacity:1" transform="matrix(1.4263736,0,0,0.2409394,-0.703297,1.067012)"/>
    <path d="M 88,0 A 32,4 0 1 1 24,4.8984254e-16 A 32,4 0 1 1 88,-9.7968508e-16 z" id="path3892" sodipodi:cx="56" sodipodi:cy="0" sodipodi:rx="32" sodipodi:ry="4" sodipodi:type="arc" style="opacity:1;fill:url(#radialGradient3896);fill-opacity:1;stroke:none;stroke-width:1;stroke-linecap:round;stroke-linejoin:round;stroke-miterlimit:4;stroke-dasharray:none;stroke-dashoffset:1.08779998;stroke-opacity:1" transform="matrix(1.4263736,0,0,0.2409394,-0.703297,113.10923)"/>
    <path d="M 88,0 A 32,4 0 1 1 24,4.8984254e-16 A 32,4 0 1 1 88,-9.7968508e-16 z" id="path3900" sodipodi:cx="56" sodipodi:cy="0" sodipodi:rx="32" sodipodi:ry="4" sodipodi:type="arc" style="opacity:1;fill:url(#radialGradient3902);fill-opacity:1;stroke:none;stroke-width:1;stroke-linecap:round;stroke-linejoin:round;stroke-miterlimit:4;stroke-dasharray:none;stroke-dashoffset:1.08779998;stroke-opacity:1" transform="matrix(0.742578,0,0,0.2248956,37.19141,104.97172)"/>
  </g>
</svg>
