<?xml version="1.0" encoding="UTF-8" standalone="no"?>
<!-- Generator: Adobe Illustrator 12.0.0, SVG Export Plug-In . SVG Version: 6.00 Build 51448)  --><svg enable-background="new 0 0 128 128" height="128" id="Layer_1" inkscape:export-filename="/home/david/document-revert.png" inkscape:export-xdpi="22.5" inkscape:export-ydpi="22.5" inkscape:output_extension="org.inkscape.output.svgz.inkscape" inkscape:version="0.45.1" overflow="visible" sodipodi:docbase="/home/david/Icons/Oxygen/trunk/scalable/actions" sodipodi:docname="document-revert.svgz" sodipodi:version="0.32" space="preserve" version="1.1" viewBox="0 0 128 128" width="128" xmlns="http://www.w3.org/2000/svg" xmlns:cc="http://web.resource.org/cc/" xmlns:dc="http://purl.org/dc/elements/1.1/" xmlns:inkscape="http://www.inkscape.org/namespaces/inkscape" xmlns:ns="http://ns.adobe.com/SaveForWeb/1.0/" xmlns:rdf="http://www.w3.org/1999/02/22-rdf-syntax-ns#" xmlns:sodipodi="http://sodipodi.sourceforge.net/DTD/sodipodi-0.dtd" xmlns:svg="http://www.w3.org/2000/svg" xmlns:xlink="http://www.w3.org/1999/xlink">
  <metadata>
    <rdf:RDF xmlns:cc="http://web.resource.org/cc/" xmlns:dc="http://purl.org/dc/elements/1.1/" xmlns:rdf="http://www.w3.org/1999/02/22-rdf-syntax-ns#">
      <cc:Work rdf:about="">
        <dc:title></dc:title>
        <dc:description></dc:description>
        <dc:subject>
          <rdf:Bag>
            <rdf:li>unsorted</rdf:li>
          </rdf:Bag>
        </dc:subject>
        <dc:publisher>
          <cc:Agent rdf:about="http://www.openclipart.org/">
            <dc:title>Open Clip Art Library, Source: Oxygen Icons, Source: Oxygen Icons, Source: Oxygen Icons, Source: Oxygen Icons</dc:title>
          </cc:Agent>
        </dc:publisher>
        <dc:creator>
          <cc:Agent>
            <dc:title></dc:title>
          </cc:Agent>
        </dc:creator>
        <dc:rights>
          <cc:Agent>
            <dc:title></dc:title>
          </cc:Agent>
        </dc:rights>
        <dc:date></dc:date>
        <dc:format>image/svg+xml</dc:format>
        <dc:type rdf:resource="http://purl.org/dc/dcmitype/StillImage"/>
        <cc:license rdf:resource="http://creativecommons.org/licenses/by-sa/3.0/ or http://creativecommons.org/licenses/LGPL/2.1/"/>
        <dc:language>en</dc:language>
      </cc:Work>
    </rdf:RDF>
  </metadata>
  <defs id="defs105">
    <linearGradient id="linearGradient6740">
      <stop id="stop6742" offset="0" style="stop-color:#004d00;stop-opacity:0;"/>
      <stop id="stop6748" offset="0.5" style="stop-color:#004d00;stop-opacity:1;"/>
      <stop id="stop6744" offset="1" style="stop-color:#004d00;stop-opacity:0;"/>
    </linearGradient>
    <linearGradient gradientTransform="matrix(0,1,-1,0,-39.9985,140.0029)" gradientUnits="userSpaceOnUse" id="linearGradient3711" x1="-84.002403" x2="-23.516129" y1="-383.9971" y2="-383.9975">
      <stop id="stop3713" offset="0" style="stop-color:white;stop-opacity:1;"/>
      <stop id="stop3715" offset="1" style="stop-color:white;stop-opacity:0;"/>
    </linearGradient>
    <clipPath clipPathUnits="userSpaceOnUse" id="clipPath5163">
      <circle cx="343.99899" cy="92" id="circle5165" r="36" rx="8.0010004" ry="8.0010004" sodipodi:cx="343.99899" sodipodi:cy="92" sodipodi:rx="36" sodipodi:ry="36" style="fill-opacity:1"/>
    </clipPath>
    <linearGradient id="linearGradient4296">
      <stop id="stop4298" offset="0" style="stop-color:#00ff00;stop-opacity:1"/>
      <stop id="stop4300" offset="1" style="stop-color:#006500;stop-opacity:1"/>
    </linearGradient>
    <linearGradient gradientUnits="userSpaceOnUse" id="linearGradient4272" inkscape:collect="always" x1="328.12448" x2="336.98077" xlink:href="#linearGradient4296" y1="120.81158" y2="87.759453"/>
    <linearGradient gradientTransform="matrix(0,1,-1,0,-39.9985,140.0029)" gradientUnits="userSpaceOnUse" id="linearGradient4770" x1="-84.002403" x2="-12.0029" y1="-383.9971" y2="-383.9971">
      <stop id="stop4772" offset="0" style="stop-color:#e5ff00;stop-opacity:1"/>
      <stop id="stop4774" offset="1" style="stop-color:#bff500;stop-opacity:0;"/>
    </linearGradient>
    <linearGradient gradientTransform="matrix(0,1,-1,0,-39.9985,140.0029)" gradientUnits="userSpaceOnUse" id="linearGradient5958" x1="-84.002403" x2="-12.0029" y1="-383.9971" y2="-383.9971">
      <stop id="stop5960" offset="0" style="stop-color:#008c00;stop-opacity:1"/>
      <stop id="stop5962" offset="1" style="stop-color:#00bf00;stop-opacity:1"/>
    </linearGradient>
    <linearGradient gradientUnits="userSpaceOnUse" id="linearGradient18668" x1="28" x2="28" y1="57.5" y2="0">
      <stop id="stop18670" offset="0" style="stop-color:#fffccf;stop-opacity:1;"/>
      <stop id="stop18672" offset="1" style="stop-color:white;stop-opacity:0;"/>
    </linearGradient>
    <linearGradient gradientUnits="userSpaceOnUse" id="XMLID_2_" x1="28" x2="28" y1="57.5" y2="0">
      <stop id="stop12" offset="0" style="stop-color:#FFEA00"/>
      <stop id="stop14" offset="1" style="stop-color:#FFCC00"/>
    </linearGradient>
    <linearGradient gradientUnits="userSpaceOnUse" id="linearGradient2291" inkscape:collect="always" x1="94.3438" x2="86.5356" xlink:href="#XMLID_9_" y1="102.3447" y2="94.5366"/>
    <linearGradient gradientUnits="userSpaceOnUse" id="linearGradient2293" inkscape:collect="always" x1="95" x2="86.5865" xlink:href="#XMLID_10_" y1="103" y2="94.5865"/>
    <linearGradient gradientUnits="userSpaceOnUse" id="linearGradient2295" inkscape:collect="always" x1="95" x2="87.293" xlink:href="#XMLID_11_" y1="103" y2="95.293"/>
    <linearGradient gradientUnits="userSpaceOnUse" id="linearGradient2297" inkscape:collect="always" x1="96" x2="88.0002" xlink:href="#XMLID_12_" y1="104" y2="96.0002"/>
    <linearGradient gradientUnits="userSpaceOnUse" id="linearGradient2299" inkscape:collect="always" x1="28" x2="28" xlink:href="#XMLID_2_" y1="57.5" y2="0"/>
    <radialGradient cx="102" cy="112.3047" gradientTransform="matrix(0.9787234,0,0,0.9818182,1.3617045,1.1636364)" gradientUnits="userSpaceOnUse" id="radialGradient2272" inkscape:collect="always" r="139.55859" xlink:href="#XMLID_8_"/>
    <radialGradient cx="102" cy="112.3047" gradientTransform="translate(2.4e-6,0)" gradientUnits="userSpaceOnUse" id="radialGradient2275" inkscape:collect="always" r="139.5585" xlink:href="#XMLID_7_"/>
    <radialGradient cx="30.010139" cy="34.750149" fx="30.010139" fy="34.750149" gradientTransform="matrix(1,0,0,1.2916104,-4,-19.57938)" gradientUnits="userSpaceOnUse" id="radialGradient3239" inkscape:collect="always" r="20.78125" xlink:href="#linearGradient18668"/>
    <filter id="filter3241" inkscape:collect="always">
      <feGaussianBlur id="feGaussianBlur3243" inkscape:collect="always" stdDeviation="1.0394514"/>
    </filter>
    <linearGradient gradientTransform="translate(-137,0)" gradientUnits="userSpaceOnUse" id="linearGradient3567" inkscape:collect="always" x1="208.59375" x2="208.59375" xlink:href="#linearGradient3295" y1="130.40625" y2="63.426777"/>
    <linearGradient gradientUnits="userSpaceOnUse" id="linearGradient3565" inkscape:collect="always" x1="-267.47665" x2="-33.476654" xlink:href="#linearGradient3751" y1="18.103027" y2="18.103027"/>
    <mask id="mask3402" maskUnits="userSpaceOnUse">
      <g id="g3404" transform="translate(167.50257,-3.755156e-3)">
        <g id="g3406" transform="translate(80.51637,30.885255)">
          <path d="M -184.42232,-32.47243 C -217.54751,-32.47243 -248.42232,-0.097625 -248.42232,33.02757 C -248.42232,66.15276 -217.04751,97.02757 -183.92232,97.02757 C -153.6332,97.02757 -128.58571,70.81131 -124.51607,41.68382 L -159.54732,36.65257 C -161.172,48.6137 -171.47739,57.62132 -183.92232,57.62132 C -197.49395,57.62132 -206.01607,46.0992 -206.01607,32.52757 C -206.01607,18.955936 -199.99395,12.43382 -186.42232,12.43382 C -179.6365,12.433819 -176.50103,10.198864 -172.04732,14.65257 L -176.8745,25.979749 C -178.93037,28.035619 -179.11822,29.285529 -178.55411,30.595278 C -178.04554,31.776057 -177.03338,33.12132 -174.34438,33.12132 L -130.39107,33.12132 C -126.54518,33.12132 -123.93208,30.466941 -123.93208,26.871189 L -124.00095,-17.206829 C -124.00095,-19.687584 -124.90346,-21.050058 -126.18242,-21.556444 C -127.49674,-22.076829 -129.21563,-21.679122 -131.28951,-19.605244 L -141.48482,-19.40993 C -152.34417,-30.269281 -167.85972,-32.47243 -184.42232,-32.47243 z " id="path3408" sodipodi:nodetypes="cssccsssccsccccsccc" style="opacity:1;fill:url(#radialGradient3422);fill-opacity:1;stroke:none;stroke-width:2;stroke-linecap:round;stroke-linejoin:round;stroke-miterlimit:4;stroke-dashoffset:1.08779998;stroke-opacity:1"/>
          <path d="M -161.5,34.5 C -162,37 -180,54 -180,54 L -132.5,80 L -112,38.5 L -161.5,34.5 z " id="path3410" sodipodi:nodetypes="ccccc" style="fill:url(#linearGradient3424);fill-opacity:1;fill-rule:evenodd;stroke:none;stroke-width:1px;stroke-linecap:butt;stroke-linejoin:miter;stroke-opacity:1;filter:url(#filter3438)"/>
          <path d="M -161.5,34.5 C -162,37 -181.27817,54.389087 -181.27817,54.389087 L -151.62742,97.591883 L -112,38.5 L -161.5,34.5 z " id="path3412" sodipodi:nodetypes="ccccc" style="fill:url(#linearGradient3426);fill-opacity:1;fill-rule:evenodd;stroke:none;stroke-width:1px;stroke-linecap:butt;stroke-linejoin:miter;stroke-opacity:1;filter:url(#filter3438)"/>
          <path d="M -161.5,34.5 C -162,37 -181.27817,54.389087 -181.27817,54.389087 L -151.62742,97.591883 L -112,38.5 L -161.5,34.5 z " id="path3414" sodipodi:nodetypes="ccccc" style="fill:url(#linearGradient3428);fill-opacity:1;fill-rule:evenodd;stroke:none;stroke-width:1px;stroke-linecap:butt;stroke-linejoin:miter;stroke-opacity:1;filter:url(#filter3438)"/>
        </g>
        <rect height="71.75" id="rect3416" style="opacity:1;fill:url(#linearGradient3430);fill-opacity:1;stroke:none;stroke-width:1;stroke-linecap:round;stroke-linejoin:round;stroke-miterlimit:4;stroke-dasharray:none;stroke-dashoffset:1.08779998;stroke-opacity:1;filter:url(#filter3363)" width="83.5" x="-119" y="69.75"/>
        <path d="M -159.5,68.25 L -39.138259,55.983708 L -93.453327,162.55286 L -197.79465,128.96507 L -159.5,68.25 z " id="path3418" sodipodi:nodetypes="ccccc" style="fill:url(#linearGradient3432);fill-opacity:1;stroke:none;stroke-width:1;stroke-linecap:round;stroke-linejoin:round;stroke-miterlimit:4;stroke-dashoffset:1.08779998;stroke-opacity:1;filter:url(#filter3363)" transform="matrix(0.6393762,0.7688941,-0.7688941,0.6393762,37.597642,128.08723)"/>
        <path d="M -159.5,68.25 L -39.138259,55.983708 L -93.453327,162.55286 L -197.79465,128.96507 L -159.5,68.25 z " id="path3420" sodipodi:nodetypes="ccccc" style="fill:url(#linearGradient3434);fill-opacity:1;stroke:none;stroke-width:1;stroke-linecap:round;stroke-linejoin:round;stroke-miterlimit:4;stroke-dashoffset:1.08779998;stroke-opacity:1;filter:url(#filter3363)" transform="matrix(0.6393762,0.7688941,-0.7688941,0.6393762,37.597642,128.08723)"/>
      </g>
    </mask>
    <linearGradient gradientTransform="translate(-40.5,-1.5)" gradientUnits="userSpaceOnUse" id="linearGradient3434" inkscape:collect="always" x1="-61.802711" x2="-136.51074" xlink:href="#linearGradient3342" y1="99.979607" y2="112.70422"/>
    <linearGradient gradientTransform="translate(-40.5,-1.5)" gradientUnits="userSpaceOnUse" id="linearGradient3432" inkscape:collect="always" x1="-83.593941" x2="-138.0043" xlink:href="#linearGradient3342" y1="137.13324" y2="92.603989"/>
    <linearGradient gradientUnits="userSpaceOnUse" id="linearGradient3430" inkscape:collect="always" x1="-73" x2="-163" xlink:href="#linearGradient3342" y1="105.625" y2="86.125"/>
    <linearGradient gradientUnits="userSpaceOnUse" id="linearGradient3428" inkscape:collect="always" x1="-83.012932" x2="-158.92462" xlink:href="#linearGradient3326" y1="44.753052" y2="72.881729"/>
    <linearGradient gradientUnits="userSpaceOnUse" id="linearGradient3426" inkscape:collect="always" x1="-132.51041" x2="-158.92462" xlink:href="#linearGradient3326" y1="39.803303" y2="72.881729"/>
    <linearGradient gradientUnits="userSpaceOnUse" id="linearGradient3424" inkscape:collect="always" x1="-151.43935" x2="-152.26776" xlink:href="#linearGradient3326" y1="37.68198" y2="57.25"/>
    <radialGradient cx="-112.17241" cy="118.60459" fx="-113.14772" fy="59.708473" gradientTransform="matrix(0.6484284,0.1017206,-3.1257154e-2,0.1992521,-4.56257,53.15916)" gradientUnits="userSpaceOnUse" id="radialGradient3422" inkscape:collect="always" r="59.99512" xlink:href="#linearGradient3825"/>
    <linearGradient gradientTransform="translate(-40.5,-1.5)" gradientUnits="userSpaceOnUse" id="linearGradient3400" inkscape:collect="always" x1="-61.802711" x2="-136.51074" xlink:href="#linearGradient3342" y1="99.979607" y2="112.70422"/>
    <linearGradient gradientTransform="translate(-40.5,-1.5)" gradientUnits="userSpaceOnUse" id="linearGradient3398" inkscape:collect="always" x1="-83.593941" x2="-138.0043" xlink:href="#linearGradient3342" y1="137.13324" y2="92.603989"/>
    <linearGradient gradientUnits="userSpaceOnUse" id="linearGradient3396" inkscape:collect="always" x1="-73" x2="-163" xlink:href="#linearGradient3342" y1="105.625" y2="86.125"/>
    <linearGradient gradientUnits="userSpaceOnUse" id="linearGradient3394" inkscape:collect="always" x1="-83.012932" x2="-158.92462" xlink:href="#linearGradient3326" y1="44.753052" y2="72.881729"/>
    <linearGradient gradientUnits="userSpaceOnUse" id="linearGradient3392" inkscape:collect="always" x1="-132.51041" x2="-158.92462" xlink:href="#linearGradient3326" y1="39.803303" y2="72.881729"/>
    <linearGradient gradientUnits="userSpaceOnUse" id="linearGradient3390" inkscape:collect="always" x1="-151.43935" x2="-152.26776" xlink:href="#linearGradient3326" y1="37.68198" y2="57.25"/>
    <radialGradient cx="-112.17241" cy="118.60459" fx="-113.14772" fy="59.708473" gradientTransform="matrix(0.6484284,0.1017206,-3.1257154e-2,0.1992521,-4.56257,53.15916)" gradientUnits="userSpaceOnUse" id="radialGradient3388" inkscape:collect="always" r="59.99512" xlink:href="#linearGradient3825"/>
    <linearGradient gradientTransform="translate(-40.5,-1.5)" gradientUnits="userSpaceOnUse" id="linearGradient3376" inkscape:collect="always" x1="-61.802711" x2="-136.51074" xlink:href="#linearGradient3342" y1="99.979607" y2="112.70422"/>
    <linearGradient gradientTransform="translate(-40.5,-1.5)" gradientUnits="userSpaceOnUse" id="linearGradient3372" inkscape:collect="always" x1="-83.593941" x2="-138.0043" xlink:href="#linearGradient3342" y1="137.13324" y2="92.603989"/>
    <linearGradient gradientUnits="userSpaceOnUse" id="linearGradient3349" inkscape:collect="always" x1="-73" x2="-163" xlink:href="#linearGradient3342" y1="105.625" y2="86.125"/>
    <linearGradient gradientUnits="userSpaceOnUse" id="linearGradient2367" inkscape:collect="always" x1="-83.012932" x2="-158.92462" xlink:href="#linearGradient3326" y1="44.753052" y2="72.881729"/>
    <linearGradient gradientUnits="userSpaceOnUse" id="linearGradient2365" inkscape:collect="always" x1="-132.51041" x2="-158.92462" xlink:href="#linearGradient3326" y1="39.803303" y2="72.881729"/>
    <linearGradient gradientUnits="userSpaceOnUse" id="linearGradient2363" inkscape:collect="always" x1="-151.43935" x2="-152.26776" xlink:href="#linearGradient3326" y1="37.68198" y2="57.25"/>
    <radialGradient cx="-112.17241" cy="118.60459" fx="-113.14772" fy="59.708473" gradientTransform="matrix(0.6484284,0.1017206,-3.1257154e-2,0.1992521,-4.56257,53.15916)" gradientUnits="userSpaceOnUse" id="radialGradient2361" inkscape:collect="always" r="59.99512" xlink:href="#linearGradient3825"/>
    <linearGradient gradientUnits="userSpaceOnUse" id="linearGradient3771" inkscape:collect="always" spreadMethod="reflect" x1="120.0625" x2="125.30366" xlink:href="#linearGradient3344" y1="12.569496" y2="14.444496"/>
    <radialGradient cx="66.01458" cy="126.69183" fx="66.01458" fy="126.69183" gradientTransform="matrix(0.675025,0,0,0.3583625,19.527377,41.004647)" gradientUnits="userSpaceOnUse" id="radialGradient3757" inkscape:collect="always" r="59.99512" xlink:href="#linearGradient3751"/>
    <radialGradient cx="72.684891" cy="48.228905" fx="74.871155" fy="26.862719" gradientTransform="matrix(0.982366,1.671718e-2,-3.5801148e-3,0.2103843,-18.56344,30.477792)" gradientUnits="userSpaceOnUse" id="radialGradient3744" inkscape:collect="always" r="59.995121" xlink:href="#linearGradient3449"/>
    <filter height="1.2746473" id="filter3738" inkscape:collect="always" width="1.301924" x="-0.15096202" y="-0.13732364">
      <feGaussianBlur id="feGaussianBlur3740" inkscape:collect="always" stdDeviation="0.39257441"/>
    </filter>
    <linearGradient gradientUnits="userSpaceOnUse" id="linearGradient3676" inkscape:collect="always" spreadMethod="reflect" x1="120.0625" x2="125.30366" xlink:href="#linearGradient3260" y1="12.569496" y2="14.444496"/>
    <radialGradient cx="167.67001" cy="80.404922" fx="167.67001" fy="80.404922" gradientTransform="matrix(0.2676699,0.521376,-0.7037472,0.3612977,108.99386,-36.062981)" gradientUnits="userSpaceOnUse" id="radialGradient3658" inkscape:collect="always" r="59.995121" xlink:href="#linearGradient3449"/>
    <radialGradient cx="-10.165252" cy="66.906013" fx="-10.165252" fy="66.906013" gradientTransform="matrix(0.4582893,-2.1035589e-8,4.5903973e-8,1.0000813,20.447953,-5.1974351e-3)" gradientUnits="userSpaceOnUse" id="radialGradient3654" inkscape:collect="always" r="59.995121" xlink:href="#linearGradient3449"/>
    <filter id="filter3639" inkscape:collect="always">
      <feGaussianBlur id="feGaussianBlur3641" inkscape:collect="always" stdDeviation="1.0580524"/>
    </filter>
    <linearGradient gradientTransform="translate(-137,0)" gradientUnits="userSpaceOnUse" id="linearGradient3613" inkscape:collect="always" x1="208.59375" x2="208.59375" xlink:href="#linearGradient3295" y1="130.40625" y2="63.426777"/>
    <linearGradient gradientTransform="translate(4.2161108e-3,1.9705695e-3)" gradientUnits="userSpaceOnUse" id="linearGradient3581" inkscape:collect="always" x1="75.09375" x2="75.09375" xlink:href="#linearGradient3260" y1="4.5317035" y2="80.172485"/>
    <linearGradient gradientUnits="userSpaceOnUse" id="linearGradient3548" inkscape:collect="always" x1="75.09375" x2="75.09375" xlink:href="#linearGradient3295" y1="4.5317035" y2="80.172485"/>
    <radialGradient cx="99.726295" cy="27.418272" fx="64.689766" fy="68.231934" gradientTransform="matrix(0.693735,5.8671246e-2,-3.6242796e-2,0.4285387,33.939389,26.8809)" gradientUnits="userSpaceOnUse" id="radialGradient3535" inkscape:collect="always" r="56" xlink:href="#linearGradient3528"/>
    <radialGradient cx="67.09375" cy="116.90625" fx="67.09375" fy="116.90625" gradientUnits="userSpaceOnUse" id="radialGradient3524" inkscape:collect="always" r="56" xlink:href="#XMLID_4_"/>
    <linearGradient gradientUnits="userSpaceOnUse" id="linearGradient3516" inkscape:collect="always" x1="147.09375" x2="8.083992" xlink:href="#XMLID_4_" y1="33.40625" y2="123.90625"/>
    <linearGradient id="linearGradient3449">
      <stop id="stop3451" offset="0" style="stop-color:#000000;stop-opacity:1;"/>
      <stop id="stop3453" offset="1" style="stop-color:#000000;stop-opacity:0;"/>
    </linearGradient>
    <linearGradient id="linearGradient3344">
      <stop id="stop3346" offset="0" style="stop-color:#fdff63;stop-opacity:1;"/>
      <stop id="stop3348" offset="1" style="stop-color:#ffffff;stop-opacity:0;"/>
    </linearGradient>
    <linearGradient id="linearGradient3260" inkscape:collect="always">
      <stop id="stop3262" offset="0" style="stop-color:#ffffff;stop-opacity:1;"/>
      <stop id="stop3264" offset="1" style="stop-color:#ffffff;stop-opacity:0;"/>
    </linearGradient>
    <radialGradient cx="48" cy="-0.2148" gradientTransform="matrix(0.9792,0,0,0.9725,133.0002,20.8762)" gradientUnits="userSpaceOnUse" id="XMLID_4_" r="55.148">
      <stop id="stop3082" offset="0" style="stop-color:#cfd13d;stop-opacity:1;"/>
      <stop id="stop3090" offset="1" style="stop-color:#db8900;stop-opacity:1;"/>
    </radialGradient>
    <linearGradient id="linearGradient3202">
      <stop id="stop3204" offset="0" style="stop-color:#fcff9c;stop-opacity:1;"/>
      <stop id="stop3206" offset="1" style="stop-color:#c1a965;stop-opacity:0;"/>
    </linearGradient>
    <linearGradient id="linearGradient3295">
      <stop id="stop3297" offset="0" style="stop-color:#fffe63;stop-opacity:1;"/>
      <stop id="stop3299" offset="1" style="stop-color:#ffffff;stop-opacity:0;"/>
    </linearGradient>
    <linearGradient id="linearGradient3528">
      <stop id="stop3530" offset="0" style="stop-color:#eaf209;stop-opacity:1;"/>
      <stop id="stop3532" offset="1" style="stop-color:#c7c634;stop-opacity:0;"/>
    </linearGradient>
    <linearGradient id="linearGradient3751">
      <stop id="stop3753" offset="0" style="stop-color:#beba2c;stop-opacity:1;"/>
      <stop id="stop3755" offset="1" style="stop-color:#b6be2c;stop-opacity:0;"/>
    </linearGradient>
    <linearGradient id="linearGradient3825">
      <stop id="stop3827" offset="0" style="stop-color:#ffffff;stop-opacity:0;"/>
      <stop id="stop3833" offset="0.5" style="stop-color:#ffffff;stop-opacity:0.18705036;"/>
      <stop id="stop3829" offset="1" style="stop-color:#ffffff;stop-opacity:1;"/>
    </linearGradient>
    <linearGradient id="linearGradient3326" inkscape:collect="always">
      <stop id="stop3328" offset="0" style="stop-color:#000000;stop-opacity:1;"/>
      <stop id="stop3330" offset="1" style="stop-color:#000000;stop-opacity:0;"/>
    </linearGradient>
    <linearGradient id="linearGradient3342" inkscape:collect="always">
      <stop id="stop3344" offset="0" style="stop-color:#000000;stop-opacity:1;"/>
      <stop id="stop3347" offset="1" style="stop-color:#000000;stop-opacity:0;"/>
    </linearGradient>
    <radialGradient cx="102" cy="112.3047" gradientTransform="matrix(0,-1,1,0,-42.44328,122.63874)" gradientUnits="userSpaceOnUse" id="radialGradient2474" inkscape:collect="always" r="139.5585" xlink:href="#XMLID_7_"/>
    <radialGradient cx="102" cy="112.3047" gradientTransform="translate(2.4e-6,0)" gradientUnits="userSpaceOnUse" id="radialGradient2476" inkscape:collect="always" r="139.5585" xlink:href="#XMLID_7_"/>
    <clipPath clipPathUnits="userSpaceOnUse" id="clipPath2479">
      <path d="M 21.167372,-21.706268 L 21.167372,-18.904898 L -32.654553,-18.904898 L -32.654553,83.545174 L 21.167372,83.545174 L 21.167372,97.818817 L 86.460636,97.818817 C 87.026197,97.818817 87.561085,97.585369 87.961248,97.185174 L 122.97551,62.168059 C 123.37567,61.767865 123.6091,61.232935 123.6091,60.667326 L 123.6091,-21.706268 L 21.167372,-21.706268 z " id="path2481" style="fill:url(#radialGradient2483)"/>
    </clipPath>
    <radialGradient cx="102" cy="112.3047" gradientTransform="matrix(1.0671014,0,0,1.0671883,4.0937526,-30.243774)" gradientUnits="userSpaceOnUse" id="radialGradient2483" inkscape:collect="always" r="139.5585" xlink:href="#XMLID_7_"/>
  </defs>
  <sodipodi:namedview bordercolor="#666666" borderopacity="1.0" gridempspacing="2" gridspacingx="4px" gridspacingy="4px" gridtolerance="10.0" guidetolerance="10.0" id="base" inkscape:current-layer="Layer_1" inkscape:cx="64" inkscape:cy="64" inkscape:guide-bbox="true" inkscape:pageopacity="0.0" inkscape:pageshadow="2" inkscape:window-height="670" inkscape:window-width="748" inkscape:window-x="0" inkscape:window-y="62" inkscape:zoom="0.25" objecttolerance="10.0" pagecolor="#ffffff" showborder="false" showgrid="false" showguides="true"/>
  <radialGradient cx="102" cy="112.3047" gradientUnits="userSpaceOnUse" id="XMLID_7_" r="139.5585">
    <stop id="stop16" offset="0" style="stop-color:#00537D"/>
    <stop id="stop18" offset="0.0151" style="stop-color:#186389"/>
    <stop id="stop20" offset="0.0558" style="stop-color:#558CA8"/>
    <stop id="stop22" offset="0.0964" style="stop-color:#89AFC3"/>
    <stop id="stop24" offset="0.1357" style="stop-color:#B3CCD8"/>
    <stop id="stop26" offset="0.1737" style="stop-color:#D4E2E9"/>
    <stop id="stop28" offset="0.2099" style="stop-color:#ECF2F5"/>
    <stop id="stop30" offset="0.2435" style="stop-color:#FAFCFD"/>
    <stop id="stop32" offset="0.2722" style="stop-color:#FFFFFF"/>
  </radialGradient>
  <radialGradient cx="102" cy="112.3047" gradientUnits="userSpaceOnUse" id="XMLID_8_" r="139.55859">
    <stop id="stop37" offset="0" style="stop-color:#535557"/>
    <stop id="stop41" offset="0.11366145" style="stop-color:#898A8C"/>
    <stop id="stop47" offset="0.20296688" style="stop-color:#ECECEC"/>
    <stop id="stop49" offset="0.2363" style="stop-color:#FAFAFA"/>
    <stop id="stop51" offset="0.2722" style="stop-color:#FFFFFF"/>
    <stop id="stop53" offset="0.5313" style="stop-color:#FAFAFA"/>
    <stop id="stop55" offset="0.8449" style="stop-color:#EBECEC"/>
    <stop id="stop57" offset="1" style="stop-color:#E1E2E3"/>
  </radialGradient>
  <linearGradient gradientUnits="userSpaceOnUse" id="XMLID_9_" x1="94.3438" x2="86.5356" y1="102.3447" y2="94.5366">
    <stop id="stop62" offset="0" style="stop-color:#FFFFFF"/>
    <stop id="stop64" offset="1" style="stop-color:#555753"/>
  </linearGradient>
  <linearGradient gradientUnits="userSpaceOnUse" id="XMLID_10_" x1="95" x2="86.5865" y1="103" y2="94.5865">
    <stop id="stop69" offset="0" style="stop-color:#FFFFFF"/>
    <stop id="stop71" offset="1" style="stop-color:#555753"/>
  </linearGradient>
  <linearGradient gradientUnits="userSpaceOnUse" id="XMLID_11_" x1="95" x2="87.293" y1="103" y2="95.293">
    <stop id="stop76" offset="0" style="stop-color:#FFFFFF"/>
    <stop id="stop78" offset="1" style="stop-color:#393B38"/>
  </linearGradient>
  <linearGradient gradientUnits="userSpaceOnUse" id="XMLID_12_" x1="96" x2="88.0002" y1="104" y2="96.0002">
    <stop id="stop83" offset="0" style="stop-color:#888A85"/>
    <stop id="stop85" offset="0.0072" style="stop-color:#8C8E89"/>
    <stop id="stop87" offset="0.0673" style="stop-color:#ABACA9"/>
    <stop id="stop89" offset="0.1347" style="stop-color:#C5C6C4"/>
    <stop id="stop91" offset="0.2115" style="stop-color:#DBDBDA"/>
    <stop id="stop93" offset="0.3012" style="stop-color:#EBEBEB"/>
    <stop id="stop95" offset="0.4122" style="stop-color:#F7F7F6"/>
    <stop id="stop97" offset="0.5679" style="stop-color:#FDFDFD"/>
    <stop id="stop99" offset="1" style="stop-color:#FFFFFF"/>
  </linearGradient>
  <path d="M 23,9 L 23.040816,121 L 84.172,121 C 84.702,121 85.211,120.789 85.586,120.414 L 118.414,87.586 C 118.789,87.211 119,86.702 119,86.172 L 119,9 L 23,9 z " id="path6594" sodipodi:nodetypes="cccccccc" style="opacity:0.5;fill:#000000;fill-opacity:1;filter:url(#filter3241)" transform="matrix(1.0416667,0,0,1.0357143,-9.9583333,-3.3215342)"/>
  <path d="M 16.000002,8 L 16.000002,120 L 77.172002,120 C 77.702002,120 78.211002,119.789 78.586002,119.414 L 111.414,86.586 C 111.789,86.211 112,85.702 112,85.172 L 112,8 L 16.000002,8 z " id="path34" sodipodi:nodetypes="cccccccc" style="fill:url(#radialGradient2275)"/>
  <path d="M 18.978725,10 C 18.439449,10 18.000002,10.440836 18.000002,10.981818 L 18.000002,117.01818 C 18.000002,117.56015 18.439449,118 18.978725,118 L 76.891747,118 C 77.149151,118 77.401662,117.89593 77.583704,117.71233 L 109.71323,85.4812 C 109.89626,85.2976 110,85.045273 110,84.787055 L 110,10.981818 C 110,10.440836 109.56153,10 109.02128,10 L 18.978725,10 z " id="path59" style="fill:url(#radialGradient2272);fill-opacity:1"/>
  <g clip-path="url(#clipPath2479)" id="layer1" inkscape:label="Livello 1" transform="matrix(0.9371181,0,0,0.9370418,-3.8363273,28.33968)">
    <g id="g3835" mask="url(#mask3402)" transform="matrix(-1,0,0,1,128.17774,0)">
      <path d="M 64.09375,3.90625 C 30.968558,3.9062499 4.0937499,30.781055 4.09375,63.90625 C 4.0937501,97.031442 30.96856,123.90625 64.09375,123.90625 C 94.382866,123.90625 119.43036,101.68999 123.5,72.5625 L 88.46875,67.53125 C 86.844066,79.492379 76.538676,88.5 64.09375,88.5 C 50.522122,88.499999 39.5,77.477881 39.5,63.90625 C 39.500001,50.334616 50.522119,39.3125 64.09375,39.3125 C 70.879568,39.312499 77.015044,42.077544 81.46875,46.53125 L 71.141571,56.858429 C 69.085701,58.914299 68.897846,60.164209 69.461963,61.473958 C 69.970531,62.654737 70.982695,64 73.671688,64 L 117.625,64 C 121.47089,64 124.08399,61.345621 124.08399,57.749869 L 124.01512,13.671851 C 124.01512,11.191096 123.11261,9.8286218 121.83365,9.3222363 C 120.51933,8.8018514 118.80044,9.1995576 116.72656,11.273436 L 106.53125,21.46875 C 95.671902,10.609399 80.656349,3.90625 64.09375,3.90625 z " id="rect3204" sodipodi:nodetypes="cssccsssccsccccsccc" style="opacity:1;fill:url(#linearGradient3516);fill-opacity:1;stroke:none;stroke-width:2;stroke-linecap:round;stroke-linejoin:round;stroke-miterlimit:4;stroke-dashoffset:1.08779998;stroke-opacity:1"/>
      <path d="M 64.09375,3.90625 C 30.968558,3.9062499 4.0937499,30.781055 4.09375,63.90625 C 4.0937501,97.031442 30.96856,123.90625 64.09375,123.90625 C 94.382866,123.90625 119.43036,101.68999 123.5,72.5625 L 88.46875,67.53125 C 86.844066,79.492379 76.538676,88.5 64.09375,88.5 C 50.522122,88.499999 39.5,77.477881 39.5,63.90625 C 39.500001,50.334616 50.522119,39.3125 64.09375,39.3125 C 70.879568,39.312499 77.015044,42.077544 81.46875,46.53125 L 71.141571,56.858429 C 69.085701,58.914299 68.897846,60.164209 69.461963,61.473958 C 69.970531,62.654737 70.982695,64 73.671688,64 L 117.625,64 C 121.47089,64 124.08399,61.345621 124.08399,57.749869 L 124.01512,13.671851 C 124.01512,11.191096 123.11261,9.8286218 121.83365,9.3222363 C 120.51933,8.8018514 118.80044,9.1995576 116.72656,11.273436 L 106.53125,21.46875 C 95.671902,10.609399 80.656349,3.90625 64.09375,3.90625 z " id="path3749" sodipodi:nodetypes="cssccsssccsccccsccc" style="opacity:0.79775277;fill:url(#radialGradient3757);fill-opacity:1;stroke:none;stroke-width:2;stroke-linecap:round;stroke-linejoin:round;stroke-miterlimit:4;stroke-dashoffset:1.08779998;stroke-opacity:1"/>
      <path d="M 64.09375,3.90625 C 30.968558,3.9062499 4.0937499,30.781055 4.09375,63.90625 C 4.0937501,97.031442 30.96856,123.90625 64.09375,123.90625 C 94.382866,123.90625 119.43036,101.68999 123.5,72.5625 L 88.46875,67.53125 C 86.844066,79.492379 76.538676,88.5 64.09375,88.5 C 50.522122,88.499999 39.5,77.477881 39.5,63.90625 C 39.500001,50.334616 50.522119,39.3125 64.09375,39.3125 C 70.879568,39.312499 77.015044,42.077544 81.46875,46.53125 L 71.141571,56.858429 C 69.085701,58.914299 68.897846,60.164209 69.461963,61.473958 C 69.970531,62.654737 70.982695,64 73.671688,64 L 117.625,64 C 121.47089,64 124.08399,61.345621 124.08399,57.749869 L 124.01512,13.671851 C 124.01512,11.191096 123.11261,9.8286218 121.83365,9.3222363 C 120.51933,8.8018514 118.80044,9.1995576 116.72656,11.273436 L 106.53125,21.46875 C 95.671902,10.609399 80.656349,3.90625 64.09375,3.90625 z " id="path3656" sodipodi:nodetypes="cssccsssccsccccsccc" style="opacity:0.68913861;fill:url(#radialGradient3658);fill-opacity:1;stroke:none;stroke-width:2;stroke-linecap:round;stroke-linejoin:round;stroke-miterlimit:4;stroke-dashoffset:1.08779998;stroke-opacity:1"/>
      <path d="M 64.09375,3.90625 C 30.968558,3.9062499 4.0937499,30.781055 4.09375,63.90625 C 4.0937501,97.031442 30.96856,123.90625 64.09375,123.90625 C 94.382866,123.90625 119.43036,101.68999 123.5,72.5625 L 88.46875,67.53125 C 86.844066,79.492379 76.538676,88.5 64.09375,88.5 C 50.522122,88.499999 39.5,77.477881 39.5,63.90625 C 39.500001,50.334616 50.522119,39.3125 64.09375,39.3125 C 70.879568,39.312499 77.015044,42.077544 81.46875,46.53125 L 71.141571,56.858429 C 69.085701,58.914299 68.897846,60.164209 69.461963,61.473958 C 69.970531,62.654737 70.982695,64 73.671688,64 L 117.625,64 C 121.47089,64 124.08399,61.345621 124.08399,57.749869 L 124.01512,13.671851 C 124.01512,11.191096 123.11261,9.8286218 121.83365,9.3222363 C 120.51933,8.8018514 118.80044,9.1995576 116.72656,11.273436 L 106.53125,21.46875 C 95.671902,10.609399 80.656349,3.90625 64.09375,3.90625 z " id="path3643" sodipodi:nodetypes="cssccsssccsccccsccc" style="opacity:1;fill:url(#radialGradient3654);fill-opacity:1;stroke:none;stroke-width:2;stroke-linecap:round;stroke-linejoin:round;stroke-miterlimit:4;stroke-dashoffset:1.08779998;stroke-opacity:1"/>
      <path d="M 64.09375,3.90625 C 30.968558,3.9062499 4.0937499,30.781055 4.09375,63.90625 C 4.0937501,97.031442 30.96856,123.90625 64.09375,123.90625 C 94.382866,123.90625 119.43036,101.68999 123.5,72.5625 L 88.46875,67.53125 C 86.844066,79.492379 76.538676,88.5 64.09375,88.5 C 50.522122,88.499999 39.5,77.477881 39.5,63.90625 C 39.500001,50.334616 50.522119,39.3125 64.09375,39.3125 C 70.879568,39.312499 77.015044,42.077544 81.46875,46.53125 L 71.141571,56.858429 C 69.085701,58.914299 68.897846,60.164209 69.461963,61.473958 C 69.970531,62.654737 70.982695,64 73.671688,64 L 117.625,64 C 121.47089,64 124.08399,61.345621 124.08399,57.749869 L 124.01512,13.671851 C 124.01512,11.191096 123.11261,9.8286218 121.83365,9.3222363 C 120.51933,8.8018514 118.80044,9.1995576 116.72656,11.273436 L 106.53125,21.46875 C 95.671902,10.609399 80.656349,3.90625 64.09375,3.90625 z " id="path3742" sodipodi:nodetypes="cssccsssccsccccsccc" style="opacity:0.79775277;fill:url(#radialGradient3744);fill-opacity:1;stroke:none;stroke-width:2;stroke-linecap:round;stroke-linejoin:round;stroke-miterlimit:4;stroke-dashoffset:1.08779998;stroke-opacity:1"/>
      <path d="M 64.09375,4.20625 C 30.968558,4.2062499 4.0937499,30.781055 4.09375,63.90625 C 4.0937501,97.031442 30.96856,123.90625 64.09375,123.90625 C 94.382866,123.90625 119.43036,101.68999 123.5,72.5625 L 88.46875,67.53125 C 86.844066,79.492379 76.538676,88.5 64.09375,88.5 C 50.522122,88.499999 39.5,77.477881 39.5,63.90625 C 39.500001,50.334616 50.522119,39.3125 64.09375,39.3125 C 70.879568,39.312499 77.015044,42.077544 81.46875,46.53125 L 71.141571,56.858429 C 69.085701,58.914299 68.897846,60.164209 69.461963,61.473958 C 69.970531,62.654737 70.982695,64 73.671688,64 L 117.625,64 C 121.47089,64 124.08399,61.345621 124.08399,57.749869 L 124.01512,13.671851 C 124.01512,11.191096 123.11261,9.8286218 121.83365,9.3222363 C 120.51933,8.8018514 118.80044,9.1995576 116.72656,11.273436 L 106.53125,21.46875 C 95.671902,10.609399 80.656349,4.20625 64.09375,4.20625 z " id="path3759" sodipodi:nodetypes="cssccsssccsccccsccc" style="opacity:0.74531836;fill:#75511a;fill-opacity:1;stroke:none;stroke-width:2;stroke-linecap:round;stroke-linejoin:round;stroke-miterlimit:4;stroke-dashoffset:1.08779998;stroke-opacity:1;"/>
      <path d="M 117.6875,10.75 L 118.625,15.125 L 119.875,16 L 123.875,13.375 C 124.12188,11.651249 123.52383,10.027571 121.9375,9.3749999 C 120.35116,8.7224285 118.77622,9.5017032 117.6875,10.75 z " id="path3660" sodipodi:nodetypes="cccczc" style="opacity:0.82022472;fill:url(#linearGradient3676);fill-opacity:1;fill-rule:evenodd;stroke:none;stroke-width:1px;stroke-linecap:butt;stroke-linejoin:miter;stroke-opacity:1;filter:url(#filter3738)"/>
      <path d="M 117.6875,10.75 L 119.875,13.875 L 120.375,13.75 L 123.875,13.375 C 124.12188,11.651249 123.52383,10.027571 121.9375,9.3749999 C 120.35116,8.7224285 118.77622,9.5017032 117.6875,10.75 z " id="path3769" sodipodi:nodetypes="cccczc" style="opacity:0.82022472;fill:url(#linearGradient3771);fill-opacity:1;fill-rule:evenodd;stroke:none;stroke-width:1px;stroke-linecap:butt;stroke-linejoin:miter;stroke-opacity:1;filter:url(#filter3738)" transform="matrix(0,1,1,0,60.363582,-60.363586)"/>
      <path d="M 64.09375,7.90625 C 33.132052,7.9062499 8.0937499,32.944549 8.09375,63.90625 C 8.0937501,94.867948 33.132054,119.90625 64.09375,119.90625 C 91.026646,119.90625 113.21548,101.0995 118.625,75.90625 L 91.5,72.03125 C 88.061436,83.928551 77.059621,92.5 64.09375,92.5 C 48.356404,92.499999 35.5,79.643599 35.5,63.90625 C 35.500001,48.168899 48.356402,35.3125 64.09375,35.3125 C 71.966166,35.312499 79.145304,38.520304 84.3125,43.6875 C 85.071964,44.438909 85.499997,45.462886 85.5,46.53125 C 85.5,47.599614 85.071964,48.623591 84.3125,49.375 L 73.6875,60 L 117.625,60 C 119.63039,60 120.09375,59.407836 120.09375,57.75 L 120,13.65625 L 109.375,24.3125 C 108.62359,25.071964 107.59961,25.5 106.53125,25.5 C 105.46289,25.5 104.43891,25.071964 103.6875,24.3125 C 93.549835,14.174833 79.577106,7.90625 64.09375,7.90625 z " id="path3494" style="opacity:1;fill:url(#radialGradient3524);fill-opacity:1;stroke:none;stroke-width:4;stroke-linecap:round;stroke-linejoin:round;stroke-miterlimit:4;stroke-dasharray:none;stroke-dashoffset:1.08779998;stroke-opacity:1"/>
      <path d="M 64.09375,7.90625 C 33.132052,7.9062499 8.0937499,32.944549 8.09375,63.90625 C 8.0937501,94.867948 33.132054,119.90625 64.09375,119.90625 C 91.026646,119.90625 113.21548,101.0995 118.625,75.90625 L 91.5,72.03125 C 88.061436,83.928551 77.059621,92.5 64.09375,92.5 C 48.356404,92.499999 35.5,79.643599 35.5,63.90625 C 35.500001,48.168899 48.356402,35.3125 64.09375,35.3125 C 71.966166,35.312499 79.145304,38.520304 84.3125,43.6875 C 85.071964,44.438909 85.499997,45.462886 85.5,46.53125 C 85.5,47.599614 85.071964,48.623591 84.3125,49.375 L 73.6875,60 L 117.625,60 C 119.63039,60 120.09375,59.407836 120.09375,57.75 L 120,13.65625 L 109.375,24.3125 C 108.62359,25.071964 107.59961,25.5 106.53125,25.5 C 105.46289,25.5 104.43891,25.071964 103.6875,24.3125 C 93.549835,14.174833 79.577106,7.90625 64.09375,7.90625 z " id="path3526" style="opacity:1;fill:url(#radialGradient3535);fill-opacity:1;stroke:none;stroke-width:4;stroke-linecap:round;stroke-linejoin:round;stroke-miterlimit:4;stroke-dasharray:none;stroke-dashoffset:1.08779998;stroke-opacity:1"/>
      <path d="M 64.09375,7.90625 C 33.132052,7.9062499 8.0937499,32.944549 8.09375,63.90625 C 8.09375,64.474122 8.1082724,65.029981 8.125,65.59375 C 14.11447,66.271402 20.266218,66.74388 26.53125,67 C 26.260548,56.540958 30.202859,46.025084 38.34375,38.21875 C 53.683067,23.509813 78.072313,24.004431 92.78125,39.34375 C 95.545099,42.226046 97.537852,45.032117 99.34375,48.59375 L 78.84375,59 L 98,59 C 105.9282,56.973373 113.18621,55.563033 120.09375,52.8125 L 120,13.65625 L 109.375,24.3125 C 108.62359,25.071964 107.59961,25.5 106.53125,25.5 C 105.46289,25.5 104.43891,25.071964 103.6875,24.3125 C 93.549835,14.174833 79.577106,7.90625 64.09375,7.90625 z " id="path3537" sodipodi:nodetypes="csccssccccccscc" style="opacity:1;fill:url(#linearGradient3548);fill-opacity:1;stroke:none;stroke-width:8;stroke-linecap:round;stroke-linejoin:round;stroke-miterlimit:4;stroke-dasharray:none;stroke-dashoffset:1.08779998;stroke-opacity:1"/>
      <path d="M 64.099866,7.9087646 C 33.138176,7.9087644 8.0998661,32.947063 8.0998661,63.908764 C 8.0998761,64.087476 8.0973761,64.263059 8.0998661,64.440014 C 8.3531061,33.696509 33.295846,8.9087645 64.099866,8.9087646 C 79.583236,8.9087645 93.555946,15.177347 103.69361,25.315014 C 104.44503,26.074479 105.469,26.502514 106.53736,26.502514 C 107.60573,26.502515 108.6297,26.074478 109.38111,25.315014 L 119.50611,15.158764 L 119.99986,52.708764 C 113.09232,55.459294 105.43431,56.569624 97.506116,58.596264 L 78.849866,59.002514 L 98.006116,59.002514 C 105.93431,56.975884 113.19232,55.565544 120.09986,52.815014 L 120.00611,14.658764 L 120.00611,13.658764 L 119.50611,14.158764 L 109.38111,24.315014 C 108.62971,25.074479 107.60572,25.502514 106.53736,25.502514 C 105.46901,25.502515 104.44502,25.074478 103.69361,24.315014 C 103.68314,24.304548 103.67283,24.294222 103.66236,24.283764 C 103.60999,24.231473 103.55869,24.179598 103.50611,24.127514 C 102.93231,23.559643 102.35524,23.012364 101.75611,22.471264 C 101.67459,22.397145 101.58807,22.326157 101.50611,22.252514 C 91.590066,13.342335 78.496526,7.9087646 64.099866,7.9087646 z M 63.443616,27.127514 C 54.205446,27.378034 45.040176,30.920194 37.849866,37.815014 C 30.217786,45.133448 26.722316,55.187931 26.537366,65.033764 C 26.777246,55.231884 30.717786,45.539698 38.349866,38.221264 C 51.665996,25.452364 71.803196,24.123207 86.506116,34.033764 C 79.627056,29.22869 71.518656,26.908534 63.443616,27.127514 z " id="path3553" sodipodi:nodetypes="cscscscccccccccccssssssccscscc" style="opacity:1;fill:url(#linearGradient3581);fill-opacity:1;stroke:none;stroke-width:8;stroke-linecap:round;stroke-linejoin:round;stroke-miterlimit:4;stroke-dasharray:none;stroke-dashoffset:1.08779998;stroke-opacity:1"/>
      <path d="M 63.59375,7.90625 C 32.63205,7.9062499 7.59375,32.944549 7.59375,63.90625 C 7.59375,94.867948 32.63205,119.90625 63.59375,119.90625 C 90.52665,119.90625 112.71548,101.0995 118.125,75.90625 L 91,72.03125 C 87.56144,83.928551 76.55962,92.5 63.59375,92.5 C 47.8564,92.499999 35,79.643599 35,63.90625 C 35,48.168899 47.8564,35.3125 63.59375,35.3125 C 71.46617,35.312499 78.6453,38.520304 83.8125,43.6875 C 84.57196,44.438909 85,45.462886 85,46.53125 C 85,47.599614 84.57196,48.623591 83.8125,49.375 L 73.1875,60 L 117.125,60 C 119.13039,60 119.59375,59.407836 119.59375,57.75 L 119.5,13.65625 L 108.875,24.3125 C 108.12359,25.071964 107.09961,25.5 106.03125,25.5 C 104.96289,25.5 103.93891,25.071964 103.1875,24.3125 C 93.04984,14.174833 79.07711,7.90625 63.59375,7.90625 z " id="path3603" style="opacity:1;fill:none;fill-opacity:1;stroke:url(#linearGradient3567);stroke-width:1.06714475;stroke-linecap:round;stroke-linejoin:round;stroke-miterlimit:4;stroke-dasharray:none;stroke-dashoffset:1.08779998;stroke-opacity:1;filter:url(#filter3639)"/>
    </g>
  </g>
  <g id="g1973" transform="translate(2.4e-6,0)">
    <path d="M 111.414,86.586 C 111.664,86.336 93.035,93 88,93 C 86.346,93 85,94.346 85,96 C 85,101.035 78.336,119.664 78.586,119.414 L 111.414,86.586 z " id="path66" style="opacity:0.1;fill:url(#linearGradient2291)"/>
    <path d="M 111.414,86.586 C 111.789,86.211 97.444,94 88,94 C 86.897,94 86,94.897 86,96 C 86,105.444 78.211,119.789 78.586,119.414 L 111.414,86.586 z " id="path73" style="opacity:0.1;fill:url(#linearGradient2293)"/>
    <path d="M 111.414,86.586 C 111.653,86.347 97.807,95 88,95 C 87.447,95 87,95.447 87,96 C 87,105.807 78.347,119.653 78.586,119.414 L 111.414,86.586 z " id="path80" style="opacity:0.1;fill:url(#linearGradient2295)"/>
    <path d="M 78.586,119.414 C 78.586,119.414 90.5,109.5 96,104 C 101.5,98.5 111.414,86.586 111.414,86.586 C 111.414,86.586 98.25,96 88,96 C 88,106.25 78.586,119.414 78.586,119.414 z " id="path101" style="fill:url(#linearGradient2297)"/>
  </g>
</svg>
