<?xml version="1.0" encoding="UTF-8" standalone="no"?>
<!-- Created with Inkscape (http://www.inkscape.org/) --><svg height="128" id="svg2936" inkscape:output_extension="org.inkscape.output.svgz.inkscape" inkscape:version="0.45+devel" sodipodi:docname="edit-add.svgz" sodipodi:version="0.32" version="1.0" width="128" xmlns="http://www.w3.org/2000/svg" xmlns:cc="http://web.resource.org/cc/" xmlns:dc="http://purl.org/dc/elements/1.1/" xmlns:inkscape="http://www.inkscape.org/namespaces/inkscape" xmlns:rdf="http://www.w3.org/1999/02/22-rdf-syntax-ns#" xmlns:sodipodi="http://sodipodi.sourceforge.net/DTD/sodipodi-0.dtd" xmlns:svg="http://www.w3.org/2000/svg" xmlns:xlink="http://www.w3.org/1999/xlink">
  <metadata>
    <rdf:RDF xmlns:cc="http://web.resource.org/cc/" xmlns:dc="http://purl.org/dc/elements/1.1/" xmlns:rdf="http://www.w3.org/1999/02/22-rdf-syntax-ns#">
      <cc:Work rdf:about="">
        <dc:title></dc:title>
        <dc:description></dc:description>
        <dc:subject>
          <rdf:Bag>
            <rdf:li>unsorted</rdf:li>
          </rdf:Bag>
        </dc:subject>
        <dc:publisher>
          <cc:Agent rdf:about="http://www.openclipart.org/">
            <dc:title>Open Clip Art Library, Source: Oxygen Icons, Source: Oxygen Icons, Source: Oxygen Icons, Source: Oxygen Icons</dc:title>
          </cc:Agent>
        </dc:publisher>
        <dc:creator>
          <cc:Agent>
            <dc:title></dc:title>
          </cc:Agent>
        </dc:creator>
        <dc:rights>
          <cc:Agent>
            <dc:title></dc:title>
          </cc:Agent>
        </dc:rights>
        <dc:date></dc:date>
        <dc:format>image/svg+xml</dc:format>
        <dc:type rdf:resource="http://purl.org/dc/dcmitype/StillImage"/>
        <cc:license rdf:resource="http://creativecommons.org/licenses/by-sa/3.0/ or http://creativecommons.org/licenses/LGPL/2.1/"/>
        <dc:language>en</dc:language>
      </cc:Work>
    </rdf:RDF>
  </metadata>
  <defs id="defs2938">
    <linearGradient gradientTransform="matrix(2.4999996,0,0,2.4999996,174,-145.99998)" gradientUnits="userSpaceOnUse" id="linearGradient4284" inkscape:collect="always" x1="-13.757333" x2="-62.424866" xlink:href="#XMLID_4_" y1="76.708466" y2="104.80668"/>
    <linearGradient gradientUnits="userSpaceOnUse" id="linearGradient4299" inkscape:collect="always" spreadMethod="reflect" x1="73.742638" x2="80" xlink:href="#linearGradient3260" y1="15.336544" y2="19.281664"/>
    <linearGradient gradientUnits="userSpaceOnUse" id="linearGradient4297" inkscape:collect="always" spreadMethod="reflect" x1="73.742638" x2="80" xlink:href="#linearGradient3260" y1="15.336544" y2="19.281664"/>
    <linearGradient id="linearGradient3207">
      <stop id="stop3209" offset="0" style="stop-color:#ffffff;stop-opacity:1;"/>
      <stop id="stop3211" offset="1" style="stop-color:#252525;stop-opacity:0;"/>
    </linearGradient>
    <linearGradient gradientUnits="userSpaceOnUse" id="linearGradient5412" x1="28" x2="28" y1="57.5" y2="0">
      <stop id="stop5414" offset="0" style="stop-color:#fff14d;stop-opacity:1;"/>
      <stop id="stop5416" offset="1" style="stop-color:#f8ffa0;stop-opacity:0;"/>
    </linearGradient>
    <linearGradient gradientUnits="userSpaceOnUse" id="linearGradient4291" inkscape:collect="always" spreadMethod="reflect" x1="73.742638" x2="80" xlink:href="#linearGradient3260" y1="15.336544" y2="19.281664"/>
    <linearGradient id="linearGradient3030" inkscape:collect="always">
      <stop id="stop3032" offset="0" style="stop-color:#000000;stop-opacity:0.77902622"/>
      <stop id="stop3034" offset="1" style="stop-color:#000000;stop-opacity:0;"/>
    </linearGradient>
    <radialGradient cx="-44" cy="84" fx="-60" fy="100" gradientTransform="matrix(2.4999996,0,0,2.4999996,174,-145.99998)" gradientUnits="userSpaceOnUse" id="radialGradient4275" inkscape:collect="always" r="24" xlink:href="#linearGradient3030"/>
    <filter height="1.249912" id="filter3387" inkscape:collect="always" width="1.2041403" x="-0.10207015" y="-0.12495601">
      <feGaussianBlur id="feGaussianBlur3389" inkscape:collect="always" stdDeviation="0.44655691"/>
    </filter>
    <linearGradient gradientUnits="userSpaceOnUse" id="linearGradient4289" inkscape:collect="always" spreadMethod="reflect" x1="73.742638" x2="80" xlink:href="#linearGradient3260" y1="15.336544" y2="19.281664"/>
    <radialGradient cx="48" cy="-0.2148" gradientTransform="matrix(0.9792,0,0,0.9725,133.0002,20.8762)" gradientUnits="userSpaceOnUse" id="XMLID_4_" r="55.148">
      <stop id="stop3082" offset="0" style="stop-color:#72D13D"/>
      <stop id="stop3084" offset="0.3553" style="stop-color:#35AC1C"/>
      <stop id="stop3086" offset="0.6194" style="stop-color:#0F9508"/>
      <stop id="stop3088" offset="0.7574" style="stop-color:#008C00"/>
      <stop id="stop3090" offset="1" style="stop-color:#007A00"/>
    </radialGradient>
    <radialGradient cx="-44" cy="84" fx="-40" fy="96" gradientTransform="matrix(2.4999996,0,0,2.4999996,174,-145.99998)" gradientUnits="userSpaceOnUse" id="radialGradient4271" inkscape:collect="always" r="20" xlink:href="#XMLID_4_"/>
    <linearGradient id="linearGradient3202">
      <stop id="stop3204" offset="0" style="stop-color:#cbff9c;stop-opacity:1;"/>
      <stop id="stop3206" offset="1" style="stop-color:#65c171;stop-opacity:0"/>
    </linearGradient>
    <linearGradient gradientTransform="matrix(2.4999996,0,0,2.4999996,17.28126,-145.99998)" gradientUnits="userSpaceOnUse" id="linearGradient4268" inkscape:collect="always" x1="11.68106" x2="11.68106" xlink:href="#linearGradient3202" y1="60.539303" y2="108.0104"/>
    <linearGradient gradientTransform="matrix(2.4999996,0,0,2.4999996,17.25592,-145.99998)" gradientUnits="userSpaceOnUse" id="linearGradient4265" inkscape:collect="always" x1="6.6976352" x2="11.68106" xlink:href="#linearGradient3260" y1="52" y2="96.001434"/>
    <linearGradient id="linearGradient3260" inkscape:collect="always">
      <stop id="stop3262" offset="0" style="stop-color:#ffffff;stop-opacity:1;"/>
      <stop id="stop3264" offset="1" style="stop-color:#ffffff;stop-opacity:0;"/>
    </linearGradient>
    <linearGradient gradientTransform="matrix(2.4999996,0,0,2.4999996,17.25592,-145.99998)" gradientUnits="userSpaceOnUse" id="linearGradient4262" inkscape:collect="always" x1="26.697636" x2="14.697635" xlink:href="#linearGradient3260" y1="96" y2="72"/>
    <filter id="filter3191" inkscape:collect="always">
      <feGaussianBlur id="feGaussianBlur3193" inkscape:collect="always" stdDeviation="0.2025"/>
    </filter>
    <linearGradient id="linearGradient3225">
      <stop id="stop3227" offset="0" style="stop-color:#ffffff;stop-opacity:1;"/>
      <stop id="stop3229" offset="1" style="stop-color:#ffffff;stop-opacity:0;"/>
    </linearGradient>
    <linearGradient gradientTransform="translate(-36.000006,-20.000008)" gradientUnits="userSpaceOnUse" id="linearGradient4259" inkscape:collect="always" x1="97.622581" x2="98.097946" xlink:href="#linearGradient3225" y1="77.512512" y2="105.10625"/>
    <linearGradient gradientUnits="userSpaceOnUse" id="linearGradient3003" inkscape:collect="always" spreadMethod="reflect" x1="73.742638" x2="80" xlink:href="#linearGradient5412" y1="15.336544" y2="19.281664"/>
    <linearGradient gradientTransform="scale(1.039383,0.9621093)" gradientUnits="userSpaceOnUse" id="linearGradient3005" inkscape:collect="always" x1="64.341991" x2="76.284438" xlink:href="#linearGradient3207" y1="18.50366" y2="18.50366"/>
  </defs>
  <sodipodi:namedview bordercolor="#666666" borderopacity="1.0" gridtolerance="10000" height="128px" id="base" inkscape:current-layer="layer1" inkscape:cx="64" inkscape:cy="64" inkscape:document-units="px" inkscape:pageopacity="0.0" inkscape:pageshadow="2" inkscape:window-height="904" inkscape:window-width="976" inkscape:window-x="260" inkscape:window-y="43" inkscape:zoom="4.5078057" pagecolor="#ffffff" width="128px">
    <inkscape:grid empspacing="2" id="grid2944" spacingx="4px" spacingy="4px" type="xygrid"/>
  </sodipodi:namedview>
  <g id="layer1" inkscape:groupmode="layer" inkscape:label="Livello 1">
    <path clip-path="none" d="M 59.156262,4 C 50.862445,4 44.000004,10.862442 44.000004,19.156248 L 44.000004,43.999993 L 19.156259,43.999993 C 10.862452,43.999993 4.0000112,50.862435 4.0000112,59.156236 L 4.0000112,68.843735 C 4.0000112,77.137559 10.862452,83.999983 19.156259,83.999983 L 44.000004,83.999983 L 44.000004,108.84375 C 44.000004,117.13755 50.862451,124 59.156262,124 L 68.843765,124 C 77.137555,124 84.000005,117.13755 84.000005,108.84375 L 84.000005,83.999983 L 108.84376,83.999983 C 117.13756,83.999983 124,77.137559 124,68.843735 L 124,59.156236 C 124,50.862435 117.13756,43.999993 108.84376,43.999993 L 84.000005,43.999993 L 84.000005,19.156248 C 84.000005,10.862442 77.137555,4 68.843765,4 L 59.156262,4 z" id="path3012" sodipodi:nodetypes="ccccccccccccccccccccc" style="fill:url(#linearGradient4284);fill-opacity:1;stroke:none;stroke-width:8;stroke-linecap:round;stroke-linejoin:round;stroke-miterlimit:4;stroke-dasharray:none;stroke-dashoffset:1.08779998;stroke-opacity:1"/>
    <path clip-path="none" d="M 69.875971,12.057888 C 68.798883,12.123171 67.34775,12.277052 66.875971,12.995388 L 68.465655,24.133449 L 79,23.37409 L 79,22.90534 C 80.740958,20.33518 74.219552,11.998548 69.875971,12.057888 z" id="path3091" sodipodi:nodetypes="cccccc" style="fill:url(#linearGradient4299);fill-opacity:1;fill-rule:evenodd;stroke:none;stroke-width:1px;stroke-linecap:butt;stroke-linejoin:miter;stroke-opacity:1;filter:url(#filter3387)" transform="matrix(-1.2499999,0,0,1.2499999,144.00001,-10.102078)"/>
    <path clip-path="none" d="M 69.875971,12.057888 C 68.798883,12.123171 67.34775,12.277052 66.875971,12.995388 L 68.172686,21.789699 L 79,23.37409 L 79,22.90534 C 80.740958,20.33518 74.219552,11.998548 69.875971,12.057888 z" id="path3095" sodipodi:nodetypes="cccccc" style="fill:url(#linearGradient4297);fill-opacity:1;fill-rule:evenodd;stroke:none;stroke-width:1px;stroke-linecap:butt;stroke-linejoin:miter;stroke-opacity:1;filter:url(#filter3387)" transform="matrix(1.2499999,0,0,1.2499999,-15.110921,-10.102078)"/>
    <path d="M 69.875971,12.057888 C 68.798883,12.123171 67.34775,12.277052 66.875971,12.995388 L 69.051593,23.742824 L 79,23.37409 L 79,22.90534 C 80.740958,20.33518 74.219552,11.998548 69.875971,12.057888 z" id="path3197" sodipodi:nodetypes="cccccc" style="opacity:0.68164804;fill:url(#linearGradient3003);fill-opacity:1;fill-rule:evenodd;stroke:none;stroke-width:1px;stroke-linecap:butt;stroke-linejoin:miter;stroke-opacity:1;filter:url(#filter3387)" transform="matrix(-1.2499999,0,0,-1.2499999,144.00001,139.07195)"/>
    <path d="M 69.875971,12.057888 C 68.798883,12.123171 67.34775,12.277052 66.875971,12.995388 L 67.782061,23.547512 L 79,23.37409 L 79,22.90534 C 80.740958,20.33518 74.219552,11.998548 69.875971,12.057888 z" id="path3199" sodipodi:nodetypes="cccccc" style="opacity:0.70786516;fill:url(#linearGradient3005);fill-opacity:1;fill-rule:evenodd;stroke:none;stroke-width:1px;stroke-linecap:butt;stroke-linejoin:miter;stroke-opacity:1;filter:url(#filter3387)" transform="matrix(1.2499999,0,0,-1.2499999,-15.110911,139.07195)"/>
    <path clip-path="none" d="M 69.875971,12.057888 C 68.798883,12.123171 67.34775,12.277052 66.875971,12.995388 L 68.465655,24.133449 L 79,23.37409 L 79,22.90534 C 80.740958,20.33518 74.219552,11.998548 69.875971,12.057888 z" id="path3221" sodipodi:nodetypes="cccccc" style="opacity:0.55056176;fill:url(#linearGradient4291);fill-opacity:1;fill-rule:evenodd;stroke:none;stroke-width:1px;stroke-linecap:butt;stroke-linejoin:miter;stroke-opacity:1;filter:url(#filter3387)" transform="matrix(1.2499999,0,0,1.2499999,24.889073,28.928032)"/>
    <path clip-path="none" d="M 59.156262,4 C 50.862445,4 44.000004,10.862442 44.000004,19.156248 L 44.000004,43.999993 L 19.156259,43.999993 C 10.862452,43.999993 4.000007,47.134768 4.000007,55.428569 C 4.000008,53.062884 4.00001,63.906397 4.000011,68.843735 C 4.000011,77.137559 10.862452,83.999983 19.156259,83.999983 L 44.000004,83.999983 L 44.000004,108.84375 C 44.000004,117.13755 50.862451,124 59.156262,124 L 68.843765,124 C 77.13756,124 84.00001,117.13755 84.00001,108.84375 L 84.00001,83.999983 L 108.84376,83.999983 C 117.13756,83.999983 124,77.137559 124,68.843735 L 124,59.156236 C 124,50.862435 117.13756,43.999993 108.84376,43.999993 L 84.00001,43.999993 L 84.00001,19.156248 C 84.00001,10.862442 77.13756,4 68.843765,4 L 59.156262,4 z" id="path3028" sodipodi:nodetypes="ccccccccccccccccccccc" style="opacity:0.58052434;fill:url(#radialGradient4275);fill-opacity:1;stroke:none;stroke-width:8;stroke-linecap:round;stroke-linejoin:round;stroke-miterlimit:4;stroke-dasharray:none;stroke-dashoffset:1.08779998;stroke-opacity:1"/>
    <path clip-path="none" d="M 69.875971,12.057888 C 68.798883,12.123171 67.34775,12.277052 66.875971,12.995388 L 68.465655,24.133449 L 79,23.37409 L 79,22.90534 C 80.740958,20.33518 74.219552,11.998548 69.875971,12.057888 z" id="path3217" sodipodi:nodetypes="cccccc" style="opacity:0.55056176;fill:url(#linearGradient4289);fill-opacity:1;fill-rule:evenodd;stroke:none;stroke-width:1px;stroke-linecap:butt;stroke-linejoin:miter;stroke-opacity:1;filter:url(#filter3387)" transform="matrix(-1.2499999,0,0,1.2499999,103.11092,28.928032)"/>
    <path clip-path="none" d="M 59.156262,13.999998 C 56.321336,13.999998 54.000004,16.321326 54.000004,19.156248 L 54.000004,53.999993 L 19.156259,53.999993 C 16.321336,53.999993 14.00001,56.321312 14.00001,59.156236 L 14.00001,68.843735 C 14.00001,71.678658 16.321336,73.999984 19.156259,73.999984 L 54.000004,73.999984 L 54.000004,108.84375 C 54.000004,111.67868 56.321336,114 59.156262,114 L 68.843765,114 C 71.678685,114 74.000004,111.67868 74.000004,108.84375 L 74.000004,73.999984 L 108.84376,73.999984 C 111.67868,73.999984 114.00001,71.678658 114.00001,68.843735 L 114.00001,59.156236 C 114.00001,56.321312 111.67868,53.999993 108.84376,53.999993 L 74.000004,53.999993 L 74.000004,19.156248 C 74.000004,16.321326 71.678685,13.999998 68.843765,13.999998 L 59.156262,13.999998 z" id="rect2407" style="fill:url(#radialGradient4271);fill-opacity:1;stroke:none;stroke-width:2;stroke-linecap:round;stroke-linejoin:round;stroke-miterlimit:4;stroke-dasharray:none;stroke-dashoffset:1.08779998;stroke-opacity:1"/>
    <path clip-path="none" d="M 59.156262,13.999998 C 56.321336,13.999998 54.000004,16.321326 54.000004,19.156248 L 54.000004,53.999993 L 19.156259,53.999993 C 16.321336,53.999993 14.00001,56.321312 14.00001,59.156236 L 14.00001,68.843735 C 14.00001,69.118235 14.114379,69.361784 14.156259,69.624985 C 22.300473,70.798908 30.88461,71.499985 39.781255,71.499985 C 68.535185,71.499985 94.295855,64.92541 111.26562,54.624988 C 110.54253,54.237113 109.71726,53.999993 108.84376,53.999993 L 74.000004,53.999993 L 74.000004,19.156248 C 74.000004,16.321326 71.678685,13.999998 68.843765,13.999998 L 59.156262,13.999998 z" id="path3038" style="fill:url(#linearGradient4268);fill-opacity:1;stroke:none;stroke-width:2;stroke-linecap:round;stroke-linejoin:round;stroke-miterlimit:4;stroke-dasharray:none;stroke-dashoffset:1.08779998;stroke-opacity:1"/>
    <path clip-path="none" d="M 59.156262,13.999998 C 56.321336,13.999998 54.000004,16.321326 54.000004,19.156248 L 54.000004,21.656248 C 54.000004,18.821325 57.321337,14.999999 60.156261,14.999999 L 69.843766,14.999999 C 70.552485,14.999999 71.258735,15.128704 71.875005,15.390624 C 72.150654,16.014419 73.093755,18.202069 73.093755,18.921873 L 74.000004,53.999993 L 74.078135,19.156248 C 74.078135,17.717178 73.475484,16.422296 72.515634,15.484374 C 72.296205,15.264948 72.068055,15.036819 71.812505,14.859373 C 71.793285,14.846353 71.753784,14.872142 71.734385,14.859373 C 71.479185,14.686546 71.237705,14.516199 70.953135,14.390623 C 70.931484,14.381421 70.896804,14.399536 70.875005,14.390623 C 70.588505,14.268867 70.247235,14.146546 69.937516,14.078124 C 69.911915,14.072847 69.885114,14.083017 69.859385,14.078124 C 69.550216,14.014391 69.248015,14.005104 68.921885,13.999998 L 68.843765,13.999998 L 67.671885,13.999998 L 59.156262,13.999998 z M 19.156259,53.999993 C 16.321336,53.999993 14.00001,56.321312 14.00001,59.156236 L 14.00001,61.656236 C 14.00001,58.821311 16.321336,54.999988 19.156259,54.999988 L 54.000004,53.999993 L 19.156259,53.999993 z M 74.000004,53.999993 L 108.39942,55.279287 C 91.501435,64.347036 63.84326,71.265635 37.125005,71.265609 C 32.676683,71.265609 28.27615,71.040734 24.000009,70.718735 C 29.150991,71.186035 34.44854,71.499985 39.859381,71.499985 C 66.784535,71.499985 91.068755,65.69071 107.98439,56.499987 C 108.00428,56.489187 108.04263,56.510811 108.0625,56.499987 C 109.1689,55.896911 110.22406,55.257212 111.26562,54.624988 C 110.92486,54.442187 110.55239,54.263038 110.17188,54.156238 C 110.1469,54.149613 110.11889,54.162513 110.09376,54.156238 C 109.71282,54.055113 109.33032,54.006787 108.92189,53.999993 L 108.84376,53.999993 L 107.67188,53.999993 L 74.000004,53.999993 z" id="path3062" sodipodi:nodetypes="cccccccccsssssssccccccccccccscssscsscccc" style="fill:url(#linearGradient4265);fill-opacity:1;stroke:none;stroke-width:2;stroke-linecap:round;stroke-linejoin:round;stroke-miterlimit:4;stroke-dasharray:none;stroke-dashoffset:1.08779998;stroke-opacity:1"/>
    <path clip-path="none" d="M 59.156262,13.999998 C 56.321336,13.999998 54.000004,16.321326 54.000004,19.156248 L 54.000004,21.656248 C 54.000004,18.821325 57.321337,14.999999 60.156261,14.999999 L 69.843766,14.999999 C 70.552485,14.999999 71.258735,15.128704 71.875005,15.390624 C 72.150654,16.014419 73.093755,18.202069 73.093755,18.921873 L 74.000004,53.999993 L 74.078135,19.156248 C 74.078135,17.717178 73.475484,16.422296 72.515634,15.484374 C 72.296205,15.264948 72.068055,15.036819 71.812505,14.859373 C 71.793285,14.846353 71.753784,14.872142 71.734385,14.859373 C 71.479185,14.686546 71.237705,14.516199 70.953135,14.390623 C 70.931484,14.381421 70.896804,14.399536 70.875005,14.390623 C 70.588505,14.268867 70.247235,14.146546 69.937516,14.078124 C 69.911915,14.072847 69.885114,14.083017 69.859385,14.078124 C 69.550216,14.014391 69.248015,14.005104 68.921885,13.999998 L 68.843765,13.999998 L 67.671885,13.999998 L 59.156262,13.999998 z M 19.156259,53.999993 C 16.321336,53.999993 14.00001,56.321312 14.00001,59.156236 L 14.00001,61.656236 C 14.00001,58.821311 16.321336,54.999988 19.156259,54.999988 L 54.000004,53.999993 L 19.156259,53.999993 z M 74.000004,53.999993 L 108.64356,55.279287 C 91.745585,64.347036 63.84326,71.265635 37.125005,71.265609 C 32.676683,71.265609 28.27615,71.040734 24.000009,70.718735 C 29.150991,71.186035 34.44854,71.499985 39.859381,71.499985 C 66.784535,71.499985 91.068755,65.69071 107.98439,56.499987 C 108.00428,56.489187 108.04263,56.510811 108.0625,56.499987 C 109.1689,55.896911 110.22406,55.257212 111.26562,54.624988 C 110.92486,54.442187 110.55239,54.263038 110.17188,54.156238 C 110.1469,54.149613 110.11889,54.162513 110.09376,54.156238 C 109.71282,54.055113 109.33032,54.006787 108.92189,53.999993 L 108.84376,53.999993 L 107.67188,53.999993 L 74.000004,53.999993 z" id="path3087" sodipodi:nodetypes="cccccccccsssssssccccccccccccscssscsscccc" style="fill:url(#linearGradient4262);fill-opacity:1;stroke:none;stroke-width:2;stroke-linecap:round;stroke-linejoin:round;stroke-miterlimit:4;stroke-dasharray:none;stroke-dashoffset:1.08779998;stroke-opacity:1"/>
    <path clip-path="none" d="M 62.0625,43.999992 C 60.92853,43.999992 59.999996,44.928523 59.999996,46.062492 L 59.999996,59.999992 L 46.062496,59.999992 C 44.928527,59.999992 43.999996,60.92852 43.999996,62.06249 L 43.999996,65.93749 C 43.999996,67.07146 44.928527,67.99999 46.062496,67.99999 L 59.999996,67.99999 L 59.999996,81.9375 C 59.999996,83.07147 60.92853,84 62.0625,84 L 65.9375,84 C 67.07147,84 68,83.07147 68,81.9375 L 68,67.99999 L 81.9375,67.99999 C 83.07147,67.99999 84,67.07146 84,65.93749 L 84,62.06249 C 84,60.92852 83.07147,59.999992 81.9375,59.999992 L 68,59.999992 L 68,46.062492 C 68,44.928523 67.07147,43.999992 65.9375,43.999992 L 62.0625,43.999992 z" id="path3099" style="fill:none;fill-opacity:1;stroke:url(#linearGradient4259);stroke-width:0.5;stroke-linecap:round;stroke-linejoin:round;stroke-miterlimit:4;stroke-dasharray:none;stroke-dashoffset:1.08779998;stroke-opacity:1;filter:url(#filter3191)" transform="matrix(2.4999996,0,0,2.4999996,-95.999962,-95.99996)"/>
  </g>
</svg>
