<?xml version="1.0" encoding="UTF-8" standalone="no"?>
<!-- Created with Inkscape (http://www.inkscape.org/) --><svg height="128" id="svg2" inkscape:output_extension="org.inkscape.output.svgz.inkscape" inkscape:version="0.45.1" sodipodi:docbase="/home/david" sodipodi:docname="process-stop.svgz" sodipodi:version="0.32" version="1.0" width="128" xmlns="http://www.w3.org/2000/svg" xmlns:cc="http://web.resource.org/cc/" xmlns:dc="http://purl.org/dc/elements/1.1/" xmlns:inkscape="http://www.inkscape.org/namespaces/inkscape" xmlns:rdf="http://www.w3.org/1999/02/22-rdf-syntax-ns#" xmlns:sodipodi="http://sodipodi.sourceforge.net/DTD/sodipodi-0.dtd" xmlns:svg="http://www.w3.org/2000/svg" xmlns:xlink="http://www.w3.org/1999/xlink">
  <metadata>
    <rdf:RDF xmlns:cc="http://web.resource.org/cc/" xmlns:dc="http://purl.org/dc/elements/1.1/" xmlns:rdf="http://www.w3.org/1999/02/22-rdf-syntax-ns#">
      <cc:Work rdf:about="">
        <dc:title></dc:title>
        <dc:description></dc:description>
        <dc:subject>
          <rdf:Bag>
            <rdf:li>unsorted</rdf:li>
          </rdf:Bag>
        </dc:subject>
        <dc:publisher>
          <cc:Agent rdf:about="http://www.openclipart.org/">
            <dc:title>Open Clip Art Library, Source: Oxygen Icons, Source: Oxygen Icons, Source: Oxygen Icons, Source: Oxygen Icons</dc:title>
          </cc:Agent>
        </dc:publisher>
        <dc:creator>
          <cc:Agent>
            <dc:title></dc:title>
          </cc:Agent>
        </dc:creator>
        <dc:rights>
          <cc:Agent>
            <dc:title></dc:title>
          </cc:Agent>
        </dc:rights>
        <dc:date></dc:date>
        <dc:format>image/svg+xml</dc:format>
        <dc:type rdf:resource="http://purl.org/dc/dcmitype/StillImage"/>
        <cc:license rdf:resource="http://creativecommons.org/licenses/by-sa/3.0/ or http://creativecommons.org/licenses/LGPL/2.1/"/>
        <dc:language>en</dc:language>
      </cc:Work>
    </rdf:RDF>
  </metadata>
  <defs id="defs4">
    <linearGradient id="linearGradient3554" inkscape:collect="always">
      <stop id="stop3556" offset="0" style="stop-color:#ffffff;stop-opacity:1;"/>
      <stop id="stop3558" offset="1" style="stop-color:#dfdfdf;stop-opacity:1"/>
    </linearGradient>
    <linearGradient id="linearGradient3530" inkscape:collect="always">
      <stop id="stop3532" offset="0" style="stop-color:#590000;stop-opacity:1;"/>
      <stop id="stop3534" offset="1" style="stop-color:#590000;stop-opacity:0;"/>
    </linearGradient>
    <linearGradient id="linearGradient3348" inkscape:collect="always">
      <stop id="stop3350" offset="0" style="stop-color:#320000;stop-opacity:1;"/>
      <stop id="stop3352" offset="1" style="stop-color:#320000;stop-opacity:0;"/>
    </linearGradient>
    <linearGradient id="linearGradient3324" inkscape:collect="always">
      <stop id="stop3326" offset="0" style="stop-color:#ffffff;stop-opacity:1;"/>
      <stop id="stop3328" offset="1" style="stop-color:#ffffff;stop-opacity:0;"/>
    </linearGradient>
    <linearGradient id="linearGradient3282" inkscape:collect="always">
      <stop id="stop3284" offset="0" style="stop-color:#ffffff;stop-opacity:1;"/>
      <stop id="stop3286" offset="1" style="stop-color:#ffffff;stop-opacity:0;"/>
    </linearGradient>
    <linearGradient id="linearGradient3254" inkscape:collect="always">
      <stop id="stop3256" offset="0" style="stop-color:#ffffff;stop-opacity:1;"/>
      <stop id="stop3258" offset="1" style="stop-color:#ffffff;stop-opacity:0;"/>
    </linearGradient>
    <linearGradient id="linearGradient3203" inkscape:collect="always">
      <stop id="stop3205" offset="0" style="stop-color:#ffbfbf;stop-opacity:1;"/>
      <stop id="stop3207" offset="1" style="stop-color:#ffbfbf;stop-opacity:0;"/>
    </linearGradient>
    <linearGradient id="linearGradient3188" inkscape:collect="always">
      <stop id="stop3190" offset="0" style="stop-color:#ffaa00;stop-opacity:1;"/>
      <stop id="stop3192" offset="1" style="stop-color:#ffaa00;stop-opacity:0;"/>
    </linearGradient>
    <linearGradient id="linearGradient3166">
      <stop id="stop3168" offset="0" style="stop-color:#e20800;stop-opacity:1"/>
      <stop id="stop3564" offset="0.48148149" style="stop-color:#d80500;stop-opacity:1;"/>
      <stop id="stop3170" offset="1" style="stop-color:#590000;stop-opacity:1"/>
    </linearGradient>
    <linearGradient id="linearGradient3158" inkscape:collect="always">
      <stop id="stop3160" offset="0" style="stop-color:#520000;stop-opacity:1"/>
      <stop id="stop3162" offset="1" style="stop-color:#590000;stop-opacity:0;"/>
    </linearGradient>
    <linearGradient id="linearGradient3148" inkscape:collect="always">
      <stop id="stop3150" offset="0" style="stop-color:#8c0000;stop-opacity:1;"/>
      <stop id="stop3152" offset="1" style="stop-color:#bf0000;stop-opacity:1"/>
    </linearGradient>
    <linearGradient gradientUnits="userSpaceOnUse" id="linearGradient3154" inkscape:collect="always" x1="71.937202" x2="71.937202" xlink:href="#linearGradient3148" y1="114.73783" y2="7.5424786"/>
    <linearGradient gradientTransform="matrix(1,0,0,-1,0,127.99593)" gradientUnits="userSpaceOnUse" id="linearGradient3164" inkscape:collect="always" x1="65.306122" x2="65.306122" xlink:href="#linearGradient3158" y1="21.898888" y2="107.30016"/>
    <linearGradient gradientUnits="userSpaceOnUse" id="linearGradient3260" inkscape:collect="always" x1="97.911537" x2="71.094215" xlink:href="#linearGradient3254" y1="86.30513" y2="39.373199"/>
    <linearGradient gradientUnits="userSpaceOnUse" id="linearGradient3264" inkscape:collect="always" x1="59.355339" x2="59.757221" xlink:href="#linearGradient3188" y1="114.03454" y2="17.476311"/>
    <linearGradient gradientUnits="userSpaceOnUse" id="linearGradient3288" inkscape:collect="always" x1="58.855938" x2="58.800629" xlink:href="#linearGradient3282" y1="13.276386" y2="43.014843"/>
    <filter id="filter3318" inkscape:collect="always">
      <feGaussianBlur id="feGaussianBlur3320" inkscape:collect="always" stdDeviation="0.33907178"/>
    </filter>
    <filter id="filter3342" inkscape:collect="always">
      <feGaussianBlur id="feGaussianBlur3344" inkscape:collect="always" stdDeviation="0.52001035"/>
    </filter>
    <radialGradient cx="64" cy="60.521297" fx="64" fy="44.562428" gradientTransform="matrix(0.501569,0,0,2.2063489,31.899588,-75.07498)" gradientUnits="userSpaceOnUse" id="radialGradient3346" inkscape:collect="always" r="51.999999" xlink:href="#linearGradient3324"/>
    <linearGradient gradientUnits="userSpaceOnUse" id="linearGradient3354" inkscape:collect="always" x1="75.157829" x2="75.157829" xlink:href="#linearGradient3348" y1="91.321831" y2="24.151943"/>
    <linearGradient gradientUnits="userSpaceOnUse" id="linearGradient3356" inkscape:collect="always" x1="64.968697" x2="89.705704" xlink:href="#linearGradient3203" y1="9.5585432" y2="101.87831"/>
    <radialGradient cx="62.78125" cy="66.175667" fx="62.78125" fy="77.980095" gradientTransform="matrix(1.3513697,0,0,1.3513697,-22.059432,-22.935778)" gradientUnits="userSpaceOnUse" id="radialGradient3536" inkscape:collect="always" r="29.84375" xlink:href="#linearGradient3530"/>
    <filter id="filter3550" inkscape:collect="always">
      <feGaussianBlur id="feGaussianBlur3552" inkscape:collect="always" stdDeviation="1.23375"/>
    </filter>
    <linearGradient gradientUnits="userSpaceOnUse" id="linearGradient3560" inkscape:collect="always" x1="68.9375" x2="68.9375" xlink:href="#linearGradient3554" y1="38.90625" y2="103.40701"/>
    <radialGradient cx="63.999996" cy="74.182564" fx="63.999996" fy="74.182564" gradientTransform="matrix(1.41925,0,0,1.4090223,-26.831992,-24.047647)" gradientUnits="userSpaceOnUse" id="radialGradient3562" inkscape:collect="always" r="48" xlink:href="#linearGradient3166"/>
    <filter id="filter3576" inkscape:collect="always">
      <feGaussianBlur id="feGaussianBlur3578" inkscape:collect="always" stdDeviation="0.576875"/>
    </filter>
  </defs>
  <sodipodi:namedview bordercolor="#666666" borderopacity="1.0" gridempspacing="2" gridspacingx="1px" gridspacingy="1px" gridtolerance="10000" guidetolerance="10" height="128px" id="base" inkscape:current-layer="layer1" inkscape:cx="64" inkscape:cy="64" inkscape:document-units="px" inkscape:pageopacity="0.0" inkscape:pageshadow="2" inkscape:window-height="734" inkscape:window-width="748" inkscape:window-x="0" inkscape:window-y="0" inkscape:zoom="4.9765625" objecttolerance="10" pagecolor="#ffffff" showgrid="false" width="128px"/>
  <g id="layer1" inkscape:groupmode="layer" inkscape:label="Layer 1">
    <path d="M 43.41667,115.99589 C 42.716311,115.92015 42.063548,115.60502 41.568631,115.10373 L 12.892165,86.427263 C 12.319008,85.85207 11.998051,85.072601 12.000009,84.260597 L 12.000009,43.731191 C 11.998051,42.919187 12.319008,42.139719 12.892165,41.564526 L 41.568631,12.888054 C 42.143824,12.314914 42.923293,11.993944 43.735297,11.995904 L 84.264703,11.995904 C 85.076707,11.993944 85.856176,12.314914 86.431369,12.888054 L 115.10784,41.564526 C 115.68099,42.139719 116.00195,42.919187 115.99999,43.731191 L 115.99999,84.260597 C 116.00195,85.072601 115.68099,85.85207 115.10784,86.427263 L 86.431369,115.10373 C 85.856176,115.67689 85.076707,115.99784 84.264703,115.99589 L 43.735297,115.99589 C 43.62916,116.00142 43.522807,116.00142 43.41667,115.99589 z " id="path3340" sodipodi:nodetypes="cccccccccccccccccc" style="opacity:0.9;fill:url(#linearGradient3354);fill-opacity:1;stroke:none;stroke-width:6;stroke-linecap:round;stroke-linejoin:round;stroke-miterlimit:4;stroke-dasharray:none;stroke-opacity:1;filter:url(#filter3342)" transform="matrix(1.0115925,0,0,1.0115925,-0.7419196,-0.7418961)"/>
    <path d="M 43.41667,12.000049 C 42.716311,12.075785 42.063548,12.390911 41.568631,12.892205 L 12.892165,41.568671 C 12.319008,42.143864 11.998051,42.923333 12.000009,43.735337 L 12.000009,84.264743 C 11.998051,85.076747 12.319008,85.856215 12.892165,86.431408 L 41.568631,115.10788 C 42.143824,115.68102 42.923293,116.00199 43.735297,116.00003 L 84.264703,116.00003 C 85.076707,116.00199 85.856176,115.68102 86.431369,115.10788 L 115.10784,86.431408 C 115.68099,85.856215 116.00195,85.076747 115.99999,84.264743 L 115.99999,43.735337 C 116.00195,42.923333 115.68099,42.143864 115.10784,41.568671 L 86.431369,12.892205 C 85.856176,12.319048 85.076707,11.998091 84.264703,12.000049 L 43.735297,12.000049 C 43.62916,11.994514 43.522807,11.994514 43.41667,12.000049 z " id="path3134" sodipodi:nodetypes="cccccccccccccccccc" style="opacity:1;fill:url(#linearGradient3154);fill-opacity:1.0;stroke:none;stroke-width:6;stroke-linecap:round;stroke-linejoin:round;stroke-miterlimit:4;stroke-dasharray:none;stroke-opacity:1"/>
    <path d="M 43.41667,115.99589 C 42.716311,115.92015 42.063548,115.60502 41.568631,115.10373 L 12.892165,86.427263 C 12.319008,85.85207 11.998051,85.072601 12.000009,84.260597 L 12.000009,43.731191 C 11.998051,42.919187 12.319008,42.139719 12.892165,41.564526 L 41.568631,12.888054 C 42.143824,12.314914 42.923293,11.993944 43.735297,11.995904 L 84.264703,11.995904 C 85.076707,11.993944 85.856176,12.314914 86.431369,12.888054 L 115.10784,41.564526 C 115.68099,42.139719 116.00195,42.919187 115.99999,43.731191 L 115.99999,84.260597 C 116.00195,85.072601 115.68099,85.85207 115.10784,86.427263 L 86.431369,115.10373 C 85.856176,115.67689 85.076707,115.99784 84.264703,115.99589 L 43.735297,115.99589 C 43.62916,116.00142 43.522807,116.00142 43.41667,115.99589 z " id="path3156" sodipodi:nodetypes="cccccccccccccccccc" style="opacity:1;fill:url(#linearGradient3164);fill-opacity:1;stroke:none;stroke-width:6;stroke-linecap:round;stroke-linejoin:round;stroke-miterlimit:4;stroke-dasharray:none;stroke-opacity:1"/>
    <path d="M 43.41667,115.9959 C 42.716311,115.9203 42.063548,115.60578 41.568631,115.10546 L 12.892165,86.484399 C 12.319008,85.910318 11.998051,85.132355 12.000009,84.321919 L 12.000009,43.870819 C 11.998051,43.060383 12.319008,42.282421 12.892165,41.70834 L 41.568631,13.087272 C 42.143824,12.51524 42.923293,12.19489 43.735297,12.196846 L 84.264703,12.196846 C 85.076707,12.19489 85.856176,12.51524 86.431369,13.087272 L 115.10784,41.70834 C 115.68099,42.282421 116.00195,43.060383 115.99999,43.870819 L 115.99999,84.321919 C 116.00195,85.132355 115.68099,85.910318 115.10784,86.484399 L 86.431369,115.10546 C 85.856176,115.67751 85.076707,115.99784 84.264703,115.9959 L 43.735297,115.9959 C 43.62916,116.00142 43.522807,116.00142 43.41667,115.9959 z " id="path3322" sodipodi:nodetypes="cccccccccccccccccc" style="opacity:0.9;fill:url(#radialGradient3346);fill-opacity:1;stroke:none;stroke-width:6;stroke-linecap:round;stroke-linejoin:round;stroke-miterlimit:4;stroke-dasharray:none;stroke-opacity:1"/>
    <path d="M 44.125,16 L 16,44.125 L 16,83.875 L 44.125,112 L 83.875,112 L 112,83.875 L 112,44.125 L 83.875,16 L 44.125,16 z " id="rect3129" style="opacity:1;fill:url(#radialGradient3562);fill-opacity:1.0;stroke:none;stroke-width:2;stroke-linecap:round;stroke-linejoin:round;stroke-miterlimit:4;stroke-dasharray:none;stroke-opacity:1"/>
    <path d="M 44.125,16 L 16,44.125 L 16,83.875 L 44.125,112 L 83.875,112 L 112,83.875 L 112,44.125 L 83.875,16 L 44.125,16 z " id="path3174" style="opacity:1;fill:none;fill-opacity:1;stroke:url(#linearGradient3264);stroke-width:0.87765177;stroke-linecap:round;stroke-linejoin:round;stroke-miterlimit:4;stroke-dasharray:none;stroke-opacity:1;filter:url(#filter3318)" transform="matrix(1.0083726,0,0,1.0083726,-0.5358451,-0.5358451)"/>
    <path d="M 44.125 16 L 16 44.125 L 16 65.3125 C 27.723021 67.56233 40.630827 68.812499 54.21875 68.8125 C 75.886944 68.8125 95.912826 65.63177 112 60.28125 L 112 44.125 L 83.875 16 L 44.125 16 z " id="path3196" style="opacity:1;fill:url(#linearGradient3356);fill-opacity:1.0;stroke:none;stroke-width:2;stroke-linecap:round;stroke-linejoin:round;stroke-miterlimit:4;stroke-dasharray:none;stroke-opacity:1"/>
    <path d="M 45.75 35.5625 L 33.9375 47.34375 L 51 64.40625 L 33.9375 81.4375 L 45.75 93.25 L 62.78125 76.1875 L 79.84375 93.25 L 91.625 81.4375 L 74.59375 64.40625 L 91.625 47.34375 L 79.84375 35.5625 L 62.78125 52.59375 L 45.75 35.5625 z " id="path3528" style="opacity:1;fill:none;fill-opacity:1;stroke:url(#radialGradient3536);stroke-width:5;stroke-linecap:round;stroke-linejoin:round;stroke-miterlimit:4;stroke-dasharray:none;stroke-opacity:1;filter:url(#filter3550)"/>
    <path d="M 83.96625,16.055728 L 84.321468,16.720291 C 91.300815,23.699637 104.28197,37.24914 111.26216,44.229333 L 110.96875,52.4375 L 110.80846,59.622075 C 80.866275,68.585693 47.795553,70.739926 17,65.140797 C 17,65.09913 17,65.057464 17,65.015797 L 16,65.015797 L 16,65.3125 C 27.723021,67.56233 40.630827,68.812499 54.21875,68.8125 C 75.886944,68.8125 95.912826,65.63177 112,60.28125 L 112,44.125 L 83.96625,16.055728 z " id="path3211" sodipodi:nodetypes="cccccccccsccc" style="opacity:0.905;fill:url(#linearGradient3260);fill-opacity:1.0;stroke:none;stroke-width:2;stroke-linecap:round;stroke-linejoin:round;stroke-miterlimit:4;stroke-dasharray:none;stroke-opacity:1"/>
    <path d="M 44.125,15.5 L 16,44.125 L 16,45.625 L 44.125,17.5 L 83.875,17.5 L 112,45.625 L 112,44.125 L 83.875,15.5 L 44.125,15.5 z " id="path3273" sodipodi:nodetypes="ccccccccc" style="opacity:1;fill:url(#linearGradient3288);fill-opacity:1.0;stroke:none;stroke-width:2;stroke-linecap:round;stroke-linejoin:round;stroke-miterlimit:4;stroke-dasharray:none;stroke-opacity:1"/>
    <path d="M 45.75 35.5625 L 33.9375 47.34375 L 51 64.40625 L 33.9375 81.4375 L 45.75 93.25 L 62.78125 76.1875 L 79.84375 93.25 L 91.625 81.4375 L 74.59375 64.40625 L 91.625 47.34375 L 79.84375 35.5625 L 62.78125 52.59375 L 45.75 35.5625 z " id="rect3376" style="opacity:1;fill:url(#linearGradient3560);fill-opacity:1.0;stroke:none;stroke-width:0.88499999;stroke-linecap:round;stroke-linejoin:round;stroke-miterlimit:4;stroke-dasharray:none;stroke-opacity:1"/>
    <path d="M 45.75 35.5625 L 33.9375 47.34375 L 51 64.40625 L 33.9375 81.4375 L 45.75 93.25 L 62.78125 76.1875 L 79.84375 93.25 L 91.625 81.4375 L 74.59375 64.40625 L 91.625 47.34375 L 79.84375 35.5625 L 62.78125 52.59375 L 45.75 35.5625 z " id="path3381" style="opacity:1;fill:none;fill-opacity:1;stroke:none;stroke-width:0.88499999;stroke-linecap:round;stroke-linejoin:round;stroke-miterlimit:4;stroke-dasharray:none;stroke-opacity:1"/>
    <path d="M 45.75 35.5625 L 33.9375 47.34375 L 51 64.40625 L 48.03125 67.375 C 53.072712 68.151892 58.432479 68.5625 64 68.5625 C 68.791614 68.5625 73.428768 68.238024 77.84375 67.65625 L 74.59375 64.40625 L 91.625 47.34375 L 79.84375 35.5625 L 62.78125 52.59375 L 45.75 35.5625 z " id="path3566" style="opacity:1;fill:#ffffff;fill-opacity:1;stroke:none;stroke-width:0.88499999;stroke-linecap:round;stroke-linejoin:round;stroke-miterlimit:4;stroke-dasharray:none;stroke-opacity:1;filter:url(#filter3576)"/>
  </g>
</svg>
