<?xml version="1.0" encoding="UTF-8" standalone="no"?>
<!-- Created with Inkscape (http://www.inkscape.org/) --><svg height="128" id="svg2" inkscape:export-filename="/home/pinheiro/pics/oxygen/scalable/actions/system-lock-screen.png" inkscape:export-xdpi="11.25" inkscape:export-ydpi="11.25" inkscape:output_extension="org.inkscape.output.svgz.inkscape" inkscape:version="0.45+devel" sodipodi:docbase="/home/david/Oxygen/kdelibs/scalable/actions" sodipodi:docname="system-lock-screen.svgz" sodipodi:version="0.32" version="1.0" width="128" xmlns="http://www.w3.org/2000/svg" xmlns:cc="http://creativecommons.org/ns#" xmlns:dc="http://purl.org/dc/elements/1.1/" xmlns:inkscape="http://www.inkscape.org/namespaces/inkscape" xmlns:rdf="http://www.w3.org/1999/02/22-rdf-syntax-ns#" xmlns:sodipodi="http://sodipodi.sourceforge.net/DTD/sodipodi-0.dtd" xmlns:svg="http://www.w3.org/2000/svg" xmlns:xlink="http://www.w3.org/1999/xlink">
  <metadata>
    <rdf:RDF xmlns:cc="http://web.resource.org/cc/" xmlns:dc="http://purl.org/dc/elements/1.1/" xmlns:rdf="http://www.w3.org/1999/02/22-rdf-syntax-ns#">
      <cc:Work rdf:about="">
        <dc:title></dc:title>
        <dc:description></dc:description>
        <dc:subject>
          <rdf:Bag>
            <rdf:li>unsorted</rdf:li>
          </rdf:Bag>
        </dc:subject>
        <dc:publisher>
          <cc:Agent rdf:about="http://www.openclipart.org/">
            <dc:title>Open Clip Art Library, Source: Oxygen Icons, Source: Oxygen Icons, Source: Oxygen Icons, Source: Oxygen Icons</dc:title>
          </cc:Agent>
        </dc:publisher>
        <dc:creator>
          <cc:Agent>
            <dc:title></dc:title>
          </cc:Agent>
        </dc:creator>
        <dc:rights>
          <cc:Agent>
            <dc:title></dc:title>
          </cc:Agent>
        </dc:rights>
        <dc:date></dc:date>
        <dc:format>image/svg+xml</dc:format>
        <dc:type rdf:resource="http://purl.org/dc/dcmitype/StillImage"/>
        <cc:license rdf:resource="http://creativecommons.org/licenses/by-sa/3.0/ or http://creativecommons.org/licenses/LGPL/2.1/"/>
        <dc:language>en</dc:language>
      </cc:Work>
    </rdf:RDF>
  </metadata>
  <defs id="defs4">
    <linearGradient id="linearGradient2990">
      <stop id="stop2992" offset="0" style="stop-color:#d7d7d7;stop-opacity:1;"/>
      <stop id="stop2994" offset="1" style="stop-color:#ffffff;stop-opacity:1;"/>
    </linearGradient>
    <linearGradient id="linearGradient3237">
      <stop id="stop3239" offset="0" style="stop-color:#d5e6ff;stop-opacity:1;"/>
      <stop id="stop3241" offset="1" style="stop-color:#ffffff;stop-opacity:0;"/>
    </linearGradient>
    <linearGradient id="linearGradient6674">
      <stop id="stop6676" offset="0" style="stop-color:#001648;stop-opacity:1;"/>
      <stop id="stop6678" offset="1" style="stop-color:#11a9ff;stop-opacity:0;"/>
    </linearGradient>
    <linearGradient id="linearGradient6666">
      <stop id="stop6668" offset="0" style="stop-color:#9fc1f2;stop-opacity:1;"/>
      <stop id="stop3183" offset="0.5" style="stop-color:#587eb5;stop-opacity:1;"/>
      <stop id="stop6670" offset="1" style="stop-color:#0c2a58;stop-opacity:1;"/>
    </linearGradient>
    <linearGradient id="linearGradient6643">
      <stop id="stop6645" offset="0" style="stop-color:#fffddc;stop-opacity:1;"/>
      <stop id="stop6647" offset="1" style="stop-color:#ffdfbf;stop-opacity:0;"/>
    </linearGradient>
    <linearGradient id="linearGradient6631">
      <stop id="stop6633" offset="0" style="stop-color:#703700;stop-opacity:1;"/>
      <stop id="stop6635" offset="1" style="stop-color:#bf5e00;stop-opacity:0;"/>
    </linearGradient>
    <linearGradient id="linearGradient6446">
      <stop id="stop6448" offset="0" style="stop-color:#ffffff;stop-opacity:1;"/>
      <stop id="stop6450" offset="1" style="stop-color:#ffffff;stop-opacity:0;"/>
    </linearGradient>
    <linearGradient id="linearGradient6404">
      <stop id="stop6406" offset="0" style="stop-color:#081e3e;stop-opacity:1;"/>
      <stop id="stop6408" offset="1" style="stop-color:#387de4;stop-opacity:1;"/>
    </linearGradient>
    <radialGradient cx="42.700352" cy="103.5803" fx="42.700352" fy="103.5803" gradientTransform="matrix(1.3965253,6.9831451e-3,-7.781496e-3,1.5561835,-122.82611,-69.698616)" gradientUnits="userSpaceOnUse" id="radialGradient9692" inkscape:collect="always" r="42.559486" spreadMethod="pad" xlink:href="#linearGradient6666"/>
    <linearGradient gradientUnits="userSpaceOnUse" id="linearGradient6410" inkscape:collect="always" x1="32" x2="24" xlink:href="#linearGradient6404" y1="88" y2="-24"/>
    <linearGradient gradientTransform="translate(-7.5870968,-7.3806452)" gradientUnits="userSpaceOnUse" id="linearGradient6452" inkscape:collect="always" spreadMethod="reflect" x1="21.094994" x2="15.189133" xlink:href="#linearGradient6446" y1="21.101994" y2="27.007854"/>
    <filter id="filter6458" inkscape:collect="always">
      <feGaussianBlur id="feGaussianBlur6460" inkscape:collect="always" stdDeviation="0.28444187"/>
    </filter>
    <linearGradient gradientTransform="translate(0.4129032,0.6193548)" gradientUnits="userSpaceOnUse" id="linearGradient6464" inkscape:collect="always" spreadMethod="reflect" x1="21.094994" x2="15.126888" xlink:href="#linearGradient6446" y1="21.101994" y2="27.070099"/>
    <linearGradient gradientTransform="translate(0.4129032,0.6193548)" gradientUnits="userSpaceOnUse" id="linearGradient6470" inkscape:collect="always" spreadMethod="reflect" x1="21.094994" x2="13.96104" xlink:href="#linearGradient6446" y1="21.101994" y2="28.235947"/>
    <linearGradient gradientTransform="translate(0.4129032,0.6193548)" gradientUnits="userSpaceOnUse" id="linearGradient6472" inkscape:collect="always" spreadMethod="reflect" x1="21.094994" x2="13.96104" xlink:href="#linearGradient6446" y1="21.101994" y2="28.235947"/>
    <linearGradient gradientUnits="userSpaceOnUse" id="linearGradient6637" inkscape:collect="always" x1="55.329033" x2="55.329033" xlink:href="#linearGradient6631" y1="112" y2="74.913147"/>
    <linearGradient gradientTransform="translate(0,3)" gradientUnits="userSpaceOnUse" id="linearGradient6649" inkscape:collect="always" x1="62.038712" x2="62.038712" xlink:href="#linearGradient6643" y1="15.91371" y2="50.728985"/>
    <linearGradient gradientUnits="userSpaceOnUse" id="linearGradient6680" inkscape:collect="always" x1="19.096775" x2="19.934336" xlink:href="#linearGradient6674" y1="50.580647" y2="88.633484"/>
    <linearGradient gradientUnits="userSpaceOnUse" id="linearGradient2816" inkscape:collect="always" x1="64" x2="74.447762" xlink:href="#linearGradient6446" y1="-26.936626" y2="82.029854"/>
    <linearGradient gradientTransform="translate(0.2623629,1)" gradientUnits="userSpaceOnUse" id="linearGradient3231" inkscape:collect="always" x1="59.225807" x2="59.225807" xlink:href="#linearGradient6446" y1="7.8973217" y2="46.228859"/>
    <linearGradient gradientTransform="translate(0.2332229,1.9150941)" gradientUnits="userSpaceOnUse" id="linearGradient3233" inkscape:collect="always" x1="115.76678" x2="31.376678" xlink:href="#linearGradient6446" y1="71.084908" y2="21.03125"/>
    <linearGradient gradientUnits="userSpaceOnUse" id="linearGradient3243" inkscape:collect="always" x1="-60.945251" x2="-60" xlink:href="#linearGradient3237" y1="105.83054" y2="8"/>
    <filter id="filter3281" inkscape:collect="always">
      <feGaussianBlur id="feGaussianBlur3283" inkscape:collect="always" stdDeviation="0.32872878"/>
    </filter>
    <linearGradient gradientUnits="userSpaceOnUse" id="linearGradient3289" inkscape:collect="always" x1="60.402065" x2="60.402065" xlink:href="#linearGradient6674" y1="64.076149" y2="-20.962214"/>
    <filter id="filter3319" inkscape:collect="always">
      <feGaussianBlur id="feGaussianBlur3321" inkscape:collect="always" stdDeviation="1.6179775"/>
    </filter>
    <radialGradient cx="63.041775" cy="74.979408" fx="73.551216" fy="51.592991" gradientTransform="matrix(-1.1040885,0.8280667,-0.6647496,-0.8863327,191.44623,62.253906)" gradientUnits="userSpaceOnUse" id="radialGradient2409" inkscape:collect="always" r="43.474762" spreadMethod="reflect" xlink:href="#linearGradient2990"/>
    <filter id="filter3117" inkscape:collect="always">
      <feGaussianBlur id="feGaussianBlur3119" inkscape:collect="always" stdDeviation="0.57829489"/>
    </filter>
    <filter id="filter3125" inkscape:collect="always">
      <feGaussianBlur id="feGaussianBlur3127" inkscape:collect="always" stdDeviation="0.430125"/>
    </filter>
    <clipPath clipPathUnits="userSpaceOnUse" id="clipPath3129">
      <path d="M -184.73645,27.94375 C -194.97576,27.943751 -205.20567,31.818176 -212.97026,39.582762 C -220.97748,47.589993 -224.8595,58.222613 -224.60927,68.779409 L -224.60927,96.822041 C -224.60927,100.87378 -221.35477,104.12828 -217.30303,104.12828 L -152.16987,104.12828 C -148.11813,104.12828 -144.86363,100.87378 -144.86363,96.822041 L -144.86363,68.779409 C -144.6134,58.222612 -148.49541,47.589993 -156.50264,39.582762 C -164.26722,31.818171 -174.49713,27.943749 -184.73645,27.94375 z M -184.73645,43.481014 C -178.39709,43.481015 -172.04817,45.9179 -167.17881,50.787256 C -162.36739,55.59868 -159.92981,61.833382 -159.87257,68.090021 L -209.57201,68.090021 C -209.51476,61.833381 -207.1055,55.598679 -202.29408,50.787256 C -197.42472,45.917895 -191.0758,43.481013 -184.73645,43.481014 z" id="path3131" sodipodi:nodetypes="csccccccsccsccsc" style="fill:url(#radialGradient3133);fill-opacity:1;stroke:none;stroke-width:16.49500084;stroke-linecap:round;stroke-linejoin:round;stroke-miterlimit:4;stroke-dasharray:none;stroke-dashoffset:4.15;stroke-opacity:1"/>
    </clipPath>
    <radialGradient cx="77.533371" cy="74.979416" fx="88.042809" fy="51.592991" gradientTransform="matrix(-0.4961056,0.4409829,-0.7360594,-0.8280666,-99.14147,87.897058)" gradientUnits="userSpaceOnUse" id="radialGradient3133" inkscape:collect="always" r="43.474762" spreadMethod="reflect" xlink:href="#linearGradient2990"/>
    <clipPath clipPathUnits="userSpaceOnUse" id="clipPath3135">
      <path d="M -97.32181,27.94375 C -107.56112,27.943751 -117.79103,31.818176 -125.55562,39.582762 C -133.56284,47.589993 -137.44486,58.222613 -137.19463,68.779409 L -137.19463,96.822041 C -137.19463,100.87378 -133.94013,104.12828 -129.88839,104.12828 L -64.755235,104.12828 C -60.703495,104.12828 -57.448995,100.87378 -57.448995,96.822041 L -57.448995,68.779409 C -57.198765,58.222612 -61.080775,47.589993 -69.088001,39.582762 C -76.852581,31.818171 -87.082497,27.943749 -97.32181,27.94375 z M -97.32181,43.481014 C -90.982458,43.481015 -84.633535,45.9179 -79.764176,50.787256 C -74.95275,55.59868 -72.515179,61.833382 -72.457934,68.090021 L -122.15737,68.090021 C -122.10012,61.833381 -119.69086,55.598679 -114.87944,50.787256 C -110.01008,45.917895 -103.66116,43.481013 -97.32181,43.481014 z" id="path3137" sodipodi:nodetypes="csccccccsccsccsc" style="fill:url(#radialGradient3139);fill-opacity:1;stroke:none;stroke-width:16.49500084;stroke-linecap:round;stroke-linejoin:round;stroke-miterlimit:4;stroke-dasharray:none;stroke-dashoffset:4.15;stroke-opacity:1"/>
    </clipPath>
    <radialGradient cx="77.533371" cy="74.979416" fx="88.042809" fy="51.592991" gradientTransform="matrix(-0.4961056,0.4409829,-0.7360594,-0.8280666,-11.726835,87.897058)" gradientUnits="userSpaceOnUse" id="radialGradient3139" inkscape:collect="always" r="43.474762" spreadMethod="reflect" xlink:href="#linearGradient2990"/>
    <filter id="filter3227" inkscape:collect="always">
      <feGaussianBlur id="feGaussianBlur3229" inkscape:collect="always" stdDeviation="0.1146943"/>
    </filter>
  </defs>
  <sodipodi:namedview bordercolor="#666666" borderlayer="true" borderopacity="1.0" gridempspacing="2" gridspacingx="4px" gridspacingy="4px" gridtolerance="10000" guidetolerance="10" height="128px" id="base" inkscape:current-layer="layer1" inkscape:cx="111.45871" inkscape:cy="79.073445" inkscape:document-units="px" inkscape:guide-bbox="true" inkscape:pageopacity="0.0" inkscape:pageshadow="2" inkscape:showpageshadow="false" inkscape:window-height="750" inkscape:window-width="986" inkscape:window-x="426" inkscape:window-y="222" inkscape:zoom="1.046875" objecttolerance="10" pagecolor="#ffffff" showborder="true" showgrid="false" showguides="true" width="128px">
    <inkscape:grid empspacing="2" id="grid3285" spacingx="4px" spacingy="4px" type="xygrid"/>
  </sodipodi:namedview>
  <g id="layer1" inkscape:groupmode="layer" inkscape:label="Layer 1">
    <path d="M 18.083601,8 L 109.9164,8 C 115.50271,8 120,12.497286 120,18.083601 L 120,109.9164 C 120,115.50271 115.50271,120 109.9164,120 L 18.083601,120 C 12.497286,120 8,115.50271 8,109.9164 L 8,18.083601 C 8,12.497286 12.497286,8 18.083601,8 z" id="rect3287" sodipodi:nodetypes="ccccccccc" style="fill:url(#linearGradient3289);fill-opacity:1;stroke:none;stroke-width:3;stroke-linecap:round;stroke-linejoin:round;stroke-miterlimit:4;stroke-opacity:1;filter:url(#filter3319)"/>
    <path d="M 18.083601,8 L 109.9164,8 C 115.50271,8 120,12.497286 120,18.083601 L 120,109.9164 C 120,115.50271 115.50271,120 109.9164,120 L 18.083601,120 C 12.497286,120 8,115.50271 8,109.9164 L 8,18.083601 C 8,12.497286 12.497286,8 18.083601,8 z" id="rect8666" sodipodi:nodetypes="ccccccccc" style="fill:url(#linearGradient6410);fill-opacity:1;stroke:none;stroke-width:3;stroke-linecap:round;stroke-linejoin:round;stroke-miterlimit:4;stroke-opacity:1"/>
    <path d="M 18.083601,10 L 109.9164,10 C 115.50271,10 120,14.497286 120,20.083601 L 120,109.9164 C 120,115.50271 115.50271,120 109.9164,120 L 18.083601,120 C 12.497286,120 8,115.50271 8,109.9164 L 8,20.083601 C 8,14.497286 12.497286,10 18.083601,10 z" id="rect6672" sodipodi:nodetypes="ccccccccc" style="opacity:0.08290154000000000;fill:url(#linearGradient6680);fill-opacity:1;stroke:none;stroke-width:3;stroke-linecap:round;stroke-linejoin:round;stroke-miterlimit:4;stroke-opacity:1"/>
    <path d="M -109.38386,12.614708 L -19.616139,12.614708 C -15.737346,12.614708 -12.614708,15.737346 -12.614708,19.616139 L -12.614708,108.38386 C -12.614708,112.26265 -15.737346,115.38529 -19.616139,115.38529 L -109.38386,115.38529 C -113.26265,115.38529 -116.38529,112.26265 -116.38529,108.38386 L -116.38529,19.616139 C -116.38529,15.737346 -113.26265,12.614708 -109.38386,12.614708 z" id="rect9641" sodipodi:nodetypes="ccccccccc" style="fill:url(#radialGradient9692);fill-opacity:1;stroke:none;stroke-width:3;stroke-linecap:round;stroke-linejoin:round;stroke-miterlimit:4;stroke-opacity:1" transform="scale(-1,1)"/>
    <path d="M 17.906944,8.299378 C 13.216769,8.299378 8.509435,11.867379 8.509435,17.698118 L 12.77674,17.639205 C 13.229113,15.50937 15.628704,13.368243 17.303345,13.03582 L 17.906944,8.299378 z" id="rect6433" sodipodi:nodetypes="ccccc" style="opacity:0.8876405;fill:url(#linearGradient6452);fill-opacity:1;stroke:none;stroke-width:3;stroke-linecap:round;stroke-linejoin:round;stroke-miterlimit:4;stroke-dasharray:none;stroke-opacity:1;filter:url(#filter6458)"/>
    <path d="M 25.397509,16.46919 C 20.707334,16.46919 16.429601,20.123899 16.429601,25.954638 L 20.77674,25.639205 C 21.229113,23.50937 23.628704,21.368243 25.303345,21.03582 L 25.397509,16.46919 z" id="path6462" sodipodi:nodetypes="ccccc" style="opacity:0.8689139;fill:url(#linearGradient6464);fill-opacity:1;stroke:none;stroke-width:3;stroke-linecap:round;stroke-linejoin:round;stroke-miterlimit:4;stroke-dasharray:none;stroke-opacity:1;filter:url(#filter6458)" transform="matrix(-1,0,0,1,135.86741,-8)"/>
    <path d="M 8,105.875 L 8,109.90625 C 8,115.49256 12.507435,120 18.09375,120 L 109.90625,120 C 115.49256,120 120,115.49257 120,109.90625 L 120,105.875 C 120,111.46131 115.49256,115.96875 109.90625,115.96875 L 18.09375,115.96875 C 12.507435,115.96875 8,111.46131 8,105.875 z" id="rect6626" sodipodi:nodetypes="ccccccccc" style="opacity:0.08290155;fill:url(#linearGradient6637);fill-opacity:1.0;stroke:none;stroke-width:3;stroke-linecap:round;stroke-linejoin:round;stroke-miterlimit:4;stroke-dasharray:none;stroke-opacity:1"/>
    <path d="M 26.246568,16.978625 C 21.556393,16.978625 16.769225,20.633334 16.769225,26.464073 L 20.77674,25.639205 C 21.229113,23.50937 23.628704,21.368243 25.303345,21.03582 L 26.246568,16.978625 z" id="path6466" sodipodi:nodetypes="ccccc" style="opacity:0.29891304;fill:url(#linearGradient6470);fill-opacity:1;stroke:none;stroke-width:3;stroke-linecap:round;stroke-linejoin:round;stroke-miterlimit:4;stroke-dasharray:none;stroke-opacity:1;filter:url(#filter6458)" transform="matrix(1,0,0,-1,-8,136.08786)"/>
    <path d="M 26.246568,16.978625 C 21.556393,16.978625 16.769225,20.633334 16.769225,26.464073 L 20.77674,25.639205 C 21.229113,23.50937 23.628704,21.368243 25.303345,21.03582 L 26.246568,16.978625 z" id="path6468" sodipodi:nodetypes="ccccc" style="opacity:0.29891304;fill:url(#linearGradient6472);fill-opacity:1;stroke:none;stroke-width:3;stroke-linecap:round;stroke-linejoin:round;stroke-miterlimit:4;stroke-dasharray:none;stroke-opacity:1;filter:url(#filter3227)" transform="matrix(-1,0,0,-1,135.86741,136.08786)"/>
    <path d="M 8,23.03871 L 8,19.00746 C 8,13.42115 12.507435,8.91371 18.09375,8.91371 L 109.90625,8.91371 C 115.49256,8.91371 120,13.42114 120,19.00746 L 120,23.03871 C 120,17.4524 115.49256,12.94496 109.90625,12.94496 L 18.09375,12.94496 C 12.507435,12.94496 8,17.4524 8,23.03871 z" id="path6639" sodipodi:nodetypes="ccccccccc" style="opacity:0.38860103;fill:url(#linearGradient6649);fill-opacity:1;stroke:none;stroke-width:3;stroke-linecap:round;stroke-linejoin:round;stroke-miterlimit:4;stroke-dasharray:none;stroke-opacity:1"/>
    <g id="g3227" transform="translate(0,-1)">
      <path d="M 19.441303,13.28125 C 15.451078,13.28125 12.253803,16.478525 12.253803,20.46875 L 12.253803,21.46875 C 12.253803,17.478525 15.451078,14.28125 19.441303,14.28125 L 109.0663,14.28125 C 113.05653,14.28125 116.2538,17.478525 116.2538,21.46875 L 116.2538,20.46875 C 116.2538,16.478525 113.05653,13.28125 109.0663,13.28125 L 19.441303,13.28125 z" id="path3207" sodipodi:nodetypes="ccccccccc" style="opacity:1;fill:url(#linearGradient3231);fill-opacity:1;stroke:none;stroke-width:3;stroke-linecap:round;stroke-linejoin:round;stroke-miterlimit:4;stroke-dasharray:none;stroke-opacity:1"/>
      <path d="M 112.21077,14.946344 C 113.80613,16.261139 114.83577,18.233092 114.83577,20.477594 L 114.83577,54.977594 C 114.6424,55.305632 114.39903,55.644913 114.11702,55.977594 C 86.869243,66.464121 40.804813,69.465921 12.242023,62.602594 L 12.242023,63.165094 C 41.223093,70.471727 87.827513,67.54278 115.52327,56.883844 C 115.80529,56.551161 116.04865,56.211882 116.24202,55.883844 L 116.24202,21.383844 C 116.24202,18.530833 114.60098,16.10976 112.21077,14.946344 z" id="path3215" sodipodi:nodetypes="cccccccccc" style="opacity:1;fill:url(#linearGradient3233);fill-opacity:1;stroke:none;stroke-width:3;stroke-linecap:round;stroke-linejoin:round;stroke-miterlimit:4;stroke-dasharray:none;stroke-opacity:1"/>
    </g>
    <path d="M -109.38386,13.614708 L -19.616139,13.614708 C -15.737346,13.614708 -12.614708,16.737346 -12.614708,20.616139 L -12.614708,108.38386 C -12.614708,112.26265 -15.737346,115.38529 -19.616139,115.38529 L -109.38386,115.38529 C -113.26265,115.38529 -116.38529,112.26265 -116.38529,108.38386 L -116.38529,20.616139 C -116.38529,16.737346 -113.26265,13.614708 -109.38386,13.614708 z" id="rect3235" sodipodi:nodetypes="ccccccccc" style="fill:none;fill-opacity:1;stroke:url(#linearGradient3243);stroke-width:1;stroke-linecap:round;stroke-linejoin:round;stroke-miterlimit:4;stroke-opacity:1;filter:url(#filter3281)" transform="scale(-1,1)"/>
    <path d="M 19.1875,12.28125 C 15.197275,12.28125 12,15.478525 12,19.46875 L 12,61.25 C 40.981077,68.556633 87.585499,65.627686 115.28125,54.96875 C 115.56327,54.636067 115.80663,54.296788 116,53.96875 L 116,19.46875 C 116,15.478525 112.80273,12.28125 108.8125,12.28125 L 19.1875,12.28125 z" id="rect9679" sodipodi:nodetypes="cccccccc" style="opacity:1;fill:url(#linearGradient2816);fill-opacity:1;stroke:none;stroke-width:3;stroke-linecap:round;stroke-linejoin:round;stroke-miterlimit:4;stroke-dasharray:none;stroke-opacity:1"/>
    <path d="M 64.059055,27.94375 C 53.819741,27.943751 43.589834,31.818176 35.825246,39.582762 C 27.818022,47.589993 23.936004,58.222613 24.186233,68.779409 L 24.186233,96.822041 C 24.186233,100.87378 27.440735,104.12828 31.492475,104.12828 L 96.62563,104.12828 C 100.67737,104.12828 103.93187,100.87378 103.93187,96.822041 L 103.93187,68.779409 C 104.1821,58.222612 100.30009,47.589993 92.292864,39.582762 C 84.528284,31.818171 74.298368,27.943749 64.059055,27.94375 z M 64.059055,43.481014 C 70.398407,43.481015 76.74733,45.9179 81.616689,50.787256 C 86.428115,55.59868 88.865686,61.833382 88.922931,68.090021 L 39.223498,68.090021 C 39.280742,61.833381 41.690003,55.598679 46.50142,50.787256 C 51.37078,45.917895 57.719702,43.481013 64.059055,43.481014 z" id="path2968" sodipodi:nodetypes="csccccccsccsccsc" style="fill:url(#radialGradient2409);fill-opacity:1;stroke:none;stroke-width:16.49500084;stroke-linecap:round;stroke-linejoin:round;stroke-miterlimit:4;stroke-dasharray:none;stroke-dashoffset:4.15;stroke-opacity:1"/>
    <path clip-path="url(#clipPath3135)" d="M -97.3125,26.72222 C -107.55181,26.72222 -117.79791,30.58264 -125.5625,38.34722 C -133.56972,46.35445 -137.43773,57.00917 -137.1875,67.56597 L -137.1875,68.56597 C -136.93787,58.66998 -133.06927,48.854 -125.5625,41.34722 C -117.79791,33.58264 -107.55181,29.72222 -97.3125,29.72222 C -87.073187,29.72222 -76.858334,33.58263 -69.09375,41.34722 C -61.586976,48.854 -57.687132,58.66998 -57.4375,68.56597 L -57.4375,67.56597 C -57.187271,57.00918 -61.086524,46.35445 -69.09375,38.34722 C -76.858334,30.58263 -87.073187,26.72222 -97.3125,26.72222 z M -121.9375,66.87847 C -122.06665,67.87015 -122.14711,68.87997 -122.15625,69.87847 L -72.46875,69.87847 C -72.477886,68.87997 -72.557142,67.87015 -72.6875,66.87847 L -121.9375,66.87847 z" id="path3007" style="fill:#000000;fill-opacity:0.60946745;stroke:none;stroke-width:16.49500084;stroke-linecap:round;stroke-linejoin:round;stroke-miterlimit:4;stroke-dasharray:none;stroke-dashoffset:4.15;stroke-opacity:1;filter:url(#filter3117)" transform="translate(161.28155,0)"/>
    <path clip-path="url(#clipPath3129)" d="M -184.75,42.063121 C -191.08935,42.063121 -197.41189,44.506251 -202.28125,49.375621 C -207.09267,54.187041 -209.50525,60.400241 -209.5625,66.656871 L -209.34375,66.656871 C -208.66076,61.440701 -206.32039,56.414761 -202.28125,52.375621 C -197.41189,47.506251 -191.08935,45.063121 -184.75,45.063121 C -178.41064,45.063121 -172.05686,47.506261 -167.1875,52.375621 C -163.14836,56.414761 -160.78315,61.440701 -160.09375,66.656871 L -159.875,66.656871 C -159.93224,60.400231 -162.37609,54.187041 -167.1875,49.375621 C -172.05686,44.506261 -178.41064,42.063121 -184.75,42.063121 z M -224.59375,95.406871 L -224.59375,98.406871 C -224.59375,102.45861 -221.36424,105.71937 -217.3125,105.71937 L -152.15625,105.71937 C -148.1045,105.71937 -144.875,102.45861 -144.875,98.406871 L -144.875,95.406871 C -144.875,99.45861 -148.1045,102.71937 -152.15625,102.71937 L -217.3125,102.71937 C -221.36424,102.71937 -224.59375,99.45861 -224.59375,95.406871 z" id="path3016" sodipodi:nodetypes="csccsssccscccccccccc" style="fill:#ffffff;fill-opacity:1;stroke:none;stroke-width:16.49500084;stroke-linecap:round;stroke-linejoin:round;stroke-miterlimit:4;stroke-dasharray:none;stroke-dashoffset:4.15;stroke-opacity:1;filter:url(#filter3125)" transform="translate(248.71589,0)"/>
  </g>
</svg>
