<?xml version="1.0" encoding="UTF-8" standalone="no"?>
<!-- Created with Inkscape (http://www.inkscape.org/) --><svg height="128" id="svg13875" inkscape:export-filename="/home/pinheiro/pics/oxygen/scalable/status/user-trash-full.png" inkscape:export-xdpi="360" inkscape:export-ydpi="360" inkscape:output_extension="org.inkscape.output.svg.inkscape" inkscape:version="0.45.1" sodipodi:docbase="/home/pinheiro/tmp" sodipodi:docname="ink_ext_ML6M0T" sodipodi:version="0.32" version="1.0" width="128" xmlns="http://www.w3.org/2000/svg" xmlns:cc="http://web.resource.org/cc/" xmlns:dc="http://purl.org/dc/elements/1.1/" xmlns:inkscape="http://www.inkscape.org/namespaces/inkscape" xmlns:ns="http://creativecommons.org/ns#" xmlns:rdf="http://www.w3.org/1999/02/22-rdf-syntax-ns#" xmlns:sodipodi="http://sodipodi.sourceforge.net/DTD/sodipodi-0.dtd" xmlns:svg="http://www.w3.org/2000/svg" xmlns:xlink="http://www.w3.org/1999/xlink">
  <metadata>
    <rdf:RDF xmlns:cc="http://web.resource.org/cc/" xmlns:dc="http://purl.org/dc/elements/1.1/" xmlns:rdf="http://www.w3.org/1999/02/22-rdf-syntax-ns#">
      <cc:Work rdf:about="">
        <dc:title></dc:title>
        <dc:description></dc:description>
        <dc:subject>
          <rdf:Bag>
            <rdf:li>unsorted</rdf:li>
          </rdf:Bag>
        </dc:subject>
        <dc:publisher>
          <cc:Agent rdf:about="http://www.openclipart.org/">
            <dc:title>Open Clip Art Library, Source: Oxygen Icons, Source: Oxygen Icons, Source: Oxygen Icons, Source: Oxygen Icons</dc:title>
          </cc:Agent>
        </dc:publisher>
        <dc:creator>
          <cc:Agent>
            <dc:title></dc:title>
          </cc:Agent>
        </dc:creator>
        <dc:rights>
          <cc:Agent>
            <dc:title></dc:title>
          </cc:Agent>
        </dc:rights>
        <dc:date></dc:date>
        <dc:format>image/svg+xml</dc:format>
        <dc:type rdf:resource="http://purl.org/dc/dcmitype/StillImage"/>
        <cc:license rdf:resource="http://creativecommons.org/licenses/by-sa/3.0/ or http://creativecommons.org/licenses/LGPL/2.1/"/>
        <dc:language>en</dc:language>
      </cc:Work>
    </rdf:RDF>
  </metadata>
  <defs id="defs13877">
    <linearGradient id="linearGradient4246">
      <stop id="stop4248" offset="0" style="stop-color:#ffffff;stop-opacity:0;"/>
      <stop id="stop4252" offset="0.17" style="stop-color:#ffffff;stop-opacity:0.76363635;"/>
      <stop id="stop4250" offset="1" style="stop-color:#ffffff;stop-opacity:0;"/>
    </linearGradient>
    <linearGradient id="linearGradient4393">
      <stop id="stop4395" offset="0" style="stop-color:#495761;stop-opacity:0.85818183;"/>
      <stop id="stop4397" offset="1" style="stop-color:#555555;stop-opacity:0"/>
    </linearGradient>
    <linearGradient id="linearGradient4319" inkscape:collect="always">
      <stop id="stop4321" offset="0" style="stop-color:#ffffff;stop-opacity:1;"/>
      <stop id="stop4323" offset="1" style="stop-color:#ffffff;stop-opacity:0;"/>
    </linearGradient>
    <linearGradient id="linearGradient4307">
      <stop id="stop4309" offset="0" style="stop-color:#000000;stop-opacity:0;"/>
      <stop id="stop4315" offset="0.5" style="stop-color:#000000;stop-opacity:0;"/>
      <stop id="stop4317" offset="0.75" style="stop-color:#000000;stop-opacity:0.31636363;"/>
      <stop id="stop4311" offset="1" style="stop-color:#000000;stop-opacity:1;"/>
    </linearGradient>
    <linearGradient id="linearGradient4273">
      <stop id="stop4275" offset="0" style="stop-color:#ffffff;stop-opacity:1;"/>
      <stop id="stop4474" offset="0.5" style="stop-color:#ffffff;stop-opacity:0.84363633;"/>
      <stop id="stop4277" offset="1" style="stop-color:#ffffff;stop-opacity:0;"/>
    </linearGradient>
    <linearGradient id="linearGradient4034" inkscape:collect="always">
      <stop id="stop4036" offset="0" style="stop-color:#000000;stop-opacity:1;"/>
      <stop id="stop4038" offset="1" style="stop-color:#000000;stop-opacity:0;"/>
    </linearGradient>
    <linearGradient id="linearGradient3422" inkscape:collect="always">
      <stop id="stop3424" offset="0" style="stop-color:#000000;stop-opacity:1;"/>
      <stop id="stop3426" offset="1" style="stop-color:#000000;stop-opacity:0"/>
    </linearGradient>
    <linearGradient id="linearGradient3412" inkscape:collect="always">
      <stop id="stop3414" offset="0" style="stop-color:#000000;stop-opacity:1;"/>
      <stop id="stop3416" offset="1" style="stop-color:#000000;stop-opacity:0;"/>
    </linearGradient>
    <linearGradient gradientTransform="matrix(-1,-5.4e-3,5.4e-3,-1,-141.3699,28.3545)" gradientUnits="userSpaceOnUse" id="XMLID_58_" x1="-193.7769" x2="-195.8066" y1="15.0674" y2="15.0674">
      <stop id="stop3382" offset="0" style="stop-color:#888888"/>
      <stop id="stop3384" offset="0.9586" style="stop-color:#DDDDDD"/>
    </linearGradient>
    <linearGradient gradientUnits="userSpaceOnUse" id="XMLID_57_" x1="68.6836" x2="66.3701" y1="19.4556" y2="19.4556">
      <stop id="stop3375" offset="0" style="stop-color:#888888"/>
      <stop id="stop3377" offset="0.9586" style="stop-color:#DDDDDD"/>
    </linearGradient>
    <linearGradient gradientUnits="userSpaceOnUse" id="XMLID_56_" x1="63.4507" x2="61.6235" y1="17.4116" y2="17.4116">
      <stop id="stop3368" offset="0" style="stop-color:#888888"/>
      <stop id="stop3370" offset="0.9586" style="stop-color:#DDDDDD"/>
    </linearGradient>
    <radialGradient cx="69.4697" cy="34.4683" gradientUnits="userSpaceOnUse" id="XMLID_54_" r="17.6913">
      <stop id="stop41777" offset="0" style="stop-color:#FFFFFF"/>
      <stop id="stop41779" offset="0.7101" style="stop-color:#E3AD00"/>
    </radialGradient>
    <radialGradient cx="18.1191" cy="30.1279" gradientUnits="userSpaceOnUse" id="XMLID_50_" r="97.661">
      <stop id="stop3312" offset="0" style="stop-color:#A8DDE0"/>
      <stop id="stop3314" offset="0.3018" style="stop-color:#FFFFFF"/>
      <stop id="stop3316" offset="0.7101" style="stop-color:#888888"/>
    </radialGradient>
    <linearGradient gradientUnits="userSpaceOnUse" id="XMLID_49_" x1="32.5" x2="52.1123" y1="23.4141" y2="23.4141">
      <stop id="stop3299" offset="0.0178" style="stop-color:#FFFFFF"/>
      <stop id="stop3301" offset="0.5621" style="stop-color:#BABDB6"/>
      <stop id="stop3303" offset="0.7041" style="stop-color:#BABDB6"/>
    </linearGradient>
    <linearGradient gradientUnits="userSpaceOnUse" id="XMLID_48_" x1="30.3335" x2="38.3335" y1="28.9072" y2="28.9072">
      <stop id="stop3292" offset="0" style="stop-color:#FFFFFF"/>
      <stop id="stop3294" offset="0.7101" style="stop-color:#888888"/>
    </linearGradient>
    <linearGradient gradientUnits="userSpaceOnUse" id="XMLID_45_" x1="91.666" x2="94" y1="21.667" y2="21.667">
      <stop id="stop3269" offset="0" style="stop-color:#BBBBBB"/>
      <stop id="stop3271" offset="1" style="stop-color:#888888"/>
    </linearGradient>
    <radialGradient cx="64.1768" cy="29.1768" gradientUnits="userSpaceOnUse" id="XMLID_44_" r="42.0168">
      <stop id="stop3262" offset="0" style="stop-color:#FFFFFF"/>
      <stop id="stop3264" offset="0.60751748" style="stop-color:#888888"/>
    </radialGradient>
    <linearGradient gradientUnits="userSpaceOnUse" id="XMLID_43_" x1="75.875" x2="74.6251" y1="17.625" y2="16.3751">
      <stop id="stop3247" offset="0" style="stop-color:#cc7300;stop-opacity:1;"/>
      <stop id="stop3251" offset="1" style="stop-color:#ffcd06;stop-opacity:0;"/>
    </linearGradient>
    <linearGradient gradientUnits="userSpaceOnUse" id="XMLID_42_" x1="88.125" x2="85.1253" y1="30.3755" y2="27.3758">
      <stop id="stop3238" offset="0" style="stop-color:#888888"/>
      <stop id="stop3240" offset="0.72237682" style="stop-color:#888888;stop-opacity:0.53797466;"/>
      <stop id="stop3242" offset="1" style="stop-color:#bbbbbb;stop-opacity:0;"/>
    </linearGradient>
    <linearGradient gradientUnits="userSpaceOnUse" id="XMLID_40_" x1="66.8135" x2="98.8281" y1="24.293" y2="24.293">
      <stop id="stop3220" offset="0" style="stop-color:#FFFFFF"/>
      <stop id="stop3222" offset="0.4734" style="stop-color:#f6fb35;stop-opacity:1;"/>
      <stop id="stop3224" offset="1" style="stop-color:#e2b400;stop-opacity:1;"/>
    </linearGradient>
    <linearGradient gradientUnits="userSpaceOnUse" id="XMLID_39_" x1="83.1289" x2="102.167" y1="23.6338" y2="23.6338">
      <stop id="stop3203" offset="0" style="stop-color:#FFFFFF"/>
      <stop id="stop3205" offset="0.4734" style="stop-color:#DDDDDD"/>
      <stop id="stop3207" offset="1" style="stop-color:#EEEEEE"/>
    </linearGradient>
    <linearGradient gradientTransform="matrix(1.1037,-0.3564,0.272,0.8422,6.766,-21.7477)" gradientUnits="userSpaceOnUse" id="XMLID_37_" x1="23.3086" x2="13.8441" y1="66.2324" y2="56.768">
      <stop id="stop3185" offset="0.4734" style="stop-color:#888A85"/>
      <stop id="stop3187" offset="1" style="stop-color:#BABDB6"/>
    </linearGradient>
    <radialGradient cx="23.0366" cy="58.9688" gradientTransform="matrix(1.1037,-0.3564,0.272,0.8422,6.766,-21.7477)" gradientUnits="userSpaceOnUse" id="XMLID_36_" r="14.3477">
      <stop id="stop3166" offset="0" style="stop-color:#FFFFFF"/>
      <stop id="stop3168" offset="0.4734" style="stop-color:#D3D7CF"/>
      <stop id="stop3170" offset="1" style="stop-color:#EEEEEE"/>
    </radialGradient>
    <linearGradient gradientTransform="matrix(0.5893032,0,0,0.5492544,39.748347,3.638533)" gradientUnits="userSpaceOnUse" id="linearGradient37980" x1="82.700996" x2="17.94482" y1="50.862339" y2="55.432186">
      <stop id="stop37982" offset="0" style="stop-color:#FFFFFF"/>
      <stop id="stop37984" offset="1" style="stop-color:#e9eaef;stop-opacity:1;"/>
    </linearGradient>
    <linearGradient gradientTransform="matrix(0.5893032,0,0,0.5492544,39.748347,3.638533)" gradientUnits="userSpaceOnUse" id="XMLID_4_" x1="82.700996" x2="17.94482" y1="50.862339" y2="55.432186">
      <stop id="stop36752" offset="0" style="stop-color:#FFFFFF"/>
      <stop id="stop41203" offset="0.5" style="stop-color:#cbe9f7;stop-opacity:1;"/>
      <stop id="stop36754" offset="1" style="stop-color:#0580ad;stop-opacity:1;"/>
    </linearGradient>
    <linearGradient gradientTransform="matrix(0.5893032,0,0,0.5492544,39.748347,3.638533)" gradientUnits="userSpaceOnUse" id="XMLID_3_" x1="63.121002" x2="5.1350002" y1="36.37796" y2="36.37796">
      <stop id="stop36731" offset="0" style="stop-color:#FFFFFF"/>
      <stop id="stop36733" offset="0.77068537" style="stop-color:#bfccd8;stop-opacity:1;"/>
      <stop id="stop36735" offset="1" style="stop-color:#a4aebf;stop-opacity:1;"/>
    </linearGradient>
    <linearGradient id="linearGradient2497">
      <stop id="stop2499" offset="0" style="stop-color:#ffffff;stop-opacity:1;"/>
      <stop id="stop11148" offset="0.5" style="stop-color:#ececec;stop-opacity:1;"/>
      <stop id="stop2501" offset="1" style="stop-color:#c1c1c1;stop-opacity:1;"/>
    </linearGradient>
    <linearGradient id="linearGradient3149">
      <stop id="stop3151" offset="0" style="stop-color:#8e8e8e;stop-opacity:1;"/>
      <stop id="stop3153" offset="1" style="stop-color:#f8f8f8;stop-opacity:1;"/>
    </linearGradient>
    <linearGradient id="linearGradient3235" inkscape:collect="always">
      <stop id="stop3237" offset="0" style="stop-color:#ffffff;stop-opacity:1;"/>
      <stop id="stop3239" offset="1" style="stop-color:#ffffff;stop-opacity:0;"/>
    </linearGradient>
    <linearGradient id="linearGradient12049">
      <stop id="stop12051" offset="0" style="stop-color:#ffffff;stop-opacity:1;"/>
      <stop id="stop12053" offset="1" style="stop-color:#ffffff;stop-opacity:0;"/>
    </linearGradient>
    <linearGradient id="linearGradient22044">
      <stop id="stop22046" offset="0" style="stop-color:#db1414;stop-opacity:1;"/>
      <stop id="stop24443" offset="0.5" style="stop-color:#f04d4d;stop-opacity:1;"/>
      <stop id="stop22048" offset="1" style="stop-color:#8b0c0c;stop-opacity:1;"/>
    </linearGradient>
    <linearGradient id="linearGradient3207">
      <stop id="stop3209" offset="0" style="stop-color:#ffffff;stop-opacity:1;"/>
      <stop id="stop3211" offset="1" style="stop-color:#ffffff;stop-opacity:0;"/>
    </linearGradient>
    <linearGradient id="linearGradient3058">
      <stop id="stop3060" offset="0" style="stop-color:#9a7600;stop-opacity:1;"/>
      <stop id="stop3066" offset="0.09292036" style="stop-color:#e3ad00;stop-opacity:1;"/>
      <stop id="stop3070" offset="0.5043171" style="stop-color:#ffed2c;stop-opacity:1;"/>
      <stop id="stop3068" offset="0.91571385" style="stop-color:#e3ad00;stop-opacity:1;"/>
      <stop id="stop3062" offset="1" style="stop-color:#b98d00;stop-opacity:1;"/>
    </linearGradient>
    <linearGradient id="linearGradient2598">
      <stop id="stop2600" offset="0" style="stop-color:#f4f4f4;stop-opacity:1;"/>
      <stop id="stop24060" offset="0.5" style="stop-color:#626262;stop-opacity:1;"/>
      <stop id="stop2602" offset="1" style="stop-color:#000000;stop-opacity:1;"/>
    </linearGradient>
    <linearGradient gradientUnits="userSpaceOnUse" id="linearGradient5228" style="fill-opacity:1.0;fill:url(#linearGradient4680)" x1="431.97311" x2="212.95171" y1="252.2095" y2="291.21341">
      <stop id="stop5230" offset="0" style="stop-color:#555555;stop-opacity:0.75949365;"/>
      <stop id="stop5232" offset="0.5" style="stop-color:#666666;stop-opacity:0.24050634;"/>
      <stop id="stop5234" offset="0.89874542" style="stop-color:#333333;stop-opacity:0.8101266;"/>
    </linearGradient>
    <linearGradient gradientTransform="translate(828,86.72)" gradientUnits="userSpaceOnUse" id="XMLID_9_" x1="103.4307" x2="24.569799" y1="21.2803" y2="21.2803">
      <stop id="stop2429" offset="0" style="stop-color:#1c1c1c;stop-opacity:1;"/>
      <stop id="stop2431" offset="0.1235" style="stop-color:#d9d9d9;stop-opacity:1;"/>
      <stop id="stop2433" offset="0.27590001" style="stop-color:#a4a4a4;stop-opacity:1;"/>
      <stop id="stop4269" offset="0.33875373" style="stop-color:#bbbbbb;stop-opacity:1;"/>
      <stop id="stop2435" offset="0.40160745" style="stop-color:#b7b7b7;stop-opacity:1;"/>
      <stop id="stop2437" offset="0.66978472" style="stop-color:#484848;stop-opacity:1;"/>
      <stop id="stop2439" offset="1" style="stop-color:#b5b5b5;stop-opacity:1;"/>
    </linearGradient>
    <linearGradient id="linearGradient19073">
      <stop id="stop19079" offset="0" style="stop-color:#ffffff;stop-opacity:1;"/>
      <stop id="stop19077" offset="1" style="stop-color:#ffffff;stop-opacity:0;"/>
    </linearGradient>
    <filter id="AI_Sfocatura_4">
      <feGaussianBlur id="feGaussianBlur9" stdDeviation="4"/>
    </filter>
    <linearGradient id="linearGradient3699">
      <stop id="stop3701" offset="0" style="stop-color:#ffffff;stop-opacity:1;"/>
      <stop id="stop3703" offset="1" style="stop-color:#ffffff;stop-opacity:0;"/>
    </linearGradient>
    <linearGradient gradientUnits="userSpaceOnUse" id="XMLID_24_" x1="181.01559" x2="181.01559" y1="0" y2="142.49319">
      <stop id="stop60" offset="0" style="stop-color:#9fa4a5;stop-opacity:1;"/>
      <stop id="stop62" offset="0.45474255" style="stop-color:#cdd0d3;stop-opacity:1;"/>
      <stop id="stop64" offset="1" style="stop-color:#ffffff;stop-opacity:1;"/>
    </linearGradient>
    <linearGradient gradientTransform="translate(90.413,16.422)" gradientUnits="userSpaceOnUse" id="XMLID_23_" x1="42.438" x2="319.59421" y1="447.08401" y2="447.08401">
      <stop id="stop39" offset="0" style="stop-color:#828282;stop-opacity:1;"/>
      <stop id="stop41" offset="0.28477323" style="stop-color:#FFFFFF"/>
      <stop id="stop43" offset="0.50889999" style="stop-color:#ffffff;stop-opacity:1;"/>
      <stop id="stop45" offset="0.50889999" style="stop-color:#ffffff;stop-opacity:1;"/>
      <stop id="stop47" offset="0.68501925" style="stop-color:#fcfcfc;stop-opacity:1;"/>
      <stop id="stop49" offset="1" style="stop-color:#5f5f5f;stop-opacity:1;"/>
    </linearGradient>
    <linearGradient gradientUnits="userSpaceOnUse" id="linearGradient2339" inkscape:collect="always" x1="355.75729" x2="18.5562" xlink:href="#XMLID_9_" y1="68" y2="68"/>
    <radialGradient cx="104.52971" cy="249.74803" fx="104.52971" fy="249.74803" gradientTransform="matrix(0.5167955,0,0,2.8499754,50.509225,-495.84098)" gradientUnits="userSpaceOnUse" id="radialGradient3362" inkscape:collect="always" r="58.047768" xlink:href="#linearGradient3699"/>
    <radialGradient cx="39.005466" cy="45.135685" fx="39.005466" fy="45.135685" gradientTransform="matrix(1,0,0,13,0,-552)" gradientUnits="userSpaceOnUse" id="radialGradient19659" inkscape:collect="always" r="2" xlink:href="#linearGradient3207"/>
    <filter height="1.1707964" id="filter28639" inkscape:collect="always" width="1.2192145" x="-0.10960723" y="-0.08539821">
      <feGaussianBlur id="feGaussianBlur28641" inkscape:collect="always" stdDeviation="2.0094658"/>
    </filter>
    <filter height="1.2044299" id="filter36619" inkscape:collect="always" width="1.180995" x="-0.090497514" y="-0.10221494">
      <feGaussianBlur id="feGaussianBlur36621" inkscape:collect="always" stdDeviation="2.1527124"/>
    </filter>
    <filter id="filter40302" inkscape:collect="always">
      <feGaussianBlur id="feGaussianBlur40304" inkscape:collect="always" stdDeviation="0.82380899"/>
    </filter>
    <filter id="filter40689" inkscape:collect="always">
      <feGaussianBlur id="feGaussianBlur40691" inkscape:collect="always" stdDeviation="0.82380744"/>
    </filter>
    <linearGradient gradientTransform="matrix(0.5893032,0,0,0.5492544,39.748347,3.638533)" gradientUnits="userSpaceOnUse" id="linearGradient46111" inkscape:collect="always" x1="63.121002" x2="5.1350002" xlink:href="#XMLID_3_" y1="36.37796" y2="36.37796"/>
    <linearGradient gradientUnits="userSpaceOnUse" id="linearGradient46113" inkscape:collect="always" x1="97.76075" x2="60.25" xlink:href="#linearGradient37980" y1="27.429174" y2="-2.0708256"/>
    <linearGradient gradientTransform="matrix(0.5893032,0,0,0.5492544,39.748347,3.638533)" gradientUnits="userSpaceOnUse" id="linearGradient46115" inkscape:collect="always" x1="82.700996" x2="17.94482" xlink:href="#XMLID_4_" y1="50.862339" y2="55.432186"/>
    <linearGradient gradientTransform="matrix(1.1037,-0.3564,0.272,0.8422,6.766,-21.7477)" gradientUnits="userSpaceOnUse" id="linearGradient46117" inkscape:collect="always" x1="21.6567" x2="45.0366" xlink:href="#XMLID_23_" y1="60.9121" y2="60.9121"/>
    <radialGradient cx="23.0366" cy="58.9688" gradientTransform="matrix(1.1037,-0.3564,0.272,0.8422,6.766,-21.7477)" gradientUnits="userSpaceOnUse" id="radialGradient46119" inkscape:collect="always" r="14.3477" xlink:href="#XMLID_36_"/>
    <linearGradient gradientTransform="matrix(1.1037,-0.3564,0.272,0.8422,6.766,-21.7477)" gradientUnits="userSpaceOnUse" id="linearGradient46121" inkscape:collect="always" x1="23.3086" x2="13.8441" xlink:href="#XMLID_37_" y1="66.2324" y2="56.768"/>
    <linearGradient gradientTransform="matrix(1.1037,-0.3564,0.272,0.8422,6.766,-21.7477)" gradientUnits="userSpaceOnUse" id="linearGradient46123" inkscape:collect="always" x1="20.929192" x2="12.478999" xlink:href="#XMLID_42_" y1="53.761414" y2="46.04039"/>
    <linearGradient gradientUnits="userSpaceOnUse" id="linearGradient46125" inkscape:collect="always" x1="83.1289" x2="102.167" xlink:href="#XMLID_39_" y1="23.6338" y2="23.6338"/>
    <radialGradient cx="79.39637" cy="21.261164" fx="79.39637" fy="21.261164" gradientTransform="matrix(1,0,0,0.6997622,0,7.2935719)" gradientUnits="userSpaceOnUse" id="radialGradient46127" inkscape:collect="always" r="16.00736" xlink:href="#XMLID_40_"/>
    <linearGradient gradientUnits="userSpaceOnUse" id="linearGradient46129" inkscape:collect="always" x1="84.094429" x2="82.192001" xlink:href="#XMLID_43_" y1="19.667" y2="31.834"/>
    <linearGradient gradientUnits="userSpaceOnUse" id="linearGradient46131" inkscape:collect="always" x1="88.125" x2="85.1253" xlink:href="#XMLID_42_" y1="30.3755" y2="27.3758"/>
    <linearGradient gradientUnits="userSpaceOnUse" id="linearGradient46133" inkscape:collect="always" x1="75.875" x2="74.6251" xlink:href="#XMLID_43_" y1="17.625" y2="16.3751"/>
    <linearGradient gradientUnits="userSpaceOnUse" id="linearGradient46135" inkscape:collect="always" x1="91.666" x2="94" xlink:href="#XMLID_45_" y1="21.667" y2="21.667"/>
    <linearGradient gradientUnits="userSpaceOnUse" id="linearGradient46137" inkscape:collect="always" x1="82.099243" x2="87.623062" xlink:href="#XMLID_43_" y1="23.000422" y2="23.000422"/>
    <linearGradient gradientUnits="userSpaceOnUse" id="linearGradient46139" inkscape:collect="always" x1="30.3335" x2="38.3335" xlink:href="#XMLID_48_" y1="28.9072" y2="28.9072"/>
    <linearGradient gradientUnits="userSpaceOnUse" id="linearGradient46141" inkscape:collect="always" x1="32.5" x2="52.1123" xlink:href="#XMLID_49_" y1="23.4141" y2="23.4141"/>
    <radialGradient cx="18.1191" cy="30.1279" gradientUnits="userSpaceOnUse" id="radialGradient46143" inkscape:collect="always" r="97.661" xlink:href="#XMLID_50_"/>
    <linearGradient gradientUnits="userSpaceOnUse" id="linearGradient46145" inkscape:collect="always" x1="45.23045" x2="50.103745" xlink:href="#XMLID_44_" y1="20.044895" y2="37.722565"/>
    <radialGradient cx="69.4697" cy="34.4683" gradientUnits="userSpaceOnUse" id="radialGradient46147" inkscape:collect="always" r="17.6913" xlink:href="#XMLID_54_"/>
    <linearGradient gradientUnits="userSpaceOnUse" id="linearGradient46149" inkscape:collect="always" x1="48" x2="48" xlink:href="#XMLID_42_" y1="33.317513" y2="18.011484"/>
    <linearGradient gradientUnits="userSpaceOnUse" id="linearGradient46151" inkscape:collect="always" x1="63.4507" x2="61.6235" xlink:href="#XMLID_56_" y1="17.4116" y2="17.4116"/>
    <linearGradient gradientUnits="userSpaceOnUse" id="linearGradient46153" inkscape:collect="always" x1="68.6836" x2="66.3701" xlink:href="#XMLID_57_" y1="19.4556" y2="19.4556"/>
    <linearGradient gradientTransform="matrix(-1,-5.4e-3,5.4e-3,-1,-141.3699,28.3545)" gradientUnits="userSpaceOnUse" id="linearGradient46155" inkscape:collect="always" x1="-193.7769" x2="-195.8066" xlink:href="#XMLID_58_" y1="15.0674" y2="15.0674"/>
    <linearGradient gradientTransform="translate(58,0)" gradientUnits="userSpaceOnUse" id="linearGradient46157" inkscape:collect="always" x1="84.079536" x2="90.826469" xlink:href="#linearGradient2598" y1="25.638699" y2="32.388699"/>
    <radialGradient cx="36.675648" cy="95.769279" fx="16.217354" fy="64.141281" gradientTransform="matrix(4.0047756e-2,3.8407572e-2,-0.8042442,0.848676,217.76947,-46.813467)" gradientUnits="userSpaceOnUse" id="radialGradient46159" inkscape:collect="always" r="47.746403" xlink:href="#linearGradient3058"/>
    <linearGradient gradientTransform="matrix(0.651201,0.6078894,-0.6056742,0.6535824,165.86905,-12.901065)" gradientUnits="userSpaceOnUse" id="linearGradient46161" inkscape:collect="always" x1="11.326384" x2="15.683311" xlink:href="#linearGradient3058" y1="57.383999" y2="57.424919"/>
    <linearGradient gradientTransform="translate(42.485699,-39.483735)" gradientUnits="userSpaceOnUse" id="linearGradient46163" inkscape:collect="always" x1="80.352516" x2="89.593895" xlink:href="#linearGradient22044" y1="-68.021553" y2="-68.021553"/>
    <radialGradient cx="341.46521" cy="255.91499" fx="341.46521" fy="255.91499" gradientTransform="matrix(0.6361708,3.028664e-3,-9.206958e-3,1.9339333,81.570039,-358.10716)" gradientUnits="userSpaceOnUse" id="radialGradient46165" inkscape:collect="always" r="65.192497" xlink:href="#linearGradient19073"/>
    <radialGradient cx="49.011971" cy="2.6743078" fx="49.011971" fy="2.6743078" gradientTransform="matrix(1.1554737,0,0,0.1406118,71.143261,-109.04095)" gradientUnits="userSpaceOnUse" id="radialGradient46167" inkscape:collect="always" r="1.7246193" xlink:href="#linearGradient3207"/>
    <radialGradient cx="49.011971" cy="2.6743078" fx="49.011971" fy="2.6743078" gradientTransform="matrix(0.7924281,0,0,9.5808542e-2,68.161415,-117.25484)" gradientUnits="userSpaceOnUse" id="radialGradient46169" inkscape:collect="always" r="1.7246193" xlink:href="#linearGradient3207"/>
    <radialGradient cx="49.011971" cy="2.6743078" fx="49.011971" fy="2.6743078" gradientTransform="matrix(0.7924281,0,0,9.580863e-2,-180.18425,-107.18933)" gradientUnits="userSpaceOnUse" id="radialGradient46171" inkscape:collect="always" r="1.7246193" xlink:href="#linearGradient3207"/>
    <linearGradient gradientTransform="matrix(0.964922,0,0,0.941137,2.09495,7.906447)" gradientUnits="userSpaceOnUse" id="linearGradient46173" inkscape:collect="always" x1="1054.6731" x2="-1250.6598" xlink:href="#linearGradient12049" y1="-5.5660009" y2="3149.0283"/>
    <linearGradient gradientTransform="matrix(5.5196561e-2,-5.9622452e-5,-5.838489e-5,5.4596714e-2,93.985244,-42.173939)" gradientUnits="userSpaceOnUse" id="linearGradient46175" inkscape:collect="always" x1="1054.6731" x2="-1250.6598" xlink:href="#linearGradient12049" y1="-5.5660009" y2="3149.0283"/>
    <linearGradient gradientTransform="matrix(5.613329e-2,0,0,5.494916e-2,95.46583,-42.65827)" gradientUnits="userSpaceOnUse" id="linearGradient46177" inkscape:collect="always" x1="-2165.3125" x2="-643.06091" xlink:href="#linearGradient3235" y1="2087.9343" y2="1121.7122"/>
    <linearGradient gradientTransform="matrix(5.613329e-2,0,0,5.494916e-2,95.46583,-43.1294)" gradientUnits="userSpaceOnUse" id="linearGradient46179" inkscape:collect="always" x1="605.17242" x2="-1062.9232" xlink:href="#linearGradient3149" y1="3835.6428" y2="1799.6183"/>
    <linearGradient gradientTransform="matrix(5.613329e-2,0,0,5.494916e-2,95.46583,-43.1294)" gradientUnits="userSpaceOnUse" id="linearGradient46181" inkscape:collect="always" x1="88.705498" x2="-356.67282" xlink:href="#linearGradient3235" y1="1010.6574" y2="1234.8125"/>
    <radialGradient cx="-519.35938" cy="1724.4219" fx="-519.35938" fy="1724.4219" gradientTransform="matrix(5.613329e-2,0,0,9.760431e-2,95.46583,-127.6552)" gradientUnits="userSpaceOnUse" id="radialGradient46183" inkscape:collect="always" r="499.3594" xlink:href="#linearGradient2497"/>
    <clipPath clipPathUnits="userSpaceOnUse" id="clipPath46185">
      <path d="M 164.90736,17 C 164.90736,25.28 146.58086,32 123.99999,32 C 101.41912,32 83.092622,25.28 83.092622,17 C 83.092622,12.86 84,4 84,0 C 88,0 176,0 180,0 C 180,8 180,16 180,16 C 176,16 168,16 164.90736,17 z" id="path46187" sodipodi:nodetypes="cssccsc" style="fill:#ffaa00"/>
    </clipPath>
    <linearGradient id="linearGradient4529" inkscape:collect="always">
      <stop id="stop4531" offset="0" style="stop-color:#ffffff;stop-opacity:1;"/>
      <stop id="stop4533" offset="1" style="stop-color:#ffffff;stop-opacity:0;"/>
    </linearGradient>
    <clipPath clipPathUnits="userSpaceOnUse" id="clipPath4108">
      <path d="M 108,104 C 107.46764,113.17792 85.430808,122.62058 63.999998,122.62058 C 39.711999,122.62058 20.00057,113.936 20,104 L 19.995058,17.782656 L 108,17.831442 L 108,104 z" id="path4110" sodipodi:nodetypes="cssccc" style="fill:url(#linearGradient4112);fill-opacity:1"/>
    </clipPath>
    <linearGradient gradientTransform="matrix(1.0307764,0,0,1,0,-10.4)" gradientUnits="userSpaceOnUse" id="linearGradient4236" inkscape:collect="always" x1="48" x2="48" xlink:href="#linearGradient3412" y1="334.5" y2="-16.934101"/>
    <filter id="filter4301" inkscape:collect="always">
      <feGaussianBlur id="feGaussianBlur4303" inkscape:collect="always" stdDeviation="0.28213635"/>
    </filter>
    <radialGradient cx="152.47462" cy="-56.503963" fx="152.47462" fy="-56.503963" gradientTransform="matrix(1.8484253,0,0,0.7496207,-153.57855,67.920352)" gradientUnits="userSpaceOnUse" id="radialGradient4313" inkscape:collect="always" r="162.459" xlink:href="#linearGradient4307"/>
    <filter id="filter4556" inkscape:collect="always">
      <feGaussianBlur id="feGaussianBlur4558" inkscape:collect="always" stdDeviation="0.03177114"/>
    </filter>
    <filter id="filter3916" inkscape:collect="always">
      <feGaussianBlur id="feGaussianBlur3918" inkscape:collect="always" stdDeviation="0.93171352"/>
    </filter>
    <filter height="1.2542486" id="filter4044" inkscape:collect="always" width="1.0847495" x="-0.042374764" y="-0.12712429">
      <feGaussianBlur id="feGaussianBlur4046" inkscape:collect="always" stdDeviation="1.4415234"/>
    </filter>
    <clipPath clipPathUnits="userSpaceOnUse" id="clipPath4105">
      <rect height="105.56025" id="rect4107" rx="1.0974592" ry="0.07224831" style="opacity:1;fill:#000000;fill-opacity:0.95473256;stroke:none;stroke-width:1;stroke-linecap:round;stroke-linejoin:miter;stroke-miterlimit:4;stroke-dasharray:none;stroke-dashoffset:4.15;stroke-opacity:1" width="18.692961" x="-163.68738" y="18.38789"/>
    </clipPath>
    <clipPath clipPathUnits="userSpaceOnUse" id="clipPath4109">
      <rect height="105.56025" id="rect4111" rx="1.0974592" ry="0.07224831" style="opacity:1;fill:#000000;fill-opacity:0.95473256;stroke:none;stroke-width:1;stroke-linecap:round;stroke-linejoin:miter;stroke-miterlimit:4;stroke-dasharray:none;stroke-dashoffset:4.15;stroke-opacity:1" width="18.692961" x="-144.9944" y="18.38789"/>
    </clipPath>
    <clipPath clipPathUnits="userSpaceOnUse" id="clipPath4113">
      <rect height="105.56025" id="rect4115" rx="1.0974592" ry="0.07224831" style="opacity:1;fill:#000000;fill-opacity:0.95473256;stroke:none;stroke-width:1;stroke-linecap:round;stroke-linejoin:miter;stroke-miterlimit:4;stroke-dasharray:none;stroke-dashoffset:4.15;stroke-opacity:1" width="18.692961" x="-126.30145" y="18.38789"/>
    </clipPath>
    <linearGradient gradientUnits="userSpaceOnUse" id="linearGradient4150" inkscape:collect="always" spreadMethod="reflect" x1="-132.30948" x2="-107.10368" xlink:href="#linearGradient4393" y1="72.058594" y2="65.304718"/>
    <linearGradient gradientUnits="userSpaceOnUse" id="linearGradient4152" inkscape:collect="always" spreadMethod="reflect" x1="-132.30948" x2="-107.10368" xlink:href="#linearGradient4393" y1="72.058594" y2="65.304718"/>
    <linearGradient gradientUnits="userSpaceOnUse" id="linearGradient4154" inkscape:collect="always" spreadMethod="reflect" x1="-132.30948" x2="-107.10368" xlink:href="#linearGradient4393" y1="72.058594" y2="65.304718"/>
    <linearGradient gradientUnits="userSpaceOnUse" id="linearGradient4244" inkscape:collect="always" x1="221.0396" x2="57.035648" xlink:href="#linearGradient4034" y1="507.97278" y2="75.50621"/>
    <linearGradient gradientTransform="matrix(-0.5444191,0.2941942,0,1,122.57143,-17.157)" gradientUnits="userSpaceOnUse" id="linearGradient4255" inkscape:collect="always" x1="48" x2="48" xlink:href="#linearGradient4529" y1="170.5" y2="40"/>
    <linearGradient gradientTransform="matrix(1,-0.2941942,0,-1,58.227911,156.60416)" gradientUnits="userSpaceOnUse" id="linearGradient4258" inkscape:collect="always" x1="48" x2="48" xlink:href="#linearGradient4529" y1="170.5" y2="40"/>
    <linearGradient gradientTransform="matrix(-1,-0.2941942,0,-1,83.739317,169.03208)" gradientUnits="userSpaceOnUse" id="linearGradient4332" inkscape:collect="always" x1="48" x2="48" xlink:href="#linearGradient4246" y1="138.53217" y2="-3.7210064"/>
    <linearGradient gradientTransform="matrix(-0.9701425,-0.2425356,0,-1,-0.8155115,1.7875388)" gradientUnits="userSpaceOnUse" id="linearGradient4335" inkscape:collect="always" x1="-34.84809" x2="-14.262904" xlink:href="#linearGradient4319" y1="-63.184272" y2="-82.983261"/>
    <radialGradient cx="86.474617" cy="-12.897325" fx="86.474617" fy="-12.897325" gradientTransform="matrix(0.760038,9.598481e-3,-8.5005182e-3,0.6730978,19.825478,14.670606)" gradientUnits="userSpaceOnUse" id="radialGradient4339" inkscape:collect="always" r="42.959373" spreadMethod="reflect" xlink:href="#linearGradient4273"/>
    <linearGradient gradientTransform="matrix(1.0423772,0,0,1,46.322543,-181.30587)" gradientUnits="userSpaceOnUse" id="linearGradient4342" inkscape:collect="always" x1="48" x2="48" xlink:href="#linearGradient4529" y1="170.5" y2="40"/>
    <linearGradient gradientTransform="matrix(-1,0.25,0,1,125.7218,-8.81246)" gradientUnits="userSpaceOnUse" id="linearGradient4345" inkscape:collect="always" x1="48" x2="48" xlink:href="#linearGradient3412" y1="170.5" y2="40"/>
    <linearGradient gradientTransform="matrix(0.2518012,0,0,0.2526422,17.604433,1.7875418)" gradientUnits="userSpaceOnUse" id="linearGradient4349" inkscape:collect="always" x1="181.01601" x2="181.01601" xlink:href="#XMLID_24_" y1="7.8065696" y2="142.494"/>
    <linearGradient gradientTransform="matrix(0.2460784,0,0,0.2451987,18.640343,3.7875417)" gradientUnits="userSpaceOnUse" id="linearGradient4352" inkscape:collect="always" x1="6.2750096" x2="355.75705" xlink:href="#linearGradient5228" y1="142.494" y2="142.494"/>
    <linearGradient gradientTransform="translate(-0.8155115,1.7875388)" gradientUnits="userSpaceOnUse" id="linearGradient4355" inkscape:collect="always" x1="19.995058" x2="31.53019" xlink:href="#linearGradient3422" y1="70.201618" y2="70.201614"/>
    <linearGradient gradientTransform="matrix(0.2518012,0,0,0.2526422,17.604433,88.408123)" gradientUnits="userSpaceOnUse" id="linearGradient4359" inkscape:collect="always" x1="479.38608" x2="97.35759" xlink:href="#XMLID_24_" y1="38.084183" y2="38.084183"/>
  </defs>
  <sodipodi:namedview bordercolor="#666666" borderopacity="1.0" gridempspacing="0" gridspacingx="4px" gridspacingy="4px" gridtolerance="50" guidetolerance="10" height="128px" id="base" inkscape:current-layer="layer1" inkscape:cx="25.716378" inkscape:cy="58.430428" inkscape:document-units="px" inkscape:grid-bbox="false" inkscape:grid-points="true" inkscape:guide-bbox="true" inkscape:pageopacity="0.0" inkscape:pageshadow="2" inkscape:showpageshadow="false" inkscape:window-height="654" inkscape:window-width="1202" inkscape:window-x="324" inkscape:window-y="261" inkscape:zoom="3.4296876" objecttolerance="10" pagecolor="#ffffff" showgrid="false" showguides="true" width="128px">
    <inkscape:grid empspacing="2" id="grid2831" spacingx="4px" spacingy="4px" type="xygrid"/>
  </sodipodi:namedview>
  <g id="layer1" inkscape:groupmode="layer" inkscape:label="Layer 1">
    <g id="g3342" style="opacity:0.8;fill:url(#radialGradient3362);fill-opacity:1;filter:url(#AI_Sfocatura_4)" transform="matrix(-0.1950524,0,0,0.2319514,306.02292,-15.796126)">
      <linearGradient gradientUnits="userSpaceOnUse" id="linearGradient3344" style="fill-opacity:1.0;fill:url(#radialGradient3697)" x1="15.4531" x2="177.4697" y1="279.50201" y2="210.49561">
        <stop id="stop3346" offset="0.0473" style="stop-color:#000000;fill-opacity:1.0;fill:url(#radialGradient3697)"/>
        <stop id="stop3348" offset="0.1903" style="stop-color:#353535;fill-opacity:1.0;fill:url(#radialGradient3697)"/>
        <stop id="stop3350" offset="0.4173" style="stop-color:#838383;fill-opacity:1.0;fill:url(#radialGradient3697)"/>
        <stop id="stop3352" offset="0.6047" style="stop-color:#BDBDBD;fill-opacity:1.0;fill:url(#radialGradient3697)"/>
        <stop id="stop3354" offset="0.7428" style="stop-color:#E1E1E1;fill-opacity:1.0;fill:url(#radialGradient3697)"/>
        <stop id="stop3356" offset="0.8166" style="stop-color:#EEEEEE;fill-opacity:1.0;fill:url(#radialGradient3697)"/>
        <stop id="stop3358" offset="1" style="stop-color:#000000;fill-opacity:1.0;fill:url(#radialGradient3697)"/>
      </linearGradient>
    </g>
    <path d="M 36,46 A 0,26 0 1 1 36,46 A 0,26 0 1 1 36,46 z" id="path19270" sodipodi:cx="36" sodipodi:cy="46" sodipodi:rx="0" sodipodi:ry="26" sodipodi:type="arc" style="opacity:1;fill:url(#radialGradient19659);fill-opacity:1;fill-rule:evenodd;stroke:none;stroke-width:3;stroke-linecap:round;stroke-linejoin:round;stroke-miterlimit:4;stroke-dasharray:none;stroke-opacity:1" transform="matrix(0.4650947,0.3545936,-0.8056423,0.8302247,106.33674,-22.983566)"/>
    <path d="M 101.64297 110.8877 A 40.822128 13.607376 0 1 1  19.998718,110.8877 A 40.822128 13.607376 0 1 1  101.64297 110.8877 z" id="path3922" sodipodi:cx="60.820847" sodipodi:cy="110.8877" sodipodi:rx="40.822128" sodipodi:ry="13.607376" sodipodi:type="arc" style="fill:#000000;fill-opacity:0.95473256;stroke:none;stroke-width:1;stroke-linecap:round;stroke-linejoin:miter;stroke-miterlimit:4;stroke-dasharray:none;stroke-dashoffset:4.15;stroke-opacity:1;filter:url(#filter4044)" transform="matrix(1.0974389,0,0,1.426662,-3.5888531,-51.399937)"/>
    <path d="M 107.18449,105.78754 C 107.18449,116.42374 84.615296,124.40812 63.184486,124.40812 C 38.896487,124.40812 19.185059,115.72354 19.184489,105.78754 L 19.179547,19.570195 L 107.18449,19.618981 L 107.18449,105.78754 z " id="path2821" sodipodi:nodetypes="cssccc" style="fill:url(#linearGradient4359);fill-opacity:1"/>
    <path d="M 28.449428,21.927031 C 35.458708,24.576857 53.806527,22.241895 60.815807,22.193148 L 60.815807,107.85 C 50.907469,109.95713 36.469274,110.49801 28.449428,107.34082 L 28.449428,21.927031 z " id="rect3410" sodipodi:nodetypes="ccccc" style="fill:url(#linearGradient4236);fill-opacity:1;stroke:none;stroke-width:1;stroke-linecap:butt;stroke-linejoin:round;stroke-miterlimit:4;stroke-dashoffset:1.08779998;stroke-opacity:1;filter:url(#filter4556)" transform="matrix(0.9701425,0.2425356,0,1,-0.8155115,1.7875388)"/>
    <path d="M 28.509256,117.10175 C 22.667659,113.9195 19.184728,109.96408 19.184489,105.78754 L 19.179547,19.570195 L 30.68516,19.576573 L 28.509256,117.10175 z " id="path3420" sodipodi:nodetypes="csccc" style="opacity:0.28464421;fill:url(#linearGradient4355);fill-opacity:1"/>
    <path d="M 106.18449,21.257211 C 106.18449,30.900469 86.920485,38.726879 63.184486,38.726879 C 39.448487,38.726879 20.184489,30.900469 20.184489,21.257211 C 20.184489,11.613953 39.433797,3.7875388 63.169798,3.7875388 C 86.905796,3.7875388 106.18449,11.613953 106.18449,21.257211 z " id="path4081" sodipodi:nodetypes="csssc" style="fill:url(#linearGradient4352);fill-opacity:1"/>
    <path d="M 107.18449,19.787541 C 107.18449,29.723541 87.472485,37.787539 63.184486,37.787539 C 38.896487,37.787539 19.184489,29.723541 19.184489,19.787541 C 19.184489,9.8515408 38.881456,1.7875388 63.169457,1.7875388 C 87.457454,1.7875388 107.18449,9.8515408 107.18449,19.787541 z " id="ellipse2523" sodipodi:nodetypes="csssc" style="fill:url(#linearGradient4349);fill-opacity:1"/>
    <ellipse cx="181.01601" cy="68" id="ellipse83" rx="162.459" ry="60" sodipodi:cx="181.01601" sodipodi:cy="68" sodipodi:rx="162.459" sodipodi:ry="60" style="fill:url(#linearGradient2339)" transform="matrix(0.2653696,0,0,0.2861269,15.148332,-0.4342569)"/>
    <path d="M 85.721811,41.187542 L 77.721811,43.187542 L 77.721811,122.98754 C 80.519433,122.59664 83.149333,121.94044 85.721811,121.18754 L 85.721811,41.187542 z " id="rect3997" sodipodi:nodetypes="ccccc" style="opacity:0.66292138;fill:url(#linearGradient4345);fill-opacity:1;stroke:none;stroke-width:1;stroke-linecap:butt;stroke-linejoin:round;stroke-miterlimit:4;stroke-dashoffset:1.08779998;stroke-opacity:1"/>
    <rect height="80" id="rect4001" rx="0" ry="0" style="fill:url(#linearGradient4342);fill-opacity:1;stroke:none;stroke-width:1;stroke-linecap:butt;stroke-linejoin:round;stroke-miterlimit:4;stroke-dasharray:none;stroke-dashoffset:1.08779998;stroke-opacity:1" transform="matrix(0.9593456,-0.2822339,0,-1,0,0)" width="8.3390169" x="88.017624" y="-141.30588"/>
    <path d="M 63.197314,2.6500388 C 39.399667,2.6500388 20.072313,10.361017 20.072313,19.837539 C 20.072313,19.954041 20.097753,20.065337 20.103563,20.181289 C 20.570397,10.865509 39.69223,3.3687888 63.197314,3.3687888 C 86.702398,3.3687888 105.49298,10.56551 105.95981,19.881289 C 105.96563,19.765337 105.99106,19.654041 105.99106,19.537539 C 105.99106,10.061016 86.994961,2.6500388 63.197314,2.6500388 z " id="ellipse4005" sodipodi:nodetypes="cscscsc" style="fill:url(#radialGradient4339);fill-opacity:1;stroke:none;filter:url(#filter4301)"/>
    <path clip-path="url(#clipPath4108)" d="M 14.849243,103.95837 C 33.934853,149.32994 113.59217,170.9487 111.01576,104.66548 C 108.05202,104.83351 108.22566,83.239393 108.17984,86.587358 C 107.69812,121.78921 48.873341,136.14339 16,75.506211 L 14.849243,103.95837 z " id="path4024" mask="none" sodipodi:nodetypes="ccscc" style="fill:url(#linearGradient4244);fill-opacity:1;fill-rule:evenodd;stroke:none;stroke-width:1px;stroke-linecap:butt;stroke-linejoin:miter;stroke-opacity:1;filter:url(#filter3916)" transform="translate(-0.8155115,2.2078568)"/>
    <path d="M 32.992102,113.54871 L 29.992102,112.54871 L 29.992102,32.548714 L 32.992102,33.548714 L 32.992102,113.54871 z " id="rect4228" sodipodi:nodetypes="ccccc" style="fill:url(#linearGradient4335);fill-opacity:1;stroke:none;stroke-width:1;stroke-linecap:butt;stroke-linejoin:round;stroke-miterlimit:4;stroke-dashoffset:1.08779998;stroke-opacity:1"/>
    <path d="M 47.739319,122.26432 L 39.532031,120.91077 L 39.532031,36.219197 L 47.739319,37.264323 L 47.739319,122.26432 z " id="rect4238" sodipodi:nodetypes="ccccc" style="fill:url(#linearGradient4332);fill-opacity:1;stroke:none;stroke-width:1;stroke-linecap:butt;stroke-linejoin:round;stroke-miterlimit:4;stroke-dashoffset:1.08779998;stroke-opacity:1"/>
    <ellipse cx="181.01601" cy="68" id="ellipse4305" rx="162.459" ry="60" sodipodi:cx="181.01601" sodipodi:cy="68" sodipodi:rx="162.459" sodipodi:ry="60" style="fill:url(#radialGradient4313);fill-opacity:1" transform="matrix(0.2653696,0,0,0.2861269,15.148332,-0.4342572)"/>
    <g clip-path="url(#clipPath46185)" id="g41221" transform="matrix(1.0355493,0,0,1.0355493,-65.333766,2.6617255)">
      <g id="g46039" transform="translate(100,0)">
        <g id="g40693" transform="matrix(1.1036253,0,0,1,-47.326281,0)">
          <path d="M 76.497391,1.785569 C 64.094326,-0.012141 51.363019,0.8046 39.258142,4.236342 C 39.258142,18.157744 39.258142,32.078598 39.258142,46 C 51.363019,42.568259 64.094326,41.751517 76.497391,43.548678 C 76.497391,29.627825 76.497391,15.706422 76.497391,1.785569 z " id="path40306" style="opacity:0.5;fill:#323232;fill-opacity:1;filter:url(#filter40689)"/>
          <path d="M 78.497391,2.185206 C 66.094326,0.387496 53.363019,1.204237 41.258142,4.635979 C 41.258142,18.557381 41.258142,32.478235 41.258142,46.399637 C 53.363019,42.967896 66.094326,42.151154 78.497391,43.948315 C 78.497391,30.027462 78.497391,16.106059 78.497391,2.185206 z " id="path36728" style="fill:#eeeeec;fill-opacity:1"/>
          <path d="M 42.774419,5.660888 C 42.774419,8.250073 42.774419,41.95562 42.774419,44.544805 C 44.036117,44.179002 51.85676,42.195095 59.767567,41.791942 C 67.664819,41.15975 75.652824,42.107214 76.945755,42.297805 C 76.945755,39.70862 76.945755,6.003073 76.945755,3.413888 C 75.652824,3.223846 67.664819,2.275833 59.767567,2.908574 C 51.85676,3.311177 44.036117,5.295084 42.774419,5.660888 z " id="path36737" style="fill:url(#linearGradient46111)"/>
          <path d="M 89.239249,8.236342 C 77.134961,4.8046 64.403065,3.987859 52,5.785019 C 52,19.706422 52,33.627275 52,47.548678 C 64.403065,45.751517 77.134961,46.568258 89.239249,50 C 89.239249,36.078597 89.239249,22.157744 89.239249,8.236342 z " id="path39919" style="opacity:0.7;fill:#323232;fill-opacity:1;filter:url(#filter40302)"/>
          <path d="M 90,8.236342 C 77.895712,4.8046 65.163816,3.987859 52.760751,5.785019 C 52.760751,19.706422 52.760751,33.627275 52.760751,47.548678 C 65.163816,45.751517 77.895712,46.568258 90,50 C 90,36.078597 90,22.157744 90,8.236342 z " id="path36749" style="fill:url(#linearGradient46113);fill-opacity:1"/>
          <path d="M 54.312976,7.01425 C 54.312976,9.603436 54.312976,43.308983 54.312976,45.897619 C 55.606497,45.707027 63.594502,44.759564 71.491754,45.391755 C 79.40256,45.794359 87.223203,47.778815 88.48431,48.144619 C 88.48431,45.554884 88.48431,11.849886 88.48431,9.26125 C 87.223203,8.895447 79.40256,6.91154 71.491754,6.508936 C 63.593912,5.876195 55.606497,6.824208 54.312976,7.01425 z " id="path36758" style="fill:url(#linearGradient46115)"/>
        </g>
        <g id="g6322" transform="translate(-122,0)">
          <g id="g44143" transform="matrix(1.032492,0,0,1,78.680387,-2)">
            <path d="M 61.277,12.958 L 56.017,13.276 L 52.996,9.913 L 46.225,12.538 L 47.187,21.68 L 60.319,27.668 C 67.133,24.541 72.12,20.657 74.103,16.789 C 65.895,18.547 61.277,12.958 61.277,12.958 z " id="path3159" style="fill:url(#linearGradient46117);display:inline"/>
            <path d="M 68.156,21.631 C 61.697,21.905 56.488,19.702 54.847,17.044 C 53.241,14.441 45.76,14.591 45.76,14.591 C 45.76,14.591 45.092,9.253 43.188,10.415 C 41.375,11.523 35.79,11.27 35.548,13.334 C 35.31,15.361 31.663,24.496 32.902,24.732 C 34.182,24.977 40.545,32.609 40.545,32.609 C 40.545,32.609 41.333,32.816 42.649,33.052 C 53.529,31.431 63.646,27.579 70.26,22.64 C 70.126,21.961 69.459,21.576 68.156,21.631 z " id="path3161" style="opacity:0.2;fill:#555555;display:inline"/>
            <path d="M 70.156,21.631 C 63.697,21.905 58.488,19.702 56.847,17.044 C 55.241,14.441 47.76,14.591 47.76,14.591 C 47.76,14.591 47.092,9.253 45.188,10.415 C 43.375,11.523 37.79,11.27 37.548,13.334 C 37.31,15.361 33.663,24.496 34.902,24.732 C 36.182,24.977 42.545,32.609 42.545,32.609 C 42.545,32.609 43.333,32.816 44.649,33.052 C 55.529,31.431 65.646,27.579 72.26,22.64 C 72.126,21.961 71.459,21.576 70.156,21.631 z " id="path3163" style="opacity:0.2;fill:#555555;display:inline"/>
            <path d="M 66.156,21.631 C 59.697,21.905 54.488,19.702 52.847,17.044 C 51.241,14.441 43.76,14.591 43.76,14.591 C 43.76,14.591 43.092,9.253 41.188,10.415 C 39.375,11.523 33.79,11.27 33.548,13.334 C 33.31,15.361 29.663,24.496 30.902,24.732 C 32.182,24.977 38.545,32.609 38.545,32.609 C 38.545,32.609 39.333,32.816 40.649,33.052 C 51.529,31.431 61.646,27.579 68.26,22.64 C 68.126,21.961 67.459,21.576 66.156,21.631 z " id="path3172" style="fill:url(#radialGradient46119);display:inline"/>
            <path d="M 39.78,17.824 C 39.78,17.824 40.044,21.63 41.35,23.533 C 42.482,25.182 46.708,27.47 48.065,28.978 C 48.141,28.957 48.219,28.936 48.294,28.915 L 47.66,26.17 L 42.188,22.966 L 39.78,17.824 z " id="path3189" style="fill:url(#linearGradient46121);display:inline"/>
            <polygon id="polygon3198" points="37.686,12.67 35.804,19.562 39.646,12.58 37.686,12.67 " style="fill:url(#linearGradient46123);display:inline"/>
            <path d="M 98,25.5 C 94,25 91,22.5 90.5,20 C 90.163,18.314 87.33,17.086 85.518,16.463 L 84.129,22.824 L 92.697,29.611 C 92.746,29.592 92.796,29.573 92.844,29.554 C 94.02,29.092 95.116,28.605 96.128,28.096 C 96.207,28.056 96.284,28.016 96.362,27.976 C 96.813,27.745 97.249,27.509 97.665,27.27 C 97.715,27.241 97.767,27.213 97.816,27.184 C 98.222,26.947 98.604,26.705 98.975,26.461 C 99.036,25.947 98.744,25.593 98,25.5 z " id="path3200" style="opacity:0.2;fill:#555555;display:inline"/>
            <path d="M 95.787,19.84 L 92.269,19.089 L 90.986,15.654 L 84.999,16.255 L 83.129,24.825 L 91.7,31.615 C 96.779,29.641 100.388,27.189 102.167,24.628 C 97.344,24.879 95.787,19.84 95.787,19.84 z " id="path3209" style="fill:url(#linearGradient46125);display:inline"/>
            <path d="M 98,25.5 C 94,25 91,22.5 90.5,20 C 90.163,18.314 87.33,17.086 85.518,16.463 L 84.129,22.824 L 92.697,29.611 C 92.746,29.592 92.796,29.573 92.844,29.554 C 94.02,29.092 95.116,28.605 96.128,28.096 C 96.207,28.056 96.284,28.016 96.362,27.976 C 96.813,27.745 97.249,27.509 97.665,27.27 C 97.715,27.241 97.767,27.213 97.816,27.184 C 98.222,26.947 98.604,26.705 98.975,26.461 C 99.036,25.947 98.744,25.593 98,25.5 z " id="path3211" style="opacity:0.15;fill:#555555;display:inline"/>
            <path d="M 98,26.5 C 94,26 91,23.5 90.5,21 C 90.163,19.314 87.33,18.086 85.518,17.463 L 84.129,23.824 L 92.697,30.611 C 92.746,30.592 92.796,30.573 92.844,30.554 C 94.02,30.092 95.116,29.605 96.128,29.096 C 96.207,29.056 96.284,29.016 96.362,28.976 C 96.813,28.745 97.249,28.509 97.665,28.27 C 97.715,28.241 97.767,28.213 97.816,28.184 C 98.222,27.947 98.604,27.705 98.975,27.461 C 99.036,26.947 98.744,26.593 98,26.5 z " id="path3213" style="opacity:0.2;fill:#555555;display:inline"/>
            <path d="M 95,27.5 C 91,27 88,24.5 87.5,22 C 87,19.5 81,18 81,18 C 81,18 82,13 80,13.5 C 78,14 72.5,12 71.5,14 C 70.5,16 62.5,25 64,25.5 C 65.5,26 70,35 70,35 C 70,35 70.785,35.26 72.105,35.568 C 82.644,34.489 90.938,31.779 95.977,28.472 C 96.042,27.951 95.749,27.594 95,27.5 z " id="path3215" style="opacity:0.2;fill:#888888;display:inline"/>
            <path d="M 96,27.5 C 92,27 89,24.5 88.5,22 C 88,19.5 82,18 82,18 C 82,18 83,13 81,13.5 C 79,14 73.5,12 72.5,14 C 71.5,16 63.5,25 65,25.5 C 66.5,26 71,35 71,35 C 71,35 71.785,35.26 73.105,35.568 C 83.644,34.489 91.938,31.779 96.977,28.472 C 97.042,27.951 96.749,27.594 96,27.5 z " id="path3217" style="opacity:0.25;fill:#888888;display:inline"/>
            <path d="M 98,27.5 C 94,27 91,24.5 90.5,22 C 90,19.5 84,18 84,18 C 84,18 85,13 83,13.5 C 81,14 75.5,12 74.5,14 C 73.5,16 65.5,25 67,25.5 C 68.5,26 73,35 73,35 C 73,35 73.668,35.22 74.799,35.494 C 85.619,34.302 94.003,31.382 98.828,27.885 C 98.676,27.689 98.413,27.552 98,27.5 z " id="path3226" style="fill:url(#radialGradient46127);fill-opacity:1;display:inline"/>
            <path d="M 77.379,19.667 C 77.379,19.667 76.348,23.532 77.035,25.679 C 77.619,27.505 80.93,30.258 81.697,31.834 C 81.772,31.82 81.849,31.807 81.924,31.793 L 82.192,29.114 L 78.067,25.249 L 77.379,19.667 z " id="path3235" style="fill:url(#linearGradient46129);fill-opacity:1;display:inline"/>
            <polygon id="polygon3244" points="82.5,30.5 86.5,26 86.5,29.5 91,27.5 86,32 82.5,30.5 " style="fill:url(#linearGradient46131);display:inline"/>
            <polygon id="polygon3253" points="77,14 72.5,20.5 79,14.5 77,14 " style="fill:url(#linearGradient46133);display:inline"/>
            <polygon id="polygon3273" points="92.334,20 94,23.333 91.666,21.667 92.334,20 " style="fill:url(#linearGradient46135);display:inline"/>
            <path d="M 82.375,22.648 C 81.857,24.795 82.09,26.694 82.896,26.889 C 83.702,27.083 84.774,25.499 85.292,23.352 C 85.811,21.205 85.578,19.306 84.772,19.112 C 83.967,18.917 82.894,20.501 82.375,22.648 z " id="path3280" style="fill:url(#linearGradient46137);fill-opacity:1;display:inline"/>
            <path d="M 42.333,21.667 C 41.485,22.303 41.986,28.878 42.463,33.576 C 46.483,34.61 51.081,35.375 56.154,35.77 L 55.333,21 L 56.333,18.333 C 54,17.667 43.667,20.667 42.333,21.667 z " id="path3289" style="opacity:0.25;fill:#888888;display:inline"/>
            <path d="M 36.045,31.249 L 38.334,30.333 C 38.334,30.333 35.211,28.77 33.104,26.565 C 31.495,27.345 30.334,28 30.334,28 L 30.393,28.706 C 30.873,29.009 31.379,29.308 31.914,29.599 C 33.176,30.184 34.558,30.735 36.045,31.249 z " id="path3296" style="fill:url(#linearGradient46139);display:inline"/>
            <path d="M 32.5,29.117 L 46.5,16 C 46.5,16 48.5,19.422 51.5,21.703 C 54.5,23.984 45.5,30.828 45.5,30.828 L 32.5,29.117 z " id="path3305" style="fill:url(#linearGradient46141);display:inline"/>
            <path d="M 44.333,23 C 41,22.667 33.333,27 33.333,27 L 33.405,27.861 C 36.893,29.685 41.444,31.253 46.862,32.357 L 44.333,23 z " id="path3307" style="opacity:0.15;fill:#555555;display:inline"/>
            <path d="M 43.333,24 C 40,23.667 32.333,28 32.333,28 L 32.405,28.861 C 35.893,30.685 40.444,32.253 45.862,33.357 L 43.333,24 z " id="path3309" style="opacity:0.2;fill:#555555;display:inline"/>
            <path d="M 43.333,25 C 40,24.667 32.333,29 32.333,29 L 32.405,29.861 C 35.893,31.685 40.444,33.253 45.862,34.357 L 43.333,25 z " id="path3318" style="fill:url(#radialGradient46143);display:inline"/>
            <path d="M 41.333,21.667 C 40.501,22.291 40.967,28.627 41.435,33.303 C 45.432,34.404 50.04,35.236 55.149,35.688 L 54.333,21 L 55.333,18.333 C 53,17.667 42.667,20.667 41.333,21.667 z " id="path3320" style="opacity:0.2;fill:#888888;display:inline"/>
            <path d="M 43.333,21.667 C 42.469,22.315 43.004,29.118 43.489,33.829 C 47.53,34.8 52.117,35.505 57.158,35.844 L 56.333,21 L 57.333,18.333 C 55,17.667 44.667,20.667 43.333,21.667 z " id="path3331" style="fill:url(#linearGradient46145);fill-opacity:1;display:inline"/>
            <path d="M 72,33 C 72,33.97 72.396,34.868 72.977,35.675 C 73.463,35.631 73.932,35.575 74.409,35.525 C 73.103,34.175 72,33 72,33 z " id="path3356" style="fill:url(#radialGradient46147);display:inline"/>
            <path d="M 47,21.667 C 47,21.667 49,30.334 48.333,33 C 47.666,35.666 49,20.667 49,20.667 L 47,21.667 z " id="path3365" style="fill:url(#linearGradient46149);display:inline"/>
            <path d="M 62.024,13.75 C 62.024,13.75 60.758,17.5 62.727,20.5 C 64.696,23.5 62.024,13.75 62.024,13.75 z " id="path3372" style="fill:url(#linearGradient46151);display:inline"/>
            <path d="M 67.25,17.75 C 67.25,17.75 68.75,20.25 66.75,21 C 64.75,21.75 71.5,19.75 67.25,17.75 z " id="path3379" style="fill:url(#linearGradient46153);display:inline"/>
            <path d="M 54.486,17.933 C 54.486,17.933 51.266,12.415 53.024,10.925 C 54.782,9.435 54.486,17.933 54.486,17.933 z " id="path3386" style="fill:url(#linearGradient46155);display:inline"/>
            <path d="M 49.5,21.344 C 49.5,21.344 56,20.656 54.5,24.094 C 53,27.532 59.5,17.562 49.5,21.344 z " id="path3388" style="fill:#ffffff;display:inline"/>
          </g>
        </g>
        <g id="g40808" transform="translate(-102,2)">
          <path d="M 154.69007,8 L 154.59353,8.0874129 C 154.58089,8.0978374 154.55433,8.1046943 154.54526,8.1165506 C 154.54124,8.1217936 154.54927,8.1404452 154.54526,8.1456882 C 154.52648,8.1702179 154.49162,8.1794338 154.47285,8.2039635 L 154.32803,8.3496517 L 154.35217,8.3787893 L 154.30389,8.4370646 C 154.18193,8.5964138 154.06382,8.7730554 153.94185,8.9324045 L 153.41086,9.6317079 L 151.84202,11.671343 C 151.11379,12.234007 150.42723,13.176829 150.05595,14.002354 L 116,58.612084 C 116.00821,58.621253 116.01591,58.631957 116.02414,58.641222 C 116.17057,58.805754 116.96717,59.643585 117.32748,60.039828 L 117.23094,60.185517 C 117.34646,60.17427 117.4477,60.161904 117.52057,60.243792 C 117.73118,60.480446 119.51067,62.51987 119.74109,62.778767 C 119.77832,62.820604 119.82013,62.863393 119.83763,62.924455 L 119.86177,62.895317 C 120.14257,63.24497 120.98333,64.186451 121.23752,64.46875 L 155.41415,19.74247 C 156.00059,19.27519 156.61977,18.45723 157.03127,17.586284 L 158.62425,15.517512 L 159.63796,14.235455 L 159.71037,14.322868 L 160,13.885804 L 159.85518,13.740115 C 159.94965,13.066875 159.5159,11.490504 158.06912,9.8648091 C 156.60168,8.2159077 155.20874,7.8740974 154.71421,8.0291376 L 154.69007,8 z " id="path28159" style="fill:#323232;fill-opacity:1;fill-rule:evenodd;stroke:none;stroke-width:1px;stroke-linecap:butt;stroke-linejoin:miter;stroke-opacity:1;filter:url(#filter28639)"/>
          <path d="M 163.91938,4.0462061 C 164.24006,3.6991385 166.30772,3.9007841 168.47909,5.9218583 C 170.67177,7.9627451 171.08738,9.9094481 170.68569,10.344161 C 170.42423,10.627124 170.16278,10.910084 169.90133,11.193046 C 167.64587,9.0937265 165.39044,6.9944087 163.135,4.8950897 C 163.39645,4.6121285 163.65791,4.3291679 163.91938,4.0462061 C 163.91938,4.0462061 163.91938,4.0462061 163.91938,4.0462061" id="path3180" sodipodi:nodetypes="czccccc" style="fill:#bf0303;fill-opacity:1;fill-rule:evenodd;stroke:none;stroke-width:1px;stroke-linecap:butt;stroke-linejoin:miter;stroke-opacity:1"/>
          <path d="M 118.85384,62.64613 C 118.90205,62.691 118.93406,62.75227 118.95672,62.817759 L 168.57647,9.0125181 L 165.29655,5.9596399 L 115.5826,59.866817 C 115.73217,59.854755 115.86483,59.864016 115.95918,59.95184 C 116.23186,60.205649 118.55551,62.368464 118.85384,62.64613 z " id="rect2192" sodipodi:nodetypes="cccccss" style="fill:url(#linearGradient46157);fill-opacity:1;fill-rule:nonzero;stroke:none;stroke-width:0.5;stroke-linecap:round;stroke-linejoin:round;stroke-miterlimit:4;stroke-dasharray:none;stroke-dashoffset:4;stroke-opacity:1"/>
          <path d="M 168.45672,8.9010681 L 118.87466,62.665518 C 119.13685,62.953642 120.41352,64.149075 120.76633,64.473645 L 170.37194,10.683716 L 168.45672,8.9010681 z " id="rect2190" sodipodi:nodetypes="ccccc" style="fill:url(#radialGradient46159);fill-opacity:1;fill-rule:nonzero;stroke:none;stroke-width:0.5;stroke-linecap:round;stroke-linejoin:round;stroke-miterlimit:4;stroke-dasharray:none;stroke-dashoffset:4;stroke-opacity:1"/>
          <path d="M 115.95918,59.95184 L 165.54125,6.1873977 L 163.60562,4.3857595 L 114,58.175694 C 114.01063,58.185528 114.02107,58.195301 114.03172,58.205237 C 114.24921,58.40766 115.68101,59.692925 115.95918,59.95184 z " id="rect1315" sodipodi:nodetypes="ccccsc" style="fill:url(#linearGradient46161);fill-opacity:1;fill-rule:nonzero;stroke:none;stroke-width:0.5;stroke-linecap:round;stroke-linejoin:round;stroke-miterlimit:4;stroke-dasharray:none;stroke-dashoffset:4;stroke-opacity:1"/>
          <rect height="2.1724658" id="rect2069" style="fill:url(#linearGradient46163);fill-opacity:1;stroke:none;stroke-width:1;stroke-linecap:round;stroke-linejoin:round;stroke-miterlimit:4;stroke-dasharray:none;stroke-dashoffset:4;stroke-opacity:1" transform="matrix(0.7325121,0.6807541,-0.6807541,0.7325121,0,0)" width="9.2413816" x="122.83822" y="-108.59153"/>
          <path d="M 160.45001,7.8068515 C 159.49378,8.4068622 158.5875,9.4527409 158.10065,10.349423 L 163.54021,15.366419 L 165.88956,12.823848 L 160.45001,7.8068515 z M 165.31786,12.291737 L 162.96851,14.834307 L 164.87413,16.608015 C 165.70708,16.107265 166.66279,15.110869 167.22349,14.065446 L 165.31786,12.291737 z " id="path2274" sodipodi:nodetypes="cccccccccc" style="fill:url(#radialGradient46165);fill-opacity:1;fill-rule:nonzero;stroke:none;stroke-width:0.5;stroke-linecap:round;stroke-linejoin:round;stroke-miterlimit:4;stroke-dasharray:none;stroke-dashoffset:4;stroke-opacity:1"/>
          <rect height="0.87264949" id="rect3205" style="fill:url(#radialGradient46167);fill-opacity:1;fill-rule:nonzero;stroke:none;stroke-width:0;stroke-linecap:round;stroke-linejoin:round;stroke-miterlimit:4;stroke-dasharray:none;stroke-dashoffset:4;stroke-opacity:1" transform="matrix(0.7319868,0.6813188,-0.6786489,0.7344629,0,0)" width="3.9855049" x="125.78255" y="-109.01507"/>
          <rect height="0.59459674" id="rect2956" style="fill:url(#radialGradient46169);fill-opacity:1;fill-rule:nonzero;stroke:none;stroke-width:0;stroke-linecap:round;stroke-linejoin:round;stroke-miterlimit:4;stroke-dasharray:none;stroke-dashoffset:4;stroke-opacity:1" transform="matrix(0.685219,0.728337,-0.7822725,0.6229364,0,0)" width="2.7332728" x="105.63322" y="-117.23721"/>
          <rect height="0.59459531" id="rect2961" style="fill:url(#radialGradient46171);fill-opacity:1;fill-rule:nonzero;stroke:none;stroke-width:0;stroke-linecap:round;stroke-linejoin:round;stroke-miterlimit:4;stroke-dasharray:none;stroke-dashoffset:4;stroke-opacity:1" transform="matrix(-0.7431713,-0.6691012,-0.6056518,0.7957298,0,0)" width="2.7332709" x="-142.71246" y="-107.17169"/>
        </g>
        <g id="g45958" transform="translate(60,0)">
          <path d="M 28.299892,16.601745 C 27.426052,16.75013 27.080833,17.223749 27.222271,17.916818 L 35.483205,58.432326 C 35.644368,59.222081 36.536263,59.728449 37.482961,59.567697 L 82.83866,51.865833 C 83.78536,51.705072 84.41772,50.939863 84.25657,50.150106 L 76.229699,10.99068 L 72.760296,9.051912 L 70.529703,9.430694 L 70.553511,9.547296 L 66.509436,10.234017 L 66.173979,11.219991 L 64.886556,11.472232 L 64.696699,10.541838 L 31.927762,16.106339 L 31.903973,15.989732 L 28.299892,16.601745 z " id="path35819" sodipodi:nodetypes="ccccccccccccccccc" style="opacity:0.6;fill:#323232;fill-opacity:1;fill-rule:evenodd;stroke:none;stroke-width:1px;stroke-linecap:butt;stroke-linejoin:miter;stroke-opacity:1;filter:url(#filter36619)" transform="matrix(0.9562095,0,0,0.9505397,-99.000836,2.9477107)"/>
          <g id="g35770" transform="matrix(0.4114979,-4.3522057e-2,4.3522057e-2,0.4114979,-78.535886,15.12655)">
            <path d="M 10.628479,8.4652472 C 8.8673095,8.5903719 8.0050972,9.6618224 8.0050972,11.406299 L 8.0050972,82.02096 C 32.521811,46.530692 55.281152,23.649512 75.73056,8.788763 L 19.282623,8.788763 L 19.282623,8.4652472 L 10.990325,8.4652472 C 10.864909,8.4652472 10.74589,8.4569056 10.628479,8.4652472 z M 119.72497,14.81792 C 83.579397,52.816092 54.565784,100.27537 43.888134,123.98977 L 116.07636,123.98977 C 118.2503,123.98977 119.99635,122.28676 119.99636,120.1664 L 119.93605,15.023794 L 119.72497,14.81792 z " id="path12057" style="opacity:0.08196722;fill:url(#linearGradient46173);fill-opacity:1;fill-rule:evenodd;stroke:none;stroke-width:1px;stroke-linecap:butt;stroke-linejoin:miter;stroke-opacity:1"/>
            <path d="M 51.005418,10.629042 L 51.005418,7.9485971 L 51.005418,10.629042 z " id="path2276" sodipodi:nodetypes="ccc" style="fill:#ffffff;fill-opacity:0.75688076;fill-rule:nonzero;stroke:none;stroke-width:0.5;stroke-linecap:round;stroke-linejoin:round;stroke-miterlimit:4;stroke-dasharray:none;stroke-dashoffset:4;stroke-opacity:1"/>
            <path d="M 11.003129,8.0400556 C 8.9964822,8.0400556 8.0157887,9.1208673 8.0157887,10.988425 L 7.9999984,120.15869 C 7.9999984,122.28677 9.7501278,123.99997 11.924069,123.99998 L 116.07588,123.99998 C 118.24982,123.99998 119.99994,122.28677 119.99995,120.15869 L 119.92103,14.623657 L 113.09906,8.0400556 L 107.9769,8.0400556 L 107.9769,8.354299 L 98.69035,8.354299 L 97.499269,10.773777 L 94.527713,10.861354 L 94.527713,8.354299 L 19.279281,8.354299 L 19.279281,8.0400556 L 11.003129,8.0400556 z " id="path1410" sodipodi:nodetypes="ccccccccccccccccc" style="fill:#1c1c1c;fill-opacity:1;fill-rule:evenodd;stroke:none;stroke-width:1px;stroke-linecap:butt;stroke-linejoin:miter;stroke-opacity:1"/>
            <path d="M 10.877652,8.7570275 C 8.9044914,8.7591588 7.9390149,9.8340799 7.9370306,11.689659 L 7.8055075,120.15971 C 7.8032464,122.27416 9.5223503,123.9745 11.660012,123.97219 L 114.07379,123.86157 C 116.21145,123.85927 117.93418,122.15519 117.93644,120.04076 L 117.97098,15.182713 L 111.26985,8.6485855 L 106.23317,8.654026 L 106.23282,8.9662538 L 97.101252,8.9761175 L 95.927477,11.381343 L 93.005415,11.471513 L 93.008079,8.980539 L 19.015363,9.0604647 L 19.015695,8.7482369 L 10.877652,8.7570275 z " id="path11174" sodipodi:nodetypes="ccccccccccccccccc" style="opacity:0.5;fill:url(#linearGradient46175);fill-opacity:1;fill-rule:evenodd;stroke:none;stroke-width:1px;stroke-linecap:butt;stroke-linejoin:miter;stroke-opacity:1"/>
            <path d="M 19.278922,8.8256692 L 19.278922,8.5114279 L 19.073688,8.5114279 L 19.073688,37.720342 C 19.073688,39.848429 20.823811,41.561635 22.997753,41.561635 L 90.805013,41.561635 C 92.978955,41.561635 94.729081,39.848429 94.729081,37.720342 L 94.729081,11.327573 L 94.527352,11.332724" id="rect2292" sodipodi:nodetypes="ccccccccc" style="fill:none;fill-opacity:1;fill-rule:nonzero;stroke:url(#linearGradient46177);stroke-width:0.94025958;stroke-linecap:round;stroke-linejoin:round;stroke-miterlimit:4;stroke-dasharray:none;stroke-dashoffset:4;stroke-opacity:1"/>
            <path d="M 107.99408,122.13194 L 107.99408,59.599782 C 107.99408,57.471704 106.24395,55.758494 104.07001,55.758494 L 22.997753,55.758494 C 22.963786,55.758494 22.92977,55.757664 22.896011,55.758494 C 20.769396,55.810882 19.073688,57.504955 19.073688,59.599782 L 19.073688,122.13194" id="rect2296" sodipodi:nodetypes="ccccccc" style="fill:url(#linearGradient46179);fill-opacity:1;fill-rule:nonzero;stroke:#ffffff;stroke-width:0.88860911;stroke-linecap:butt;stroke-linejoin:miter;stroke-miterlimit:4;stroke-dasharray:none;stroke-dashoffset:4;stroke-opacity:1"/>
            <path d="M 22.997753,41.090501 L 90.805013,41.090501 C 92.978955,41.090501 94.729081,39.377295 94.729081,37.249208 L 94.729081,10.856439" id="path2323" sodipodi:nodetypes="cccc" style="fill:none;fill-opacity:1;fill-rule:nonzero;stroke:url(#linearGradient46181);stroke-width:0.56815445;stroke-linecap:round;stroke-linejoin:round;stroke-miterlimit:4;stroke-dasharray:none;stroke-dashoffset:4;stroke-opacity:1"/>
            <rect height="6.8668571" id="rect2474" rx="1.1911981" ry="1.16607" style="fill:#dddddd;fill-opacity:1;fill-rule:nonzero;stroke:none;stroke-width:16;stroke-linecap:butt;stroke-linejoin:miter;stroke-miterlimit:4;stroke-dasharray:none;stroke-dashoffset:4;stroke-opacity:1" width="7.2795444" x="10.229008" y="108.76401"/>
            <rect height="6.8668571" id="rect2476" rx="1.1911981" ry="1.16607" style="fill:#d8d8d8;fill-opacity:1;fill-rule:nonzero;stroke:none;stroke-width:16;stroke-linecap:butt;stroke-linejoin:miter;stroke-miterlimit:4;stroke-dasharray:none;stroke-dashoffset:4;stroke-opacity:1" width="7.2795444" x="110.44979" y="108.76401"/>
            <path d="M 38.281804,8.0400556 L 38.281804,37.290184 C 38.281817,39.154289 39.731691,40.655817 41.532275,40.655817 L 91.092708,40.655817 C 92.893304,40.655817 94.343177,39.154302 94.343177,37.290184 L 94.343177,8.0400556 L 38.281804,8.0400556 z M 76,12 L 88,12 L 88,36 L 76,36 L 76,12 z " id="rect2478" sodipodi:nodetypes="cccccccccccc" style="fill:url(#radialGradient46183);fill-opacity:1;fill-rule:nonzero;stroke:none;stroke-width:16;stroke-linecap:butt;stroke-linejoin:miter;stroke-miterlimit:4;stroke-dasharray:none;stroke-dashoffset:4;stroke-opacity:1"/>
            <path d="M 29.045834,109.5947 L 99.196879,109.5947" id="path11150" sodipodi:nodetypes="cc" style="fill:none;fill-opacity:0.75;fill-rule:evenodd;stroke:#000000;stroke-width:0.72349465px;stroke-linecap:butt;stroke-linejoin:miter;stroke-opacity:1"/>
            <path d="M 29.0475,87.486032 L 99.334019,87.486032" id="path11158" sodipodi:nodetypes="cc" style="fill:none;fill-opacity:0.75;fill-rule:evenodd;stroke:#000000;stroke-width:0.72419298px;stroke-linecap:butt;stroke-linejoin:miter;stroke-opacity:1"/>
            <path d="M 29.0475,67.270847 L 99.334019,67.270847" id="path11167" sodipodi:nodetypes="cc" style="fill:none;fill-opacity:0.75;fill-rule:evenodd;stroke:#000000;stroke-width:0.72419298px;stroke-linecap:butt;stroke-linejoin:miter;stroke-opacity:1"/>
          </g>
        </g>
      </g>
    </g>
    <path d="M 103.88476,112.61128 L 106.22791,109.48285 L 106.22791,23.857846 L 103.88476,27.311273 L 103.88476,112.61128 z " id="rect4433" sodipodi:nodetypes="ccccc" style="fill:url(#linearGradient4258);fill-opacity:1;stroke:none;stroke-width:1;stroke-linecap:butt;stroke-linejoin:round;stroke-miterlimit:4;stroke-dashoffset:1.08779998;stroke-opacity:1"/>
    <path d="M 100.79465,34.61076 L 96.439296,36.964314 L 96.439296,117.56432 C 98.306491,116.79621 99.607444,115.91486 100.79465,115.01076 L 100.79465,34.61076 z " id="rect4522" sodipodi:nodetypes="ccccc" style="fill:url(#linearGradient4255);fill-opacity:1;stroke:none;stroke-width:1;stroke-linecap:butt;stroke-linejoin:round;stroke-miterlimit:4;stroke-dashoffset:1.08779998;stroke-opacity:1"/>
    <g id="g4135" transform="translate(-1.7486323,3.195576)">
      <g id="g4121">
        <g clip-path="url(#clipPath4113)" id="g4401" style="opacity:0.56928837" transform="matrix(1,-0.3306191,0,1,203.14294,-36.056427)">
          <path d="M -134.46875,48.125 C -136.44761,48.163139 -138.86726,48.330178 -141.8125,48.71875 C -141.8125,48.71875 -138.08816,49.594178 -137.3125,50.875 C -136.52889,52.143891 -131.71875,60.5625 -131.71875,60.5625 L -136.34375,63.21875 L -124.46875,62.625 L -117.90625,52.65625 L -122.6875,55.40625 L -125.5,50.46875 C -125.5,50.468751 -125.89368,47.959732 -134.46875,48.125 z M -143.15625,49.84375 C -146.05558,49.765137 -147.75001,52.343749 -147.75,52.34375 L -153.21875,61.6875 L -144.21875,66.90625 L -138.78125,57.25 C -138.78125,57.25 -136.85978,52.31157 -140.96875,50.40625 C -141.7623,50.040052 -142.48717,49.861892 -143.15625,49.84375 z M -118.53125,60.78125 L -127.5625,66 L -121.90625,75.53125 C -121.90625,75.53125 -118.53507,79.67983 -114.84375,77.0625 C -111.03709,74.37357 -113.1875,70.187496 -113.1875,70.1875 L -118.53125,60.78125 z M -160.59375,65.5 L -155.8125,68.25 L -158.65625,73.1875 C -158.65625,73.187498 -162.34602,76.752161 -152,88.15625 C -152,88.156247 -153.09439,84.806999 -152.40625,83.15625 C -151.70617,81.521411 -146.78125,73.5 -146.78125,73.5 L -142.1875,76.1875 L -148.65625,66.1875 L -160.59375,65.5 z M -128.0625,74.71875 L -133.4375,85.34375 L -128.0625,96 L -128.0625,90.5 L -122.40625,90.5 C -122.40625,90.499997 -117.65053,91.828872 -112.75,77.21875 C -112.75,77.218748 -115.22823,80.0625 -116.875,80.0625 C -118.52178,80.062501 -128.0625,80.0625 -128.0625,80.0625 L -128.0625,74.71875 z M -134.3125,81.03125 L -145.375,81.15625 C -145.375,81.15625 -150.63641,81.985304 -150.21875,86.5 C -149.80109,91.126074 -145.125,91.343753 -145.125,91.34375 L -134.3125,91.40625 L -134.3125,81.03125 z " id="path2664" style="opacity:0.8;fill:url(#linearGradient4150);fill-opacity:1"/>
          <path d="M -134.48125,48.125 C -136.46011,48.163139 -138.87976,48.330178 -141.825,48.71875 C -141.825,48.71875 -140.66465,48.979587 -139.5125,49.4375 C -137.5813,49.238905 -135.91641,49.15266 -134.48125,49.125 C -125.90618,48.959732 -125.5125,51.468751 -125.5125,51.46875 L -122.7,56.40625 L -118.98125,54.25 L -117.91875,52.65625 L -122.7,55.40625 L -125.5125,50.46875 C -125.5125,50.468751 -125.90618,47.959732 -134.48125,48.125 z M -143.7,49.84375 C -146.27513,50.06227 -147.76251,52.343749 -147.7625,52.34375 L -153.23125,61.6875 L -152.79375,61.9375 L -147.7625,53.34375 C -147.76251,53.343749 -146.06808,50.765137 -143.16875,50.84375 C -142.49967,50.861892 -141.7748,51.040052 -140.98125,51.40625 C -139.08401,52.285995 -138.49619,53.799175 -138.3875,55.1875 C -138.27006,53.59961 -138.60936,51.506091 -140.98125,50.40625 C -141.7748,50.040052 -142.49967,49.861892 -143.16875,49.84375 C -143.34996,49.838837 -143.52833,49.829182 -143.7,49.84375 z M -118.54375,60.78125 L -127.575,66 L -127.1375,66.75 L -118.54375,61.78125 L -113.2,71.1875 C -113.2,71.187498 -112.74349,72.139813 -112.6375,73.40625 C -112.46842,71.657857 -113.2,70.187498 -113.2,70.1875 L -118.54375,60.78125 z M -132.16875,60.8125 L -136.35625,63.21875 L -134.45,63.125 L -131.73125,61.5625 C -131.73125,61.5625 -132.10299,60.927518 -132.16875,60.8125 z M -160.60625,65.5 L -158.66875,66.625 L -148.66875,67.1875 L -143.23125,75.59375 L -142.2,76.1875 L -148.66875,66.1875 L -160.60625,65.5 z M -156.2625,69 L -158.66875,73.1875 C -158.66875,73.187499 -159.40191,73.939258 -159.2625,75.8125 C -159.13907,74.663969 -158.66875,74.187499 -158.66875,74.1875 L -155.825,69.25 L -156.2625,69 z M -128.075,74.71875 L -133.45,85.34375 L -133.2,85.84375 L -128.075,75.71875 L -128.075,74.71875 z M -112.7625,77.21875 C -112.7625,77.218748 -115.24073,80.0625 -116.8875,80.0625 C -118.53428,80.062501 -128.075,80.0625 -128.075,80.0625 L -128.075,81.0625 C -128.075,81.0625 -118.53428,81.062501 -116.8875,81.0625 C -115.71669,81.0625 -114.14693,79.643432 -113.325,78.8125 C -113.13526,78.291837 -112.95295,77.786546 -112.7625,77.21875 z M -134.325,81.03125 L -145.3875,81.15625 C -145.3875,81.15625 -150.64891,81.985304 -150.23125,86.5 C -150.22831,86.53259 -150.23461,86.561596 -150.23125,86.59375 C -149.92557,82.867347 -145.3875,82.15625 -145.3875,82.15625 L -134.325,82.03125 L -134.325,81.03125 z M -152.60625,84.96875 C -152.70906,85.872319 -152.57092,86.906527 -152.3875,87.75 C -152.26086,87.89201 -152.14361,88.011731 -152.0125,88.15625 C -152.0125,88.156248 -152.51938,86.517696 -152.60625,84.96875 z " id="path4383" style="opacity:0.8;fill:#555555"/>
          <path d="M -139.5375,48.4375 C -140.26817,48.51267 -141.01071,48.612143 -141.81875,48.71875 C -141.81874,48.71875 -138.09441,49.594178 -137.31875,50.875 C -136.60265,52.034571 -132.85998,58.592483 -132.1625,59.8125 L -131.725,59.5625 C -131.725,59.5625 -136.53513,51.143891 -137.31875,49.875 C -137.66445,49.304151 -138.61112,48.805682 -139.5375,48.4375 z M -117.9125,52.65625 L -118.975,53.25 L -124.475,61.625 L -134.44375,62.125 L -136.35,63.21875 L -124.475,62.625 L -117.9125,52.65625 z M -138.38125,54.03125 C -138.44642,55.269089 -138.7875,56.25 -138.7875,56.25 L -144.225,65.90625 L -152.7875,60.9375 L -153.225,61.6875 L -144.225,66.90625 L -138.7875,57.25 C -138.7875,57.25 -138.20378,55.712878 -138.38125,54.03125 z M -160.6,65.5 L -156.25625,68 L -155.81875,67.25 L -158.6625,65.625 L -160.6,65.5 z M -127.13125,65.75 L -127.56875,66 L -121.9125,75.53125 C -121.91249,75.53125 -118.54132,79.67983 -114.85,77.0625 C -112.83903,75.642005 -112.51255,73.824508 -112.63125,72.40625 C -112.74859,73.619628 -113.29049,74.960899 -114.85,76.0625 C -118.54132,78.67983 -121.91249,74.53125 -121.9125,74.53125 L -127.13125,65.75 z M -146.7875,72.5 C -146.7875,72.5 -151.71241,80.521411 -152.4125,82.15625 C -152.63863,82.698711 -152.68801,83.42608 -152.63125,84.15625 C -152.60461,83.7902 -152.53298,83.445262 -152.4125,83.15625 C -151.71241,81.521411 -146.7875,73.5 -146.7875,73.5 L -142.19375,76.1875 L -143.225,74.59375 L -146.7875,72.5 z M -159.2875,74.90625 C -159.45917,76.952897 -158.47251,81.028694 -152.00625,88.15625 C -152.00625,88.156249 -152.21109,87.532487 -152.38125,86.75 C -157.63595,80.857493 -159.09318,77.115052 -159.2875,74.90625 z M -112.75625,77.21875 C -112.75625,77.218749 -113.00038,77.457948 -113.31875,77.78125 C -118.01586,90.693225 -122.41249,89.499997 -122.4125,89.5 L -128.06875,89.5 L -128.06875,90.5 L -122.4125,90.5 C -122.41249,90.499997 -117.65678,91.828872 -112.75625,77.21875 z M -133.19375,84.84375 L -133.44375,85.34375 L -128.06875,96 L -128.06875,95 L -133.19375,84.84375 z M -150.225,85.5 C -150.25736,85.811657 -150.25795,86.14388 -150.225,86.5 C -149.80733,91.126074 -145.13125,91.343753 -145.13125,91.34375 L -134.31875,91.40625 L -134.31875,90.40625 L -145.13125,90.34375 C -145.13125,90.343753 -149.80733,90.126074 -150.225,85.5 z " id="path4388" style="opacity:1;fill:#ffffff;fill-opacity:1"/>
        </g>
        <g clip-path="url(#clipPath4109)" id="g4088" style="opacity:0.56928837" transform="translate(203.14294,5.7012423)">
          <path d="M -134.46875,48.125 C -136.44761,48.163139 -138.86726,48.330178 -141.8125,48.71875 C -141.8125,48.71875 -138.08816,49.594178 -137.3125,50.875 C -136.52889,52.143891 -131.71875,60.5625 -131.71875,60.5625 L -136.34375,63.21875 L -124.46875,62.625 L -117.90625,52.65625 L -122.6875,55.40625 L -125.5,50.46875 C -125.5,50.468751 -125.89368,47.959732 -134.46875,48.125 z M -143.15625,49.84375 C -146.05558,49.765137 -147.75001,52.343749 -147.75,52.34375 L -153.21875,61.6875 L -144.21875,66.90625 L -138.78125,57.25 C -138.78125,57.25 -136.85978,52.31157 -140.96875,50.40625 C -141.7623,50.040052 -142.48717,49.861892 -143.15625,49.84375 z M -118.53125,60.78125 L -127.5625,66 L -121.90625,75.53125 C -121.90625,75.53125 -118.53507,79.67983 -114.84375,77.0625 C -111.03709,74.37357 -113.1875,70.187496 -113.1875,70.1875 L -118.53125,60.78125 z M -160.59375,65.5 L -155.8125,68.25 L -158.65625,73.1875 C -158.65625,73.187498 -162.34602,76.752161 -152,88.15625 C -152,88.156247 -153.09439,84.806999 -152.40625,83.15625 C -151.70617,81.521411 -146.78125,73.5 -146.78125,73.5 L -142.1875,76.1875 L -148.65625,66.1875 L -160.59375,65.5 z M -128.0625,74.71875 L -133.4375,85.34375 L -128.0625,96 L -128.0625,90.5 L -122.40625,90.5 C -122.40625,90.499997 -117.65053,91.828872 -112.75,77.21875 C -112.75,77.218748 -115.22823,80.0625 -116.875,80.0625 C -118.52178,80.062501 -128.0625,80.0625 -128.0625,80.0625 L -128.0625,74.71875 z M -134.3125,81.03125 L -145.375,81.15625 C -145.375,81.15625 -150.63641,81.985304 -150.21875,86.5 C -149.80109,91.126074 -145.125,91.343753 -145.125,91.34375 L -134.3125,91.40625 L -134.3125,81.03125 z " id="path4090" style="opacity:0.8;fill:url(#linearGradient4152);fill-opacity:1"/>
          <path d="M -134.48125,48.125 C -136.46011,48.163139 -138.87976,48.330178 -141.825,48.71875 C -141.825,48.71875 -140.66465,48.979587 -139.5125,49.4375 C -137.5813,49.238905 -135.91641,49.15266 -134.48125,49.125 C -125.90618,48.959732 -125.5125,51.468751 -125.5125,51.46875 L -122.7,56.40625 L -118.98125,54.25 L -117.91875,52.65625 L -122.7,55.40625 L -125.5125,50.46875 C -125.5125,50.468751 -125.90618,47.959732 -134.48125,48.125 z M -143.7,49.84375 C -146.27513,50.06227 -147.76251,52.343749 -147.7625,52.34375 L -153.23125,61.6875 L -152.79375,61.9375 L -147.7625,53.34375 C -147.76251,53.343749 -146.06808,50.765137 -143.16875,50.84375 C -142.49967,50.861892 -141.7748,51.040052 -140.98125,51.40625 C -139.08401,52.285995 -138.49619,53.799175 -138.3875,55.1875 C -138.27006,53.59961 -138.60936,51.506091 -140.98125,50.40625 C -141.7748,50.040052 -142.49967,49.861892 -143.16875,49.84375 C -143.34996,49.838837 -143.52833,49.829182 -143.7,49.84375 z M -118.54375,60.78125 L -127.575,66 L -127.1375,66.75 L -118.54375,61.78125 L -113.2,71.1875 C -113.2,71.187498 -112.74349,72.139813 -112.6375,73.40625 C -112.46842,71.657857 -113.2,70.187498 -113.2,70.1875 L -118.54375,60.78125 z M -132.16875,60.8125 L -136.35625,63.21875 L -134.45,63.125 L -131.73125,61.5625 C -131.73125,61.5625 -132.10299,60.927518 -132.16875,60.8125 z M -160.60625,65.5 L -158.66875,66.625 L -148.66875,67.1875 L -143.23125,75.59375 L -142.2,76.1875 L -148.66875,66.1875 L -160.60625,65.5 z M -156.2625,69 L -158.66875,73.1875 C -158.66875,73.187499 -159.40191,73.939258 -159.2625,75.8125 C -159.13907,74.663969 -158.66875,74.187499 -158.66875,74.1875 L -155.825,69.25 L -156.2625,69 z M -128.075,74.71875 L -133.45,85.34375 L -133.2,85.84375 L -128.075,75.71875 L -128.075,74.71875 z M -112.7625,77.21875 C -112.7625,77.218748 -115.24073,80.0625 -116.8875,80.0625 C -118.53428,80.062501 -128.075,80.0625 -128.075,80.0625 L -128.075,81.0625 C -128.075,81.0625 -118.53428,81.062501 -116.8875,81.0625 C -115.71669,81.0625 -114.14693,79.643432 -113.325,78.8125 C -113.13526,78.291837 -112.95295,77.786546 -112.7625,77.21875 z M -134.325,81.03125 L -145.3875,81.15625 C -145.3875,81.15625 -150.64891,81.985304 -150.23125,86.5 C -150.22831,86.53259 -150.23461,86.561596 -150.23125,86.59375 C -149.92557,82.867347 -145.3875,82.15625 -145.3875,82.15625 L -134.325,82.03125 L -134.325,81.03125 z M -152.60625,84.96875 C -152.70906,85.872319 -152.57092,86.906527 -152.3875,87.75 C -152.26086,87.89201 -152.14361,88.011731 -152.0125,88.15625 C -152.0125,88.156248 -152.51938,86.517696 -152.60625,84.96875 z " id="path4092" style="opacity:0.8;fill:#555555"/>
          <path d="M -139.5375,48.4375 C -140.26817,48.51267 -141.01071,48.612143 -141.81875,48.71875 C -141.81874,48.71875 -138.09441,49.594178 -137.31875,50.875 C -136.60265,52.034571 -132.85998,58.592483 -132.1625,59.8125 L -131.725,59.5625 C -131.725,59.5625 -136.53513,51.143891 -137.31875,49.875 C -137.66445,49.304151 -138.61112,48.805682 -139.5375,48.4375 z M -117.9125,52.65625 L -118.975,53.25 L -124.475,61.625 L -134.44375,62.125 L -136.35,63.21875 L -124.475,62.625 L -117.9125,52.65625 z M -138.38125,54.03125 C -138.44642,55.269089 -138.7875,56.25 -138.7875,56.25 L -144.225,65.90625 L -152.7875,60.9375 L -153.225,61.6875 L -144.225,66.90625 L -138.7875,57.25 C -138.7875,57.25 -138.20378,55.712878 -138.38125,54.03125 z M -160.6,65.5 L -156.25625,68 L -155.81875,67.25 L -158.6625,65.625 L -160.6,65.5 z M -127.13125,65.75 L -127.56875,66 L -121.9125,75.53125 C -121.91249,75.53125 -118.54132,79.67983 -114.85,77.0625 C -112.83903,75.642005 -112.51255,73.824508 -112.63125,72.40625 C -112.74859,73.619628 -113.29049,74.960899 -114.85,76.0625 C -118.54132,78.67983 -121.91249,74.53125 -121.9125,74.53125 L -127.13125,65.75 z M -146.7875,72.5 C -146.7875,72.5 -151.71241,80.521411 -152.4125,82.15625 C -152.63863,82.698711 -152.68801,83.42608 -152.63125,84.15625 C -152.60461,83.7902 -152.53298,83.445262 -152.4125,83.15625 C -151.71241,81.521411 -146.7875,73.5 -146.7875,73.5 L -142.19375,76.1875 L -143.225,74.59375 L -146.7875,72.5 z M -159.2875,74.90625 C -159.45917,76.952897 -158.47251,81.028694 -152.00625,88.15625 C -152.00625,88.156249 -152.21109,87.532487 -152.38125,86.75 C -157.63595,80.857493 -159.09318,77.115052 -159.2875,74.90625 z M -112.75625,77.21875 C -112.75625,77.218749 -113.00038,77.457948 -113.31875,77.78125 C -118.01586,90.693225 -122.41249,89.499997 -122.4125,89.5 L -128.06875,89.5 L -128.06875,90.5 L -122.4125,90.5 C -122.41249,90.499997 -117.65678,91.828872 -112.75625,77.21875 z M -133.19375,84.84375 L -133.44375,85.34375 L -128.06875,96 L -128.06875,95 L -133.19375,84.84375 z M -150.225,85.5 C -150.25736,85.811657 -150.25795,86.14388 -150.225,86.5 C -149.80733,91.126074 -145.13125,91.343753 -145.13125,91.34375 L -134.31875,91.40625 L -134.31875,90.40625 L -145.13125,90.34375 C -145.13125,90.343753 -149.80733,90.126074 -150.225,85.5 z " id="path4095" style="opacity:1;fill:#ffffff;fill-opacity:1"/>
        </g>
      </g>
      <g clip-path="url(#clipPath4105)" id="g4097" style="opacity:0.56928837" transform="matrix(1,0.2377109,0,1,203.14294,40.167992)">
        <path d="M -134.46875,48.125 C -136.44761,48.163139 -138.86726,48.330178 -141.8125,48.71875 C -141.8125,48.71875 -138.08816,49.594178 -137.3125,50.875 C -136.52889,52.143891 -131.71875,60.5625 -131.71875,60.5625 L -136.34375,63.21875 L -124.46875,62.625 L -117.90625,52.65625 L -122.6875,55.40625 L -125.5,50.46875 C -125.5,50.468751 -125.89368,47.959732 -134.46875,48.125 z M -143.15625,49.84375 C -146.05558,49.765137 -147.75001,52.343749 -147.75,52.34375 L -153.21875,61.6875 L -144.21875,66.90625 L -138.78125,57.25 C -138.78125,57.25 -136.85978,52.31157 -140.96875,50.40625 C -141.7623,50.040052 -142.48717,49.861892 -143.15625,49.84375 z M -118.53125,60.78125 L -127.5625,66 L -121.90625,75.53125 C -121.90625,75.53125 -118.53507,79.67983 -114.84375,77.0625 C -111.03709,74.37357 -113.1875,70.187496 -113.1875,70.1875 L -118.53125,60.78125 z M -160.59375,65.5 L -155.8125,68.25 L -158.65625,73.1875 C -158.65625,73.187498 -162.34602,76.752161 -152,88.15625 C -152,88.156247 -153.09439,84.806999 -152.40625,83.15625 C -151.70617,81.521411 -146.78125,73.5 -146.78125,73.5 L -142.1875,76.1875 L -148.65625,66.1875 L -160.59375,65.5 z M -128.0625,74.71875 L -133.4375,85.34375 L -128.0625,96 L -128.0625,90.5 L -122.40625,90.5 C -122.40625,90.499997 -117.65053,91.828872 -112.75,77.21875 C -112.75,77.218748 -115.22823,80.0625 -116.875,80.0625 C -118.52178,80.062501 -128.0625,80.0625 -128.0625,80.0625 L -128.0625,74.71875 z M -134.3125,81.03125 L -145.375,81.15625 C -145.375,81.15625 -150.63641,81.985304 -150.21875,86.5 C -149.80109,91.126074 -145.125,91.343753 -145.125,91.34375 L -134.3125,91.40625 L -134.3125,81.03125 z " id="path4099" style="opacity:0.8;fill:url(#linearGradient4154);fill-opacity:1"/>
        <path d="M -134.48125,48.125 C -136.46011,48.163139 -138.87976,48.330178 -141.825,48.71875 C -141.825,48.71875 -140.66465,48.979587 -139.5125,49.4375 C -137.5813,49.238905 -135.91641,49.15266 -134.48125,49.125 C -125.90618,48.959732 -125.5125,51.468751 -125.5125,51.46875 L -122.7,56.40625 L -118.98125,54.25 L -117.91875,52.65625 L -122.7,55.40625 L -125.5125,50.46875 C -125.5125,50.468751 -125.90618,47.959732 -134.48125,48.125 z M -143.7,49.84375 C -146.27513,50.06227 -147.76251,52.343749 -147.7625,52.34375 L -153.23125,61.6875 L -152.79375,61.9375 L -147.7625,53.34375 C -147.76251,53.343749 -146.06808,50.765137 -143.16875,50.84375 C -142.49967,50.861892 -141.7748,51.040052 -140.98125,51.40625 C -139.08401,52.285995 -138.49619,53.799175 -138.3875,55.1875 C -138.27006,53.59961 -138.60936,51.506091 -140.98125,50.40625 C -141.7748,50.040052 -142.49967,49.861892 -143.16875,49.84375 C -143.34996,49.838837 -143.52833,49.829182 -143.7,49.84375 z M -118.54375,60.78125 L -127.575,66 L -127.1375,66.75 L -118.54375,61.78125 L -113.2,71.1875 C -113.2,71.187498 -112.74349,72.139813 -112.6375,73.40625 C -112.46842,71.657857 -113.2,70.187498 -113.2,70.1875 L -118.54375,60.78125 z M -132.16875,60.8125 L -136.35625,63.21875 L -134.45,63.125 L -131.73125,61.5625 C -131.73125,61.5625 -132.10299,60.927518 -132.16875,60.8125 z M -160.60625,65.5 L -158.66875,66.625 L -148.66875,67.1875 L -143.23125,75.59375 L -142.2,76.1875 L -148.66875,66.1875 L -160.60625,65.5 z M -156.2625,69 L -158.66875,73.1875 C -158.66875,73.187499 -159.40191,73.939258 -159.2625,75.8125 C -159.13907,74.663969 -158.66875,74.187499 -158.66875,74.1875 L -155.825,69.25 L -156.2625,69 z M -128.075,74.71875 L -133.45,85.34375 L -133.2,85.84375 L -128.075,75.71875 L -128.075,74.71875 z M -112.7625,77.21875 C -112.7625,77.218748 -115.24073,80.0625 -116.8875,80.0625 C -118.53428,80.062501 -128.075,80.0625 -128.075,80.0625 L -128.075,81.0625 C -128.075,81.0625 -118.53428,81.062501 -116.8875,81.0625 C -115.71669,81.0625 -114.14693,79.643432 -113.325,78.8125 C -113.13526,78.291837 -112.95295,77.786546 -112.7625,77.21875 z M -134.325,81.03125 L -145.3875,81.15625 C -145.3875,81.15625 -150.64891,81.985304 -150.23125,86.5 C -150.22831,86.53259 -150.23461,86.561596 -150.23125,86.59375 C -149.92557,82.867347 -145.3875,82.15625 -145.3875,82.15625 L -134.325,82.03125 L -134.325,81.03125 z M -152.60625,84.96875 C -152.70906,85.872319 -152.57092,86.906527 -152.3875,87.75 C -152.26086,87.89201 -152.14361,88.011731 -152.0125,88.15625 C -152.0125,88.156248 -152.51938,86.517696 -152.60625,84.96875 z " id="path4101" style="opacity:0.8;fill:#555555"/>
        <path d="M -139.5375,48.4375 C -140.26817,48.51267 -141.01071,48.612143 -141.81875,48.71875 C -141.81874,48.71875 -138.09441,49.594178 -137.31875,50.875 C -136.60265,52.034571 -132.85998,58.592483 -132.1625,59.8125 L -131.725,59.5625 C -131.725,59.5625 -136.53513,51.143891 -137.31875,49.875 C -137.66445,49.304151 -138.61112,48.805682 -139.5375,48.4375 z M -117.9125,52.65625 L -118.975,53.25 L -124.475,61.625 L -134.44375,62.125 L -136.35,63.21875 L -124.475,62.625 L -117.9125,52.65625 z M -138.38125,54.03125 C -138.44642,55.269089 -138.7875,56.25 -138.7875,56.25 L -144.225,65.90625 L -152.7875,60.9375 L -153.225,61.6875 L -144.225,66.90625 L -138.7875,57.25 C -138.7875,57.25 -138.20378,55.712878 -138.38125,54.03125 z M -160.6,65.5 L -156.25625,68 L -155.81875,67.25 L -158.6625,65.625 L -160.6,65.5 z M -127.13125,65.75 L -127.56875,66 L -121.9125,75.53125 C -121.91249,75.53125 -118.54132,79.67983 -114.85,77.0625 C -112.83903,75.642005 -112.51255,73.824508 -112.63125,72.40625 C -112.74859,73.619628 -113.29049,74.960899 -114.85,76.0625 C -118.54132,78.67983 -121.91249,74.53125 -121.9125,74.53125 L -127.13125,65.75 z M -146.7875,72.5 C -146.7875,72.5 -151.71241,80.521411 -152.4125,82.15625 C -152.63863,82.698711 -152.68801,83.42608 -152.63125,84.15625 C -152.60461,83.7902 -152.53298,83.445262 -152.4125,83.15625 C -151.71241,81.521411 -146.7875,73.5 -146.7875,73.5 L -142.19375,76.1875 L -143.225,74.59375 L -146.7875,72.5 z M -159.2875,74.90625 C -159.45917,76.952897 -158.47251,81.028694 -152.00625,88.15625 C -152.00625,88.156249 -152.21109,87.532487 -152.38125,86.75 C -157.63595,80.857493 -159.09318,77.115052 -159.2875,74.90625 z M -112.75625,77.21875 C -112.75625,77.218749 -113.00038,77.457948 -113.31875,77.78125 C -118.01586,90.693225 -122.41249,89.499997 -122.4125,89.5 L -128.06875,89.5 L -128.06875,90.5 L -122.4125,90.5 C -122.41249,90.499997 -117.65678,91.828872 -112.75625,77.21875 z M -133.19375,84.84375 L -133.44375,85.34375 L -128.06875,96 L -128.06875,95 L -133.19375,84.84375 z M -150.225,85.5 C -150.25736,85.811657 -150.25795,86.14388 -150.225,86.5 C -149.80733,91.126074 -145.13125,91.343753 -145.13125,91.34375 L -134.31875,91.40625 L -134.31875,90.40625 L -145.13125,90.34375 C -145.13125,90.343753 -149.80733,90.126074 -150.225,85.5 z " id="path4103" style="opacity:1;fill:#ffffff;fill-opacity:1"/>
      </g>
    </g>
  </g>
</svg>
